<svg width="327" height="209" viewBox="0 0 327 209" fill="none" xmlns="http://www.w3.org/2000/svg">
<path d="M134.047 77.5625C134.047 74.9062 134.625 72.4844 135.781 70.2969C136.938 68.1094 138.672 66.2344 140.984 64.6719C143.297 63.0781 146.172 61.8594 149.609 61.0156C153.078 60.1406 157.109 59.7031 161.703 59.7031C165.109 59.7031 168.688 59.9531 172.438 60.4531C176.219 60.9531 180.109 61.7188 184.109 62.75C183.953 61 183.422 59.3906 182.516 57.9219C181.609 56.4219 180.344 55.1406 178.719 54.0781C177.125 52.9844 175.188 52.1406 172.906 51.5469C170.656 50.9531 168.094 50.6562 165.219 50.6562C163.656 50.6562 161.938 50.75 160.062 50.9375C158.188 51.125 156.25 51.4062 154.25 51.7812C152.25 52.1562 150.266 52.625 148.297 53.1875C146.359 53.75 144.547 54.4219 142.859 55.2031L138.641 43.8125C140.734 43.0625 142.969 42.375 145.344 41.75C147.75 41.125 150.203 40.5938 152.703 40.1562C155.203 39.6875 157.703 39.3281 160.203 39.0781C162.703 38.8281 165.125 38.7031 167.469 38.7031C177.812 38.7031 185.5 41.3438 190.531 46.625C195.562 51.9062 198.078 60 198.078 70.9062V95H184.203V89.7969C182.766 90.6406 181.188 91.4375 179.469 92.1875C177.781 92.9375 175.938 93.5938 173.938 94.1562C171.938 94.7188 169.781 95.1562 167.469 95.4688C165.188 95.8125 162.766 95.9844 160.203 95.9844C155.891 95.9844 152.094 95.5156 148.812 94.5781C145.562 93.6406 142.844 92.3438 140.656 90.6875C138.469 89.0312 136.812 87.0938 135.688 84.875C134.594 82.625 134.047 80.1875 134.047 77.5625ZM148.672 77.0938C148.672 78 148.906 78.875 149.375 79.7188C149.844 80.5312 150.594 81.2656 151.625 81.9219C152.656 82.5469 153.969 83.0625 155.562 83.4688C157.188 83.8438 159.141 84.0312 161.422 84.0312C163.859 84.0312 166.219 83.8125 168.5 83.375C170.781 82.9375 172.906 82.3594 174.875 81.6406C176.844 80.9219 178.625 80.0938 180.219 79.1562C181.812 78.2188 183.141 77.25 184.203 76.25V73.8125C182.078 73.2188 179.969 72.7188 177.875 72.3125C175.812 71.9062 173.828 71.5938 171.922 71.375C170.047 71.125 168.266 70.9531 166.578 70.8594C164.922 70.7656 163.469 70.7188 162.219 70.7188C159.625 70.7188 157.469 70.8906 155.75 71.2344C154.031 71.5781 152.641 72.0469 151.578 72.6406C150.516 73.2031 149.766 73.875 149.328 74.6562C148.891 75.4375 148.672 76.25 148.672 77.0938Z" fill="#00FFB0"/>
<path d="M140.984 64.6719L141.544 65.5005L141.552 65.4953L140.984 64.6719ZM149.609 61.0156L149.848 61.9868L149.854 61.9853L149.609 61.0156ZM172.438 60.4531L172.305 61.4444L172.306 61.4445L172.438 60.4531ZM184.109 62.75L183.86 63.7183L185.231 64.072L185.105 62.6611L184.109 62.75ZM182.516 57.9219L181.66 58.439L181.665 58.447L182.516 57.9219ZM178.719 54.0781L178.153 54.9026L178.162 54.909L178.172 54.9151L178.719 54.0781ZM172.906 51.5469L172.651 52.5138L172.654 52.5146L172.906 51.5469ZM148.297 53.1875L148.022 52.226L148.018 52.2272L148.297 53.1875ZM142.859 55.2031L141.922 55.5504L142.297 56.5652L143.279 56.1106L142.859 55.2031ZM138.641 43.8125L138.303 42.8711L137.352 43.2119L137.703 44.1598L138.641 43.8125ZM145.344 41.75L145.092 40.7821L145.089 40.7829L145.344 41.75ZM152.703 40.1562L152.876 41.1414L152.887 41.1391L152.703 40.1562ZM198.078 95V96H199.078V95H198.078ZM184.203 95H183.203V96H184.203V95ZM184.203 89.7969H185.203V88.0504L183.697 88.9345L184.203 89.7969ZM179.469 92.1875L179.069 91.2709L179.063 91.2737L179.469 92.1875ZM167.469 95.4688L167.335 94.4778L167.327 94.4788L167.32 94.4799L167.469 95.4688ZM148.812 94.5781L148.535 95.5389L148.538 95.5396L148.812 94.5781ZM135.688 84.875L134.788 85.3122L134.792 85.3197L134.796 85.3272L135.688 84.875ZM149.375 79.7188L148.501 80.2044L148.505 80.2115L148.509 80.2185L149.375 79.7188ZM151.625 81.9219L151.088 82.7655L151.097 82.7714L151.107 82.7771L151.625 81.9219ZM155.562 83.4688L155.315 84.4378L155.327 84.4406L155.338 84.4431L155.562 83.4688ZM184.203 76.25L184.888 76.9782L185.203 76.6821V76.25H184.203ZM184.203 73.8125H185.203V73.0536L184.472 72.8494L184.203 73.8125ZM177.875 72.3125L177.682 73.2937L177.685 73.2942L177.875 72.3125ZM171.922 71.375L171.79 72.3662L171.799 72.3674L171.808 72.3685L171.922 71.375ZM166.578 70.8594L166.522 71.8578L166.523 71.8578L166.578 70.8594ZM151.578 72.6406L152.046 73.5244L152.056 73.5191L152.066 73.5136L151.578 72.6406ZM135.047 77.5625C135.047 75.0568 135.591 72.7972 136.665 70.7642L134.897 69.8296C133.659 72.1716 133.047 74.7557 133.047 77.5625H135.047ZM136.665 70.7642C137.735 68.7396 139.35 66.9829 141.544 65.5005L140.425 63.8433C137.994 65.4858 136.14 67.4791 134.897 69.8296L136.665 70.7642ZM141.552 65.4953C143.742 63.9856 146.499 62.8089 149.848 61.9868L149.371 60.0445C145.845 60.9099 142.851 62.1706 140.417 63.8485L141.552 65.4953ZM149.854 61.9853C153.224 61.1352 157.17 60.7031 161.703 60.7031V58.7031C157.049 58.7031 152.932 59.1461 149.365 60.046L149.854 61.9853ZM161.703 60.7031C165.061 60.7031 168.594 60.9496 172.305 61.4444L172.57 59.4619C168.781 58.9567 165.158 58.7031 161.703 58.7031V60.7031ZM172.306 61.4445C176.045 61.9388 179.896 62.6963 183.86 63.7183L184.359 61.7817C180.323 60.7412 176.393 59.9674 172.569 59.4618L172.306 61.4445ZM185.105 62.6611C184.936 60.7593 184.356 59.0001 183.367 57.3968L181.665 58.447C182.488 59.7811 182.971 61.2407 183.113 62.8389L185.105 62.6611ZM183.372 57.4048C182.38 55.763 181.003 54.3768 179.266 53.2412L178.172 54.9151C179.685 55.9044 180.839 57.0807 181.66 58.439L183.372 57.4048ZM179.285 53.2536C177.577 52.0817 175.528 51.1959 173.158 50.5791L172.654 52.5146C174.847 53.0854 176.673 53.8871 178.153 54.9026L179.285 53.2536ZM173.161 50.58C170.811 49.9598 168.161 49.6562 165.219 49.6562V51.6562C168.027 51.6562 170.501 51.9464 172.651 52.5138L173.161 50.58ZM165.219 49.6562C163.617 49.6562 161.865 49.7523 159.963 49.9425L160.162 51.9325C162.01 51.7477 163.695 51.6562 165.219 51.6562V49.6562ZM159.963 49.9425C158.057 50.133 156.092 50.4185 154.066 50.7984L154.434 52.7641C156.408 52.394 158.318 52.117 160.162 51.9325L159.963 49.9425ZM154.066 50.7984C152.035 51.1791 150.021 51.655 148.022 52.226L148.572 54.149C150.511 53.595 152.465 53.1334 154.434 52.7641L154.066 50.7984ZM148.018 52.2272C146.036 52.8025 144.176 53.4916 142.439 54.2957L143.279 56.1106C144.918 55.3522 146.683 54.6975 148.576 54.1478L148.018 52.2272ZM143.797 54.8558L139.578 43.4652L137.703 44.1598L141.922 55.5504L143.797 54.8558ZM138.978 44.7539C141.042 44.0146 143.248 43.3355 145.598 42.7171L145.089 40.7829C142.689 41.4145 140.427 42.1104 138.303 42.8711L138.978 44.7539ZM145.595 42.7179C147.975 42.0998 150.402 41.5742 152.876 41.1413L152.531 39.1712C150.005 39.6133 147.525 40.1502 145.092 40.7821L145.595 42.7179ZM152.887 41.1391C155.36 40.6756 157.831 40.3203 160.303 40.0732L160.104 38.0831C157.575 38.336 155.047 38.6994 152.519 39.1734L152.887 41.1391ZM160.303 40.0732C162.772 39.8262 165.161 39.7031 167.469 39.7031V37.7031C165.089 37.7031 162.634 37.83 160.104 38.0831L160.303 40.0732ZM167.469 39.7031C177.655 39.7031 185.032 42.3025 189.807 47.3148L191.255 45.9352C185.968 40.385 177.97 37.7031 167.469 37.7031V39.7031ZM189.807 47.3148C194.591 52.3359 197.078 60.1319 197.078 70.9062H199.078C199.078 59.8681 196.534 51.4766 191.255 45.9352L189.807 47.3148ZM197.078 70.9062V95H199.078V70.9062H197.078ZM198.078 94H184.203V96H198.078V94ZM185.203 95V89.7969H183.203V95H185.203ZM183.697 88.9345C182.298 89.7558 180.756 90.5349 179.069 91.271L179.869 93.104C181.619 92.3401 183.234 91.5255 184.709 90.6593L183.697 88.9345ZM179.063 91.2737C177.424 92.0019 175.626 92.6425 173.667 93.1936L174.208 95.1189C176.249 94.545 178.138 93.8731 179.875 93.1013L179.063 91.2737ZM173.667 93.1936C171.717 93.742 169.607 94.1708 167.335 94.4778L167.603 96.4597C169.956 96.1417 172.158 95.6955 174.208 95.1189L173.667 93.1936ZM167.32 94.4799C165.093 94.8155 162.721 94.9844 160.203 94.9844V96.9844C162.81 96.9844 165.282 96.8095 167.618 96.4576L167.32 94.4799ZM160.203 94.9844C155.96 94.9844 152.259 94.5229 149.087 93.6166L148.538 95.5396C151.928 96.5084 155.821 96.9844 160.203 96.9844V94.9844ZM149.09 93.6173C145.931 92.7062 143.33 91.4574 141.26 89.8902L140.053 91.4848C142.358 93.2301 145.194 94.5751 148.535 95.5389L149.09 93.6173ZM141.26 89.8902C139.181 88.3161 137.629 86.4927 136.579 84.4228L134.796 85.3272C135.996 87.6948 137.757 89.7464 140.053 91.4848L141.26 89.8902ZM136.587 84.4378C135.563 82.3308 135.047 80.0437 135.047 77.5625H133.047C133.047 80.3313 133.625 82.9192 134.788 85.3122L136.587 84.4378ZM147.672 77.0938C147.672 78.181 147.955 79.2221 148.501 80.2044L150.249 79.2331C149.857 78.5279 149.672 77.819 149.672 77.0938H147.672ZM148.509 80.2185C149.079 81.2063 149.961 82.0482 151.088 82.7655L152.162 81.0782C151.227 80.4831 150.609 79.8562 150.241 79.219L148.509 80.2185ZM151.107 82.7771C152.247 83.4679 153.658 84.0154 155.315 84.4378L155.81 82.4997C154.279 82.1096 153.066 81.6258 152.143 81.0667L151.107 82.7771ZM155.338 84.4431C157.058 84.8401 159.091 85.0312 161.422 85.0312V83.0312C159.191 83.0312 157.317 82.8474 155.787 82.4944L155.338 84.4431ZM161.422 85.0312C163.919 85.0312 166.342 84.8071 168.688 84.3571L168.312 82.3929C166.095 82.8179 163.799 83.0312 161.422 83.0312V85.0312ZM168.688 84.3571C171.017 83.9106 173.194 83.3189 175.218 82.58L174.532 80.7013C172.619 81.3998 170.546 81.9644 168.312 82.3929L168.688 84.3571ZM175.218 82.58C177.236 81.8431 179.073 80.9902 180.726 80.0182L179.712 78.2943C178.177 79.1973 176.451 80.0006 174.532 80.7013L175.218 82.58ZM180.726 80.0182C182.368 79.0524 183.76 78.0407 184.888 76.9782L183.518 75.5218C182.522 76.4593 181.257 77.3851 179.712 78.2943L180.726 80.0182ZM185.203 76.25V73.8125H183.203V76.25H185.203ZM184.472 72.8494C182.322 72.2486 180.187 71.7424 178.065 71.3308L177.685 73.2942C179.751 73.6951 181.834 74.1889 183.934 74.7756L184.472 72.8494ZM178.068 71.3314C175.982 70.9204 173.971 70.6036 172.036 70.3815L171.808 72.3685C173.685 72.5839 175.643 72.8921 177.682 73.2936L178.068 71.3314ZM172.054 70.3838C170.157 70.1308 168.35 69.9562 166.634 69.8609L166.523 71.8578C168.182 71.95 169.937 72.1192 171.79 72.3662L172.054 70.3838ZM166.635 69.861C164.965 69.7665 163.493 69.7188 162.219 69.7188V71.7188C163.445 71.7188 164.879 71.7648 166.522 71.8578L166.635 69.861ZM162.219 69.7188C159.587 69.7188 157.36 69.8926 155.554 70.2538L155.946 72.215C157.578 71.8887 159.663 71.7188 162.219 71.7188V69.7188ZM155.554 70.2538C153.774 70.6098 152.274 71.1061 151.09 71.7677L152.066 73.5136C153.007 72.9877 154.289 72.5464 155.946 72.215L155.554 70.2538ZM151.11 71.7568C149.934 72.3793 149.014 73.17 148.456 74.1676L150.201 75.1449C150.517 74.58 151.097 74.0269 152.046 73.5244L151.11 71.7568ZM148.456 74.1676C147.94 75.0887 147.672 76.0684 147.672 77.0938H149.672C149.672 76.4316 149.841 75.7863 150.201 75.1449L148.456 74.1676Z" fill="#00FFB0"/>
<path d="M209.047 166.562C209.047 163.906 209.625 161.484 210.781 159.297C211.938 157.109 213.672 155.234 215.984 153.672C218.297 152.078 221.172 150.859 224.609 150.016C228.078 149.141 232.109 148.703 236.703 148.703C240.109 148.703 243.688 148.953 247.438 149.453C251.219 149.953 255.109 150.719 259.109 151.75C258.953 150 258.422 148.391 257.516 146.922C256.609 145.422 255.344 144.141 253.719 143.078C252.125 141.984 250.188 141.141 247.906 140.547C245.656 139.953 243.094 139.656 240.219 139.656C238.656 139.656 236.938 139.75 235.062 139.938C233.188 140.125 231.25 140.406 229.25 140.781C227.25 141.156 225.266 141.625 223.297 142.188C221.359 142.75 219.547 143.422 217.859 144.203L213.641 132.812C215.734 132.062 217.969 131.375 220.344 130.75C222.75 130.125 225.203 129.594 227.703 129.156C230.203 128.688 232.703 128.328 235.203 128.078C237.703 127.828 240.125 127.703 242.469 127.703C252.812 127.703 260.5 130.344 265.531 135.625C270.562 140.906 273.078 149 273.078 159.906V184H259.203V178.797C257.766 179.641 256.188 180.438 254.469 181.188C252.781 181.938 250.938 182.594 248.938 183.156C246.938 183.719 244.781 184.156 242.469 184.469C240.188 184.812 237.766 184.984 235.203 184.984C230.891 184.984 227.094 184.516 223.812 183.578C220.562 182.641 217.844 181.344 215.656 179.688C213.469 178.031 211.812 176.094 210.688 173.875C209.594 171.625 209.047 169.188 209.047 166.562ZM223.672 166.094C223.672 167 223.906 167.875 224.375 168.719C224.844 169.531 225.594 170.266 226.625 170.922C227.656 171.547 228.969 172.062 230.562 172.469C232.188 172.844 234.141 173.031 236.422 173.031C238.859 173.031 241.219 172.812 243.5 172.375C245.781 171.938 247.906 171.359 249.875 170.641C251.844 169.922 253.625 169.094 255.219 168.156C256.812 167.219 258.141 166.25 259.203 165.25V162.812C257.078 162.219 254.969 161.719 252.875 161.312C250.812 160.906 248.828 160.594 246.922 160.375C245.047 160.125 243.266 159.953 241.578 159.859C239.922 159.766 238.469 159.719 237.219 159.719C234.625 159.719 232.469 159.891 230.75 160.234C229.031 160.578 227.641 161.047 226.578 161.641C225.516 162.203 224.766 162.875 224.328 163.656C223.891 164.438 223.672 165.25 223.672 166.094Z" fill="#00FFB0"/>
<path d="M215.984 153.672L216.544 154.5L216.552 154.495L215.984 153.672ZM224.609 150.016L224.848 150.987L224.854 150.985L224.609 150.016ZM247.438 149.453L247.305 150.444L247.306 150.444L247.438 149.453ZM259.109 151.75L258.86 152.718L260.231 153.072L260.105 151.661L259.109 151.75ZM257.516 146.922L256.66 147.439L256.665 147.447L257.516 146.922ZM253.719 143.078L253.153 143.903L253.162 143.909L253.172 143.915L253.719 143.078ZM247.906 140.547L247.651 141.514L247.654 141.515L247.906 140.547ZM223.297 142.188L223.022 141.226L223.018 141.227L223.297 142.188ZM217.859 144.203L216.922 144.55L217.297 145.565L218.279 145.111L217.859 144.203ZM213.641 132.812L213.303 131.871L212.352 132.212L212.703 133.16L213.641 132.812ZM220.344 130.75L220.092 129.782L220.089 129.783L220.344 130.75ZM227.703 129.156L227.876 130.141L227.887 130.139L227.703 129.156ZM273.078 184V185H274.078V184H273.078ZM259.203 184H258.203V185H259.203V184ZM259.203 178.797H260.203V177.05L258.697 177.934L259.203 178.797ZM254.469 181.188L254.069 180.271L254.063 180.274L254.469 181.188ZM242.469 184.469L242.335 183.478L242.327 183.479L242.32 183.48L242.469 184.469ZM223.812 183.578L223.535 184.539L223.538 184.54L223.812 183.578ZM210.688 173.875L209.788 174.312L209.792 174.32L209.796 174.327L210.688 173.875ZM224.375 168.719L223.501 169.204L223.505 169.211L223.509 169.218L224.375 168.719ZM226.625 170.922L226.088 171.766L226.097 171.771L226.107 171.777L226.625 170.922ZM230.562 172.469L230.315 173.438L230.327 173.441L230.338 173.443L230.562 172.469ZM259.203 165.25L259.888 165.978L260.203 165.682V165.25H259.203ZM259.203 162.812H260.203V162.054L259.472 161.849L259.203 162.812ZM252.875 161.312L252.682 162.294L252.685 162.294L252.875 161.312ZM246.922 160.375L246.79 161.366L246.799 161.367L246.808 161.368L246.922 160.375ZM241.578 159.859L241.522 160.858L241.523 160.858L241.578 159.859ZM226.578 161.641L227.046 162.524L227.056 162.519L227.066 162.514L226.578 161.641ZM210.047 166.562C210.047 164.057 210.591 161.797 211.665 159.764L209.897 158.83C208.659 161.172 208.047 163.756 208.047 166.562H210.047ZM211.665 159.764C212.735 157.74 214.35 155.983 216.544 154.5L215.425 152.843C212.994 154.486 211.14 156.479 209.897 158.83L211.665 159.764ZM216.552 154.495C218.742 152.986 221.499 151.809 224.848 150.987L224.371 149.044C220.845 149.91 217.851 151.171 215.417 152.848L216.552 154.495ZM224.854 150.985C228.224 150.135 232.17 149.703 236.703 149.703V147.703C232.049 147.703 227.932 148.146 224.365 149.046L224.854 150.985ZM236.703 149.703C240.061 149.703 243.594 149.95 247.305 150.444L247.57 148.462C243.781 147.957 240.158 147.703 236.703 147.703V149.703ZM247.306 150.444C251.045 150.939 254.896 151.696 258.86 152.718L259.359 150.782C255.323 149.741 251.393 148.967 247.569 148.462L247.306 150.444ZM260.105 151.661C259.936 149.759 259.356 148 258.367 146.397L256.665 147.447C257.488 148.781 257.971 150.241 258.113 151.839L260.105 151.661ZM258.372 146.405C257.38 144.763 256.003 143.377 254.266 142.241L253.172 143.915C254.685 144.904 255.839 146.081 256.66 147.439L258.372 146.405ZM254.285 142.254C252.577 141.082 250.528 140.196 248.158 139.579L247.654 141.515C249.847 142.085 251.673 142.887 253.153 143.903L254.285 142.254ZM248.161 139.58C245.811 138.96 243.161 138.656 240.219 138.656V140.656C243.027 140.656 245.501 140.946 247.651 141.514L248.161 139.58ZM240.219 138.656C238.617 138.656 236.865 138.752 234.963 138.942L235.162 140.933C237.01 140.748 238.695 140.656 240.219 140.656V138.656ZM234.963 138.942C233.057 139.133 231.092 139.419 229.066 139.798L229.434 141.764C231.408 141.394 233.318 141.117 235.162 140.933L234.963 138.942ZM229.066 139.798C227.035 140.179 225.021 140.655 223.022 141.226L223.572 143.149C225.511 142.595 227.465 142.133 229.434 141.764L229.066 139.798ZM223.018 141.227C221.036 141.803 219.176 142.492 217.439 143.296L218.279 145.111C219.918 144.352 221.683 143.697 223.576 143.148L223.018 141.227ZM218.797 143.856L214.578 132.465L212.703 133.16L216.922 144.55L218.797 143.856ZM213.978 133.754C216.042 133.015 218.248 132.335 220.598 131.717L220.089 129.783C217.689 130.415 215.427 131.11 213.303 131.871L213.978 133.754ZM220.595 131.718C222.975 131.1 225.402 130.574 227.876 130.141L227.531 128.171C225.005 128.613 222.525 129.15 220.092 129.782L220.595 131.718ZM227.887 130.139C230.36 129.676 232.831 129.32 235.303 129.073L235.104 127.083C232.575 127.336 230.047 127.699 227.519 128.173L227.887 130.139ZM235.303 129.073C237.772 128.826 240.161 128.703 242.469 128.703V126.703C240.089 126.703 237.634 126.83 235.104 127.083L235.303 129.073ZM242.469 128.703C252.655 128.703 260.032 131.303 264.807 136.315L266.255 134.935C260.968 129.385 252.97 126.703 242.469 126.703V128.703ZM264.807 136.315C269.591 141.336 272.078 149.132 272.078 159.906H274.078C274.078 148.868 271.534 140.477 266.255 134.935L264.807 136.315ZM272.078 159.906V184H274.078V159.906H272.078ZM273.078 183H259.203V185H273.078V183ZM260.203 184V178.797H258.203V184H260.203ZM258.697 177.934C257.298 178.756 255.756 179.535 254.069 180.271L254.869 182.104C256.619 181.34 258.234 180.525 259.709 179.659L258.697 177.934ZM254.063 180.274C252.424 181.002 250.626 181.643 248.667 182.194L249.208 184.119C251.249 183.545 253.138 182.873 254.875 182.101L254.063 180.274ZM248.667 182.194C246.717 182.742 244.607 183.171 242.335 183.478L242.603 185.46C244.956 185.142 247.158 184.695 249.208 184.119L248.667 182.194ZM242.32 183.48C240.093 183.815 237.721 183.984 235.203 183.984V185.984C237.81 185.984 240.282 185.81 242.618 185.458L242.32 183.48ZM235.203 183.984C230.96 183.984 227.259 183.523 224.087 182.617L223.538 184.54C226.928 185.508 230.821 185.984 235.203 185.984V183.984ZM224.09 182.617C220.931 181.706 218.33 180.457 216.26 178.89L215.053 180.485C217.358 182.23 220.194 183.575 223.535 184.539L224.09 182.617ZM216.26 178.89C214.181 177.316 212.629 175.493 211.579 173.423L209.796 174.327C210.996 176.695 212.757 178.746 215.053 180.485L216.26 178.89ZM211.587 173.438C210.563 171.331 210.047 169.044 210.047 166.562H208.047C208.047 169.331 208.625 171.919 209.788 174.312L211.587 173.438ZM222.672 166.094C222.672 167.181 222.955 168.222 223.501 169.204L225.249 168.233C224.857 167.528 224.672 166.819 224.672 166.094H222.672ZM223.509 169.218C224.079 170.206 224.961 171.048 226.088 171.766L227.162 170.078C226.227 169.483 225.609 168.856 225.241 168.219L223.509 169.218ZM226.107 171.777C227.247 172.468 228.658 173.015 230.315 173.438L230.81 171.5C229.279 171.11 228.066 170.626 227.143 170.067L226.107 171.777ZM230.338 173.443C232.058 173.84 234.091 174.031 236.422 174.031V172.031C234.191 172.031 232.317 171.847 230.787 171.494L230.338 173.443ZM236.422 174.031C238.919 174.031 241.342 173.807 243.688 173.357L243.312 171.393C241.095 171.818 238.799 172.031 236.422 172.031V174.031ZM243.688 173.357C246.017 172.911 248.194 172.319 250.218 171.58L249.532 169.701C247.619 170.4 245.546 170.964 243.312 171.393L243.688 173.357ZM250.218 171.58C252.236 170.843 254.073 169.99 255.726 169.018L254.712 167.294C253.177 168.197 251.451 169.001 249.532 169.701L250.218 171.58ZM255.726 169.018C257.368 168.052 258.76 167.041 259.888 165.978L258.518 164.522C257.522 165.459 256.257 166.385 254.712 167.294L255.726 169.018ZM260.203 165.25V162.812H258.203V165.25H260.203ZM259.472 161.849C257.322 161.249 255.187 160.742 253.065 160.331L252.685 162.294C254.751 162.695 256.834 163.189 258.934 163.776L259.472 161.849ZM253.068 160.331C250.982 159.92 248.971 159.604 247.036 159.382L246.808 161.368C248.685 161.584 250.643 161.892 252.682 162.294L253.068 160.331ZM247.054 159.384C245.157 159.131 243.35 158.956 241.634 158.861L241.523 160.858C243.182 160.95 244.937 161.119 246.79 161.366L247.054 159.384ZM241.635 158.861C239.965 158.766 238.493 158.719 237.219 158.719V160.719C238.445 160.719 239.879 160.765 241.522 160.858L241.635 158.861ZM237.219 158.719C234.587 158.719 232.36 158.893 230.554 159.254L230.946 161.215C232.578 160.889 234.663 160.719 237.219 160.719V158.719ZM230.554 159.254C228.774 159.61 227.274 160.106 226.09 160.768L227.066 162.514C228.007 161.988 229.289 161.546 230.946 161.215L230.554 159.254ZM226.11 160.757C224.934 161.379 224.014 162.17 223.456 163.168L225.201 164.145C225.517 163.58 226.097 163.027 227.046 162.524L226.11 160.757ZM223.456 163.168C222.94 164.089 222.672 165.068 222.672 166.094H224.672C224.672 165.432 224.841 164.786 225.201 164.145L223.456 163.168Z" fill="#00FFB0"/>
<path d="M216.875 78.0312C220.625 80.2812 224.75 81.9375 229.25 83C233.75 84.0625 238.359 84.5938 243.078 84.5938C246.266 84.5938 248.922 84.375 251.047 83.9375C253.172 83.5 254.875 82.9375 256.156 82.25C257.438 81.5625 258.344 80.7812 258.875 79.9062C259.406 79.0312 259.672 78.1406 259.672 77.2344C259.672 75.9219 259.094 74.7969 257.938 73.8594C256.812 72.9219 254.938 72.4531 252.312 72.4531C251.094 72.4531 249.781 72.5312 248.375 72.6875C246.969 72.8438 245.484 73.0156 243.922 73.2031C242.391 73.3594 240.781 73.5156 239.094 73.6719C237.438 73.8281 235.75 73.9062 234.031 73.9062C230.281 73.9062 227.078 73.5 224.422 72.6875C221.797 71.875 219.656 70.7656 218 69.3594C216.344 67.9531 215.141 66.2969 214.391 64.3906C213.641 62.4531 213.266 60.375 213.266 58.1562C213.266 55.3438 213.922 52.75 215.234 50.375C216.547 48 218.422 45.9531 220.859 44.2344C223.297 42.4844 226.234 41.125 229.672 40.1562C233.141 39.1875 237 38.7031 241.25 38.7031C243.469 38.7031 245.781 38.8438 248.188 39.125C250.625 39.375 253.016 39.7188 255.359 40.1562C257.703 40.5938 259.953 41.1094 262.109 41.7031C264.266 42.2656 266.172 42.875 267.828 43.5312L263.469 54.3125C259.938 53 256.406 51.9688 252.875 51.2188C249.375 50.4375 245.766 50.0469 242.047 50.0469C239.453 50.0469 237.25 50.25 235.438 50.6562C233.656 51.0312 232.203 51.5469 231.078 52.2031C229.953 52.8281 229.125 53.5625 228.594 54.4062C228.094 55.2188 227.844 56.0781 227.844 56.9844C227.844 57.6406 227.969 58.2344 228.219 58.7656C228.5 59.2969 228.938 59.7656 229.531 60.1719C230.156 60.5469 230.953 60.8438 231.922 61.0625C232.922 61.25 234.141 61.3438 235.578 61.3438C236.891 61.3438 238.281 61.2656 239.75 61.1094C241.219 60.9531 242.75 60.7969 244.344 60.6406C245.938 60.4531 247.578 60.2812 249.266 60.125C250.984 59.9688 252.734 59.8906 254.516 59.8906C257.828 59.8906 260.719 60.2812 263.188 61.0625C265.688 61.8438 267.75 62.9375 269.375 64.3438C271 65.75 272.219 67.4062 273.031 69.3125C273.844 71.2188 274.25 73.2969 274.25 75.5469C274.25 78.4531 273.578 81.1562 272.234 83.6562C270.891 86.1562 268.891 88.3281 266.234 90.1719C263.578 91.9844 260.266 93.4062 256.297 94.4375C252.359 95.4688 247.797 95.9844 242.609 95.9844C239.422 95.9844 236.344 95.7812 233.375 95.375C230.406 95 227.578 94.4844 224.891 93.8281C222.203 93.1406 219.672 92.3438 217.297 91.4375C214.953 90.5312 212.812 89.5625 210.875 88.5312L216.875 78.0312Z" fill="#00FFB0"/>
<path d="M216.875 78.0312L217.389 77.1738L216.514 76.6482L216.007 77.5351L216.875 78.0312ZM257.938 73.8594L257.297 74.6277L257.308 74.6361L257.938 73.8594ZM243.922 73.2031L244.023 74.198L244.032 74.1971L244.041 74.196L243.922 73.2031ZM239.094 73.6719L239.002 72.6761L239 72.6763L239.094 73.6719ZM224.422 72.6875L224.126 73.6428L224.129 73.6438L224.422 72.6875ZM214.391 64.3906L213.458 64.7516L213.46 64.7568L214.391 64.3906ZM220.859 44.2344L221.436 45.0517L221.443 45.0467L220.859 44.2344ZM229.672 40.1562L229.403 39.1931L229.401 39.1937L229.672 40.1562ZM248.188 39.125L248.071 40.1182L248.078 40.1191L248.085 40.1198L248.188 39.125ZM262.109 41.7031L261.844 42.6673L261.857 42.6707L262.109 41.7031ZM267.828 43.5312L268.755 43.9061L269.133 42.9725L268.196 42.6016L267.828 43.5312ZM263.469 54.3125L263.12 55.2498L264.031 55.5885L264.396 54.6874L263.469 54.3125ZM252.875 51.2188L252.657 52.1948L252.667 52.1969L252.875 51.2188ZM235.438 50.6562L235.644 51.6349L235.656 51.632L235.438 50.6562ZM231.078 52.2031L231.564 53.0773L231.573 53.0722L231.582 53.0669L231.078 52.2031ZM228.594 54.4062L227.747 53.8734L227.742 53.8822L228.594 54.4062ZM228.219 58.7656L227.314 59.1914L227.324 59.2127L227.335 59.2335L228.219 58.7656ZM229.531 60.1719L228.967 60.9972L228.991 61.014L229.017 61.0294L229.531 60.1719ZM231.922 61.0625L231.702 62.0379L231.72 62.042L231.738 62.0454L231.922 61.0625ZM244.344 60.6406L244.441 61.6359L244.451 61.6349L244.461 61.6338L244.344 60.6406ZM249.266 60.125L249.175 59.1291L249.173 59.1293L249.266 60.125ZM263.188 61.0625L262.886 62.0159L262.889 62.017L263.188 61.0625ZM266.234 90.1719L266.798 90.9979L266.805 90.9934L266.234 90.1719ZM256.297 94.4375L256.045 93.4696L256.044 93.4701L256.297 94.4375ZM233.375 95.375L233.511 94.3842L233.5 94.3829L233.375 95.375ZM224.891 93.8281L224.643 94.797L224.653 94.7996L224.891 93.8281ZM217.297 91.4375L216.936 92.3702L216.94 92.3718L217.297 91.4375ZM210.875 88.5312L210.007 88.0351L209.495 88.9298L210.405 89.414L210.875 88.5312ZM216.361 78.8887C220.204 81.1947 224.426 82.8884 229.02 83.9732L229.48 82.0268C225.074 80.9866 221.046 79.3678 217.389 77.1738L216.361 78.8887ZM229.02 83.9732C233.597 85.0539 238.284 85.5938 243.078 85.5938V83.5938C238.435 83.5938 233.903 83.0711 229.48 82.0268L229.02 83.9732ZM243.078 85.5938C246.305 85.5938 249.034 85.3728 251.249 84.917L250.845 82.958C248.81 83.3772 246.226 83.5938 243.078 83.5938V85.5938ZM251.249 84.917C253.426 84.4686 255.232 83.8809 256.629 83.1312L255.683 81.3688C254.518 81.9941 252.917 82.5314 250.845 82.958L251.249 84.917ZM256.629 83.1312C258.005 82.3928 259.075 81.504 259.73 80.4252L258.02 79.3873C257.613 80.0585 256.87 80.7322 255.683 81.3688L256.629 83.1312ZM259.73 80.4252C260.343 79.4145 260.672 78.3465 260.672 77.2344H258.672C258.672 77.9348 258.469 78.648 258.02 79.3873L259.73 80.4252ZM260.672 77.2344C260.672 75.5776 259.922 74.1813 258.567 73.0826L257.308 74.6361C258.265 75.4125 258.672 76.2662 258.672 77.2344H260.672ZM258.578 73.0912C257.177 71.9242 255.006 71.4531 252.312 71.4531V73.4531C254.869 73.4531 256.448 73.9195 257.297 74.6276L258.578 73.0912ZM252.312 71.4531C251.052 71.4531 249.702 71.5339 248.265 71.6936L248.485 73.6814C249.861 73.5286 251.136 73.4531 252.312 73.4531V71.4531ZM248.265 71.6936C246.855 71.8502 245.368 72.0224 243.803 72.2103L244.041 74.196C245.601 74.0088 247.082 73.8373 248.485 73.6814L248.265 71.6936ZM243.82 72.2083C242.293 72.3642 240.686 72.5201 239.002 72.6761L239.186 74.6676C240.876 74.5111 242.489 74.3546 244.023 74.198L243.82 72.2083ZM239 72.6763C237.376 72.8295 235.72 72.9062 234.031 72.9062V74.9062C235.78 74.9062 237.499 74.8267 239.188 74.6675L239 72.6763ZM234.031 72.9062C230.348 72.9062 227.249 72.5066 224.714 71.7312L224.129 73.6438C226.907 74.4934 230.214 74.9062 234.031 74.9062V72.9062ZM224.718 71.7322C222.189 70.9495 220.177 69.8961 218.647 68.5971L217.353 70.1217C219.135 71.6352 221.405 72.8005 224.126 73.6428L224.718 71.7322ZM218.647 68.5971C217.109 67.2908 216.007 65.768 215.321 64.0245L213.46 64.7568C214.274 66.8257 215.579 68.6154 217.353 70.1217L218.647 68.5971ZM215.323 64.0296C214.621 62.2149 214.266 60.26 214.266 58.1562H212.266C212.266 60.49 212.661 62.6913 213.458 64.7516L215.323 64.0296ZM214.266 58.1562C214.266 55.5065 214.882 53.0801 216.11 50.8587L214.359 49.8913C212.962 52.4199 212.266 55.181 212.266 58.1562H214.266ZM216.11 50.8587C217.342 48.6287 219.109 46.692 221.436 45.0516L220.283 43.4171C217.734 45.2143 215.752 47.3713 214.359 49.8913L216.11 50.8587ZM221.443 45.0467C223.77 43.376 226.597 42.0618 229.943 41.1188L229.401 39.1937C225.872 40.1882 222.824 41.5927 220.276 43.4221L221.443 45.0467ZM229.941 41.1194C233.308 40.179 237.075 39.7031 241.25 39.7031V37.7031C236.925 37.7031 232.973 38.196 229.403 39.1931L229.941 41.1194ZM241.25 39.7031C243.427 39.7031 245.7 39.8411 248.071 40.1182L248.304 38.1318C245.862 37.8464 243.511 37.7031 241.25 37.7031V39.7031ZM248.085 40.1198C250.496 40.3671 252.86 40.7069 255.176 41.1393L255.543 39.1732C253.171 38.7306 250.754 38.3829 248.29 38.1302L248.085 40.1198ZM255.176 41.1393C257.494 41.572 259.716 42.0814 261.844 42.6672L262.375 40.739C260.19 40.1373 257.912 39.6155 255.543 39.1732L255.176 41.1393ZM261.857 42.6707C263.983 43.2254 265.849 43.8228 267.46 44.4609L268.196 42.6016C266.494 41.9272 264.548 41.3059 262.362 40.7355L261.857 42.6707ZM266.901 43.1564L262.542 53.9376L264.396 54.6874L268.755 43.9061L266.901 43.1564ZM263.817 53.3752C260.242 52.0464 256.664 51.0012 253.083 50.2406L252.667 52.1969C256.149 52.9363 259.633 53.9536 263.12 55.2498L263.817 53.3752ZM253.093 50.2428C249.519 49.445 245.836 49.0469 242.047 49.0469V51.0469C245.695 51.0469 249.231 51.43 252.657 52.1947L253.093 50.2428ZM242.047 49.0469C239.406 49.0469 237.125 49.2532 235.219 49.6805L235.656 51.632C237.375 51.2468 239.5 51.0469 242.047 51.0469V49.0469ZM235.231 49.6777C233.384 50.0667 231.82 50.6124 230.574 51.3393L231.582 53.0669C232.586 52.4813 233.929 51.9958 235.644 51.6348L235.231 49.6777ZM230.592 51.329C229.362 52.0125 228.391 52.8519 227.748 53.8734L229.44 54.9391C229.859 54.2731 230.544 53.6437 231.564 53.0773L230.592 51.329ZM227.742 53.8822C227.15 54.8436 226.844 55.8831 226.844 56.9844H228.844C228.844 56.2731 229.037 55.5939 229.445 54.9303L227.742 53.8822ZM226.844 56.9844C226.844 57.7704 226.994 58.512 227.314 59.1914L229.124 58.3398C228.943 57.9567 228.844 57.5109 228.844 56.9844H226.844ZM227.335 59.2335C227.706 59.9336 228.265 60.5173 228.967 60.9972L230.096 59.3466C229.61 59.0139 229.294 58.6601 229.103 58.2977L227.335 59.2335ZM229.017 61.0294C229.759 61.4749 230.664 61.8037 231.702 62.0379L232.142 60.0871C231.242 59.8838 230.553 59.6189 230.046 59.3144L229.017 61.0294ZM231.738 62.0454C232.817 62.2479 234.102 62.3438 235.578 62.3438V60.3438C234.179 60.3438 233.026 60.2521 232.106 60.0796L231.738 62.0454ZM235.578 62.3438C236.93 62.3438 238.356 62.2633 239.856 62.1038L239.644 60.115C238.206 60.268 236.851 60.3438 235.578 60.3438V62.3438ZM239.856 62.1038C241.322 61.9478 242.85 61.7919 244.441 61.6359L244.246 59.6454C242.65 59.8019 241.116 59.9584 239.644 60.115L239.856 62.1038ZM244.461 61.6338C246.046 61.4473 247.678 61.2763 249.358 61.1207L249.173 59.1293C247.478 59.2862 245.829 59.459 244.227 59.6475L244.461 61.6338ZM249.356 61.1209C251.044 60.9675 252.764 60.8906 254.516 60.8906V58.8906C252.705 58.8906 250.925 58.97 249.175 59.1291L249.356 61.1209ZM254.516 60.8906C257.753 60.8906 260.537 61.2728 262.886 62.0159L263.489 60.1091C260.9 59.2897 257.903 58.8906 254.516 58.8906V60.8906ZM262.889 62.017C265.286 62.766 267.22 63.8009 268.721 65.0999L270.029 63.5876C268.28 62.0741 266.089 60.9215 263.486 60.108L262.889 62.017ZM268.721 65.0999C270.235 66.4104 271.361 67.9436 272.111 69.7046L273.951 68.9204C273.077 66.8689 271.765 65.0896 270.029 63.5876L268.721 65.0999ZM272.111 69.7046C272.867 71.4766 273.25 73.42 273.25 75.5469H275.25C275.25 73.1738 274.821 70.9609 273.951 68.9204L272.111 69.7046ZM273.25 75.5469C273.25 78.292 272.617 80.8319 271.354 83.1828L273.115 84.1297C274.539 81.4806 275.25 78.6142 275.25 75.5469H273.25ZM271.354 83.1828C270.094 85.5257 268.209 87.5839 265.664 89.3504L266.805 90.9934C269.572 89.0723 271.687 86.7868 273.115 84.1297L271.354 83.1828ZM265.671 89.3459C263.132 91.0784 259.932 92.4598 256.045 93.4696L256.548 95.4054C260.599 94.3527 264.025 92.8904 266.798 90.9979L265.671 89.3459ZM256.044 93.4701C252.208 94.4747 247.734 94.9844 242.609 94.9844V96.9844C247.86 96.9844 252.511 96.4628 256.55 95.4049L256.044 93.4701ZM242.609 94.9844C239.464 94.9844 236.432 94.784 233.511 94.3842L233.239 96.3658C236.256 96.7785 239.379 96.9844 242.609 96.9844V94.9844ZM233.5 94.3829C230.566 94.0123 227.776 93.5032 225.128 92.8567L224.653 94.7996C227.381 95.4655 230.246 95.9877 233.25 96.3671L233.5 94.3829ZM225.138 92.8593C222.485 92.1804 219.99 91.3947 217.653 90.5032L216.94 92.3718C219.354 93.2928 221.922 94.1008 224.643 94.7969L225.138 92.8593ZM217.658 90.5048C215.346 89.611 213.242 88.6585 211.345 87.6485L210.405 89.414C212.383 90.4665 214.56 91.4515 216.936 92.3702L217.658 90.5048ZM211.743 89.0274L217.743 78.5274L216.007 77.5351L210.007 88.0351L211.743 89.0274Z" fill="#00FFB0"/>
<path d="M131.672 106.281H145.547V132.906C148.453 131.312 151.688 130.047 155.25 129.109C158.844 128.172 162.609 127.703 166.547 127.703C171.109 127.703 175.203 128.375 178.828 129.719C182.484 131.062 185.578 133 188.109 135.531C190.641 138.031 192.578 141.078 193.922 144.672C195.297 148.266 195.984 152.312 195.984 156.812V184H182.156V157.375C182.156 154.75 181.734 152.359 180.891 150.203C180.047 148.016 178.812 146.141 177.188 144.578C175.562 143.016 173.578 141.812 171.234 140.969C168.922 140.094 166.297 139.656 163.359 139.656C159.828 139.656 156.547 140.219 153.516 141.344C150.484 142.469 147.828 143.891 145.547 145.609V184H131.672V106.281Z" fill="#00FFB0"/>
<path d="M131.672 106.281V105.281H130.672V106.281H131.672ZM145.547 106.281H146.547V105.281H145.547V106.281ZM145.547 132.906H144.547V134.595L146.028 133.783L145.547 132.906ZM155.25 129.109L154.998 128.142L154.996 128.142L155.25 129.109ZM178.828 129.719L178.481 130.656L178.483 130.657L178.828 129.719ZM188.109 135.531L187.402 136.238L187.407 136.243L188.109 135.531ZM193.922 144.672L192.985 145.022L192.988 145.029L193.922 144.672ZM195.984 184V185H196.984V184H195.984ZM182.156 184H181.156V185H182.156V184ZM180.891 150.203L179.958 150.563L179.959 150.568L180.891 150.203ZM171.234 140.969L170.88 141.904L170.888 141.907L170.896 141.91L171.234 140.969ZM145.547 145.609L144.945 144.811L144.547 145.111V145.609H145.547ZM145.547 184V185H146.547V184H145.547ZM131.672 184H130.672V185H131.672V184ZM131.672 107.281H145.547V105.281H131.672V107.281ZM144.547 106.281V132.906H146.547V106.281H144.547ZM146.028 133.783C148.855 132.233 152.012 130.995 155.504 130.076L154.996 128.142C151.363 129.098 148.051 130.392 145.066 132.029L146.028 133.783ZM155.502 130.077C159.009 129.162 162.689 128.703 166.547 128.703V126.703C162.529 126.703 158.679 127.182 154.998 128.142L155.502 130.077ZM166.547 128.703C171.012 128.703 174.985 129.361 178.481 130.656L179.176 128.781C175.421 127.389 171.207 126.703 166.547 126.703V128.703ZM178.483 130.657C182.016 131.956 184.982 133.818 187.402 136.238L188.816 134.824C186.174 132.182 182.953 130.169 179.173 128.78L178.483 130.657ZM187.407 136.243C189.827 138.633 191.688 141.553 192.985 145.022L194.859 144.322C193.468 140.603 191.455 137.43 188.812 134.82L187.407 136.243ZM192.988 145.029C194.313 148.491 194.984 152.414 194.984 156.812H196.984C196.984 152.211 196.281 148.04 194.856 144.315L192.988 145.029ZM194.984 156.812V184H196.984V156.812H194.984ZM195.984 183H182.156V185H195.984V183ZM183.156 184V157.375H181.156V184H183.156ZM183.156 157.375C183.156 154.642 182.717 152.126 181.822 149.839L179.959 150.568C180.752 152.593 181.156 154.858 181.156 157.375H183.156ZM181.824 149.843C180.929 147.525 179.615 145.525 177.881 143.857L176.494 145.299C178.01 146.756 179.164 148.506 179.958 150.563L181.824 149.843ZM177.881 143.857C176.144 142.188 174.035 140.914 171.573 140.028L170.896 141.91C173.121 142.711 174.981 143.844 176.494 145.299L177.881 143.857ZM171.588 140.033C169.144 139.108 166.396 138.656 163.359 138.656V140.656C166.198 140.656 168.7 141.079 170.88 141.904L171.588 140.033ZM163.359 138.656C159.72 138.656 156.32 139.236 153.168 140.406L153.864 142.281C156.774 141.201 159.936 140.656 163.359 140.656V138.656ZM153.168 140.406C150.057 141.561 147.313 143.026 144.945 144.811L146.149 146.408C148.343 144.755 150.911 143.377 153.864 142.281L153.168 140.406ZM144.547 145.609V184H146.547V145.609H144.547ZM145.547 183H131.672V185H145.547V183ZM132.672 184V106.281H130.672V184H132.672Z" fill="#00FFB0"/>
<path d="M13.0469 39.6875H26.9219V44.375C30.3906 42.25 33.7656 40.7812 37.0469 39.9688C40.3594 39.125 43.5938 38.7031 46.75 38.7031C51.1562 38.7031 55.2031 39.4062 58.8906 40.8125C62.5781 42.2188 65.7344 44.3438 68.3594 47.1875C70.3906 45.625 72.3906 44.3125 74.3594 43.25C76.3281 42.1562 78.2969 41.2812 80.2656 40.625C82.2344 39.9375 84.2344 39.4531 86.2656 39.1719C88.2969 38.8594 90.3906 38.7031 92.5469 38.7031C97.0781 38.7031 101.188 39.3281 104.875 40.5781C108.562 41.7969 111.703 43.625 114.297 46.0625C116.922 48.5 118.938 51.5469 120.344 55.2031C121.781 58.8281 122.5 63.0312 122.5 67.8125V95H108.672V70.0625C108.672 67.0312 108.234 64.3281 107.359 61.9531C106.516 59.5469 105.312 57.5312 103.75 55.9062C102.219 54.25 100.375 53 98.2188 52.1562C96.0938 51.2812 93.75 50.8438 91.1875 50.8438C89.7812 50.8438 88.3438 50.9844 86.875 51.2656C85.4062 51.5156 83.9688 51.9219 82.5625 52.4844C81.1875 53.0469 79.8906 53.7656 78.6719 54.6406C77.4531 55.4844 76.3906 56.4844 75.4844 57.6406V95H61.6562V70.0625C61.6562 67.0312 61.2188 64.3281 60.3438 61.9531C59.5 59.5469 58.2969 57.5312 56.7344 55.9062C55.2031 54.25 53.3438 53 51.1562 52.1562C49 51.2812 46.625 50.8438 44.0312 50.8438C42.4375 50.8438 40.8281 51.0156 39.2031 51.3594C37.6094 51.6719 36.0625 52.125 34.5625 52.7188C33.0938 53.3125 31.7031 54.0312 30.3906 54.875C29.1094 55.7188 27.9531 56.6719 26.9219 57.7344V95H13.0469V39.6875Z" fill="#00FFB0"/>
<path d="M13.0469 39.6875V38.6875H12.0469V39.6875H13.0469ZM26.9219 39.6875H27.9219V38.6875H26.9219V39.6875ZM26.9219 44.375H25.9219V46.1603L27.4443 45.2277L26.9219 44.375ZM37.0469 39.9688L37.2872 40.9395L37.2937 40.9378L37.0469 39.9688ZM68.3594 47.1875L67.6246 47.8658L68.2446 48.5374L68.9691 47.9801L68.3594 47.1875ZM74.3594 43.25L74.8343 44.1301L74.845 44.1242L74.3594 43.25ZM80.2656 40.625L80.5819 41.5737L80.5886 41.5714L80.5953 41.5691L80.2656 40.625ZM86.2656 39.1719L86.4028 40.1624L86.4102 40.1614L86.4177 40.1602L86.2656 39.1719ZM104.875 40.5781L104.554 41.5252L104.561 41.5276L104.875 40.5781ZM114.297 46.0625L113.612 46.7912L113.616 46.7953L114.297 46.0625ZM120.344 55.2031L119.41 55.5621L119.414 55.5718L120.344 55.2031ZM122.5 95V96H123.5V95H122.5ZM108.672 95H107.672V96H108.672V95ZM107.359 61.9531L106.416 62.284L106.418 62.2914L106.421 62.2988L107.359 61.9531ZM103.75 55.9062L103.016 56.5851L103.022 56.5923L103.029 56.5994L103.75 55.9062ZM98.2188 52.1562L97.838 53.0809L97.8461 53.0843L97.8543 53.0875L98.2188 52.1562ZM86.875 51.2656L87.0428 52.2514L87.053 52.2497L87.0631 52.2478L86.875 51.2656ZM82.5625 52.4844L82.1911 51.5559L82.1839 51.5588L82.5625 52.4844ZM78.6719 54.6406L79.2411 55.4628L79.2481 55.4579L79.2551 55.4529L78.6719 54.6406ZM75.4844 57.6406L74.6973 57.0237L74.4844 57.2954V57.6406H75.4844ZM75.4844 95V96H76.4844V95H75.4844ZM61.6562 95H60.6562V96H61.6562V95ZM60.3438 61.9531L59.4001 62.284L59.4027 62.2914L59.4054 62.2988L60.3438 61.9531ZM56.7344 55.9062L56.0001 56.5851L56.0068 56.5923L56.0135 56.5994L56.7344 55.9062ZM51.1562 52.1562L50.7802 53.0829L50.7883 53.0861L50.7964 53.0893L51.1562 52.1562ZM39.2031 51.3594L39.3955 52.3407L39.4028 52.3393L39.4101 52.3377L39.2031 51.3594ZM34.5625 52.7188L34.1944 51.7889L34.1877 51.7916L34.5625 52.7188ZM30.3906 54.875L29.8498 54.0338L29.8406 54.0398L30.3906 54.875ZM26.9219 57.7344L26.2043 57.0379L25.9219 57.3289V57.7344H26.9219ZM26.9219 95V96H27.9219V95H26.9219ZM13.0469 95H12.0469V96H13.0469V95ZM13.0469 40.6875H26.9219V38.6875H13.0469V40.6875ZM25.9219 39.6875V44.375H27.9219V39.6875H25.9219ZM27.4443 45.2277C30.8428 43.1457 34.1233 41.7229 37.2872 40.9394L36.8065 38.9981C33.4079 39.8396 29.9385 41.3543 26.3995 43.5223L27.4443 45.2277ZM37.2937 40.9378C40.5322 40.1129 43.6836 39.7031 46.75 39.7031V37.7031C43.5039 37.7031 40.1866 38.1371 36.8 38.9997L37.2937 40.9378ZM46.75 39.7031C51.0486 39.7031 54.9731 40.3888 58.5343 41.7469L59.2469 39.8781C55.4332 38.4237 51.2639 37.7031 46.75 37.7031V39.7031ZM58.5343 41.7469C62.0805 43.0992 65.1064 45.1378 67.6246 47.8658L69.0942 46.5092C66.3624 43.5497 63.0757 41.3383 59.2469 39.8781L58.5343 41.7469ZM68.9691 47.9801C70.9638 46.4457 72.919 45.1637 74.8343 44.13L73.8844 42.37C71.8623 43.4613 69.8174 44.8043 67.7497 46.3949L68.9691 47.9801ZM74.845 44.1242C76.7643 43.0579 78.6765 42.2088 80.5819 41.5737L79.9494 39.6763C77.9173 40.3537 75.892 41.2546 73.8737 42.3758L74.845 44.1242ZM80.5953 41.5691C82.5026 40.903 84.4382 40.4344 86.4028 40.1624L86.1285 38.1813C84.0306 38.4718 81.9661 38.972 79.9359 39.6809L80.5953 41.5691ZM86.4177 40.1602C88.3962 39.8559 90.439 39.7031 92.5469 39.7031V37.7031C90.3422 37.7031 88.1975 37.8629 86.1136 38.1835L86.4177 40.1602ZM92.5469 39.7031C96.9864 39.7031 100.985 40.3155 104.554 41.5252L105.196 39.6311C101.39 38.3408 97.1698 37.7031 92.5469 37.7031V39.7031ZM104.561 41.5276C108.123 42.7049 111.134 44.4623 113.612 46.7912L114.982 45.3338C112.272 42.7877 109.002 40.8889 105.189 39.6286L104.561 41.5276ZM113.616 46.7953C116.12 49.1197 118.054 52.0346 119.41 55.5621L121.277 54.8441C119.821 51.0592 117.724 47.8803 114.977 45.3297L113.616 46.7953ZM119.414 55.5718C120.796 59.0562 121.5 63.1298 121.5 67.8125H123.5C123.5 62.9327 122.767 58.6001 121.273 54.8345L119.414 55.5718ZM121.5 67.8125V95H123.5V67.8125H121.5ZM122.5 94H108.672V96H122.5V94ZM109.672 95V70.0625H107.672V95H109.672ZM109.672 70.0625C109.672 66.936 109.221 64.1126 108.298 61.6074L106.421 62.2988C107.248 64.5437 107.672 67.1265 107.672 70.0625H109.672ZM108.303 61.6222C107.418 59.0984 106.145 56.9543 104.471 55.2131L103.029 56.5994C104.48 58.1082 105.613 59.9953 106.416 62.284L108.303 61.6222ZM104.484 55.2274C102.848 53.4571 100.876 52.1223 98.5832 51.225L97.8543 53.0875C99.8737 53.8777 101.59 55.0429 103.016 56.5851L104.484 55.2274ZM98.5995 51.2316C96.3406 50.3014 93.8656 49.8438 91.1875 49.8438V51.8438C93.6344 51.8438 95.8469 52.2611 97.838 53.0809L98.5995 51.2316ZM91.1875 49.8438C89.7143 49.8438 88.2138 49.9911 86.6869 50.2835L87.0631 52.2478C88.4737 51.9777 89.8482 51.8438 91.1875 51.8438V49.8438ZM86.7072 50.2798C85.1676 50.5419 83.6619 50.9676 82.1911 51.5559L82.9339 53.4129C84.2756 52.8762 85.6449 52.4894 87.0428 52.2514L86.7072 50.2798ZM82.1839 51.5588C80.7358 52.1512 79.3703 52.9081 78.0887 53.8283L79.2551 55.4529C80.4109 54.6231 81.6392 53.9425 82.9411 53.4099L82.1839 51.5588ZM78.1027 53.8184C76.8022 54.7188 75.666 55.7878 74.6973 57.0237L76.2714 58.2575C77.1152 57.181 78.1041 56.25 79.2411 55.4628L78.1027 53.8184ZM74.4844 57.6406V95H76.4844V57.6406H74.4844ZM75.4844 94H61.6562V96H75.4844V94ZM62.6562 95V70.0625H60.6562V95H62.6562ZM62.6562 70.0625C62.6562 66.936 62.205 64.1126 61.2821 61.6074L59.4054 62.2988C60.2325 64.5437 60.6562 67.1265 60.6562 70.0625H62.6562ZM61.2874 61.6222C60.4024 59.0984 59.1294 56.9543 57.4552 55.2131L56.0135 56.5994C57.4644 58.1082 58.5976 59.9953 59.4001 62.284L61.2874 61.6222ZM57.4686 55.2274C55.8295 53.4545 53.8404 52.1198 51.5161 51.2232L50.7964 53.0893C52.8471 53.8802 54.5767 55.0455 56.0001 56.5851L57.4686 55.2274ZM51.5323 51.2296C49.2436 50.3009 46.7391 49.8438 44.0312 49.8438V51.8438C46.5109 51.8438 48.7564 52.2616 50.7802 53.0829L51.5323 51.2296ZM44.0312 49.8438C42.3651 49.8438 40.6863 50.0235 38.9962 50.381L39.4101 52.3377C40.9699 52.0078 42.5099 51.8438 44.0312 51.8438V49.8438ZM39.0107 50.3781C37.3574 50.7022 35.7517 51.1725 34.1945 51.7889L34.9305 53.6486C36.3733 53.0775 37.8614 52.6415 39.3955 52.3407L39.0107 50.3781ZM34.1877 51.7916C32.662 52.4084 31.2157 53.1558 29.8499 54.0338L30.9314 55.7162C32.1906 54.9067 33.5255 54.2166 34.9373 53.6459L34.1877 51.7916ZM29.8406 54.0398C28.5008 54.9221 27.288 55.9214 26.2043 57.0379L27.6395 58.4309C28.6183 57.4224 29.7179 56.5154 30.9406 55.7102L29.8406 54.0398ZM25.9219 57.7344V95H27.9219V57.7344H25.9219ZM26.9219 94H13.0469V96H26.9219V94ZM14.0469 95V39.6875H12.0469V95H14.0469Z" fill="#00FFB0"/>
<path d="M4 199L190 199" stroke="#00FFB0" stroke-width="8" stroke-linecap="round"/>
</svg>
