<svg width="326" height="209" viewBox="0 0 326 209" fill="none" xmlns="http://www.w3.org/2000/svg">
<path d="M133.047 77.5625C133.047 74.9062 133.625 72.4844 134.781 70.2969C135.938 68.1094 137.672 66.2344 139.984 64.6719C142.297 63.0781 145.172 61.8594 148.609 61.0156C152.078 60.1406 156.109 59.7031 160.703 59.7031C164.109 59.7031 167.688 59.9531 171.438 60.4531C175.219 60.9531 179.109 61.7188 183.109 62.75C182.953 61 182.422 59.3906 181.516 57.9219C180.609 56.4219 179.344 55.1406 177.719 54.0781C176.125 52.9844 174.188 52.1406 171.906 51.5469C169.656 50.9531 167.094 50.6562 164.219 50.6562C162.656 50.6562 160.938 50.75 159.062 50.9375C157.188 51.125 155.25 51.4062 153.25 51.7812C151.25 52.1562 149.266 52.625 147.297 53.1875C145.359 53.75 143.547 54.4219 141.859 55.2031L137.641 43.8125C139.734 43.0625 141.969 42.375 144.344 41.75C146.75 41.125 149.203 40.5938 151.703 40.1562C154.203 39.6875 156.703 39.3281 159.203 39.0781C161.703 38.8281 164.125 38.7031 166.469 38.7031C176.812 38.7031 184.5 41.3438 189.531 46.625C194.562 51.9062 197.078 60 197.078 70.9062V95H183.203V89.7969C181.766 90.6406 180.188 91.4375 178.469 92.1875C176.781 92.9375 174.938 93.5938 172.938 94.1562C170.938 94.7188 168.781 95.1562 166.469 95.4688C164.188 95.8125 161.766 95.9844 159.203 95.9844C154.891 95.9844 151.094 95.5156 147.812 94.5781C144.562 93.6406 141.844 92.3438 139.656 90.6875C137.469 89.0312 135.812 87.0938 134.688 84.875C133.594 82.625 133.047 80.1875 133.047 77.5625ZM147.672 77.0938C147.672 78 147.906 78.875 148.375 79.7188C148.844 80.5312 149.594 81.2656 150.625 81.9219C151.656 82.5469 152.969 83.0625 154.562 83.4688C156.188 83.8438 158.141 84.0312 160.422 84.0312C162.859 84.0312 165.219 83.8125 167.5 83.375C169.781 82.9375 171.906 82.3594 173.875 81.6406C175.844 80.9219 177.625 80.0938 179.219 79.1562C180.812 78.2188 182.141 77.25 183.203 76.25V73.8125C181.078 73.2188 178.969 72.7188 176.875 72.3125C174.812 71.9062 172.828 71.5938 170.922 71.375C169.047 71.125 167.266 70.9531 165.578 70.8594C163.922 70.7656 162.469 70.7188 161.219 70.7188C158.625 70.7188 156.469 70.8906 154.75 71.2344C153.031 71.5781 151.641 72.0469 150.578 72.6406C149.516 73.2031 148.766 73.875 148.328 74.6562C147.891 75.4375 147.672 76.25 147.672 77.0938Z" fill="#B000FF"/>
<path d="M139.984 64.6719L140.544 65.5005L140.552 65.4953L139.984 64.6719ZM148.609 61.0156L148.848 61.9868L148.854 61.9853L148.609 61.0156ZM171.438 60.4531L171.305 61.4444L171.306 61.4445L171.438 60.4531ZM183.109 62.75L182.86 63.7183L184.231 64.072L184.105 62.6611L183.109 62.75ZM181.516 57.9219L180.66 58.439L180.665 58.447L181.516 57.9219ZM177.719 54.0781L177.153 54.9026L177.162 54.909L177.172 54.9151L177.719 54.0781ZM171.906 51.5469L171.651 52.5138L171.654 52.5146L171.906 51.5469ZM147.297 53.1875L147.022 52.226L147.018 52.2272L147.297 53.1875ZM141.859 55.2031L140.922 55.5504L141.297 56.5652L142.279 56.1106L141.859 55.2031ZM137.641 43.8125L137.303 42.8711L136.352 43.2119L136.703 44.1598L137.641 43.8125ZM144.344 41.75L144.092 40.7821L144.089 40.7829L144.344 41.75ZM151.703 40.1562L151.876 41.1414L151.887 41.1391L151.703 40.1562ZM197.078 95V96H198.078V95H197.078ZM183.203 95H182.203V96H183.203V95ZM183.203 89.7969H184.203V88.0504L182.697 88.9345L183.203 89.7969ZM178.469 92.1875L178.069 91.2709L178.063 91.2737L178.469 92.1875ZM166.469 95.4688L166.335 94.4778L166.327 94.4788L166.32 94.4799L166.469 95.4688ZM147.812 94.5781L147.535 95.5389L147.538 95.5396L147.812 94.5781ZM134.688 84.875L133.788 85.3122L133.792 85.3197L133.796 85.3272L134.688 84.875ZM148.375 79.7188L147.501 80.2044L147.505 80.2115L147.509 80.2185L148.375 79.7188ZM150.625 81.9219L150.088 82.7655L150.097 82.7714L150.107 82.7771L150.625 81.9219ZM154.562 83.4688L154.315 84.4378L154.327 84.4406L154.338 84.4431L154.562 83.4688ZM183.203 76.25L183.888 76.9782L184.203 76.6821V76.25H183.203ZM183.203 73.8125H184.203V73.0536L183.472 72.8494L183.203 73.8125ZM176.875 72.3125L176.682 73.2937L176.685 73.2942L176.875 72.3125ZM170.922 71.375L170.79 72.3662L170.799 72.3674L170.808 72.3685L170.922 71.375ZM165.578 70.8594L165.522 71.8578L165.523 71.8578L165.578 70.8594ZM150.578 72.6406L151.046 73.5244L151.056 73.5191L151.066 73.5136L150.578 72.6406ZM134.047 77.5625C134.047 75.0568 134.591 72.7972 135.665 70.7642L133.897 69.8296C132.659 72.1716 132.047 74.7557 132.047 77.5625H134.047ZM135.665 70.7642C136.735 68.7396 138.35 66.9829 140.544 65.5005L139.425 63.8433C136.994 65.4858 135.14 67.4791 133.897 69.8296L135.665 70.7642ZM140.552 65.4953C142.742 63.9856 145.499 62.8089 148.848 61.9868L148.371 60.0445C144.845 60.9099 141.851 62.1706 139.417 63.8485L140.552 65.4953ZM148.854 61.9853C152.224 61.1352 156.17 60.7031 160.703 60.7031V58.7031C156.049 58.7031 151.932 59.1461 148.365 60.046L148.854 61.9853ZM160.703 60.7031C164.061 60.7031 167.594 60.9496 171.305 61.4444L171.57 59.4619C167.781 58.9567 164.158 58.7031 160.703 58.7031V60.7031ZM171.306 61.4445C175.045 61.9388 178.896 62.6963 182.86 63.7183L183.359 61.7817C179.323 60.7412 175.393 59.9674 171.569 59.4618L171.306 61.4445ZM184.105 62.6611C183.936 60.7593 183.356 59.0001 182.367 57.3968L180.665 58.447C181.488 59.7811 181.971 61.2407 182.113 62.8389L184.105 62.6611ZM182.372 57.4048C181.38 55.763 180.003 54.3768 178.266 53.2412L177.172 54.9151C178.685 55.9044 179.839 57.0807 180.66 58.439L182.372 57.4048ZM178.285 53.2536C176.577 52.0817 174.528 51.1959 172.158 50.5791L171.654 52.5146C173.847 53.0854 175.673 53.8871 177.153 54.9026L178.285 53.2536ZM172.161 50.58C169.811 49.9598 167.161 49.6562 164.219 49.6562V51.6562C167.027 51.6562 169.501 51.9464 171.651 52.5138L172.161 50.58ZM164.219 49.6562C162.617 49.6562 160.865 49.7523 158.963 49.9425L159.162 51.9325C161.01 51.7477 162.695 51.6562 164.219 51.6562V49.6562ZM158.963 49.9425C157.057 50.133 155.092 50.4185 153.066 50.7984L153.434 52.7641C155.408 52.394 157.318 52.117 159.162 51.9325L158.963 49.9425ZM153.066 50.7984C151.035 51.1791 149.021 51.655 147.022 52.226L147.572 54.149C149.511 53.595 151.465 53.1334 153.434 52.7641L153.066 50.7984ZM147.018 52.2272C145.036 52.8025 143.176 53.4916 141.439 54.2957L142.279 56.1106C143.918 55.3522 145.683 54.6975 147.576 54.1478L147.018 52.2272ZM142.797 54.8558L138.578 43.4652L136.703 44.1598L140.922 55.5504L142.797 54.8558ZM137.978 44.7539C140.042 44.0146 142.248 43.3355 144.598 42.7171L144.089 40.7829C141.689 41.4145 139.427 42.1104 137.303 42.8711L137.978 44.7539ZM144.595 42.7179C146.975 42.0998 149.402 41.5742 151.876 41.1413L151.531 39.1712C149.005 39.6133 146.525 40.1502 144.092 40.7821L144.595 42.7179ZM151.887 41.1391C154.36 40.6756 156.831 40.3203 159.303 40.0732L159.104 38.0831C156.575 38.336 154.047 38.6994 151.519 39.1734L151.887 41.1391ZM159.303 40.0732C161.772 39.8262 164.161 39.7031 166.469 39.7031V37.7031C164.089 37.7031 161.634 37.83 159.104 38.0831L159.303 40.0732ZM166.469 39.7031C176.655 39.7031 184.032 42.3025 188.807 47.3148L190.255 45.9352C184.968 40.385 176.97 37.7031 166.469 37.7031V39.7031ZM188.807 47.3148C193.591 52.3359 196.078 60.1319 196.078 70.9062H198.078C198.078 59.8681 195.534 51.4766 190.255 45.9352L188.807 47.3148ZM196.078 70.9062V95H198.078V70.9062H196.078ZM197.078 94H183.203V96H197.078V94ZM184.203 95V89.7969H182.203V95H184.203ZM182.697 88.9345C181.298 89.7558 179.756 90.5349 178.069 91.271L178.869 93.104C180.619 92.3401 182.234 91.5255 183.709 90.6593L182.697 88.9345ZM178.063 91.2737C176.424 92.0019 174.626 92.6425 172.667 93.1936L173.208 95.1189C175.249 94.545 177.138 93.8731 178.875 93.1013L178.063 91.2737ZM172.667 93.1936C170.717 93.742 168.607 94.1708 166.335 94.4778L166.603 96.4597C168.956 96.1417 171.158 95.6955 173.208 95.1189L172.667 93.1936ZM166.32 94.4799C164.093 94.8155 161.721 94.9844 159.203 94.9844V96.9844C161.81 96.9844 164.282 96.8095 166.618 96.4576L166.32 94.4799ZM159.203 94.9844C154.96 94.9844 151.259 94.5229 148.087 93.6166L147.538 95.5396C150.928 96.5084 154.821 96.9844 159.203 96.9844V94.9844ZM148.09 93.6173C144.931 92.7062 142.33 91.4574 140.26 89.8902L139.053 91.4848C141.358 93.2301 144.194 94.5751 147.535 95.5389L148.09 93.6173ZM140.26 89.8902C138.181 88.3161 136.629 86.4927 135.579 84.4228L133.796 85.3272C134.996 87.6948 136.757 89.7464 139.053 91.4848L140.26 89.8902ZM135.587 84.4378C134.563 82.3308 134.047 80.0437 134.047 77.5625H132.047C132.047 80.3313 132.625 82.9192 133.788 85.3122L135.587 84.4378ZM146.672 77.0938C146.672 78.181 146.955 79.2221 147.501 80.2044L149.249 79.2331C148.857 78.5279 148.672 77.819 148.672 77.0938H146.672ZM147.509 80.2185C148.079 81.2063 148.961 82.0482 150.088 82.7655L151.162 81.0782C150.227 80.4831 149.609 79.8562 149.241 79.219L147.509 80.2185ZM150.107 82.7771C151.247 83.4679 152.658 84.0154 154.315 84.4378L154.81 82.4997C153.279 82.1096 152.066 81.6258 151.143 81.0667L150.107 82.7771ZM154.338 84.4431C156.058 84.8401 158.091 85.0312 160.422 85.0312V83.0312C158.191 83.0312 156.317 82.8474 154.787 82.4944L154.338 84.4431ZM160.422 85.0312C162.919 85.0312 165.342 84.8071 167.688 84.3571L167.312 82.3929C165.095 82.8179 162.799 83.0312 160.422 83.0312V85.0312ZM167.688 84.3571C170.017 83.9106 172.194 83.3189 174.218 82.58L173.532 80.7013C171.619 81.3998 169.546 81.9644 167.312 82.3929L167.688 84.3571ZM174.218 82.58C176.236 81.8431 178.073 80.9902 179.726 80.0182L178.712 78.2943C177.177 79.1973 175.451 80.0006 173.532 80.7013L174.218 82.58ZM179.726 80.0182C181.368 79.0524 182.76 78.0407 183.888 76.9782L182.518 75.5218C181.522 76.4593 180.257 77.3851 178.712 78.2943L179.726 80.0182ZM184.203 76.25V73.8125H182.203V76.25H184.203ZM183.472 72.8494C181.322 72.2486 179.187 71.7424 177.065 71.3308L176.685 73.2942C178.751 73.6951 180.834 74.1889 182.934 74.7756L183.472 72.8494ZM177.068 71.3314C174.982 70.9204 172.971 70.6036 171.036 70.3815L170.808 72.3685C172.685 72.5839 174.643 72.8921 176.682 73.2936L177.068 71.3314ZM171.054 70.3838C169.157 70.1308 167.35 69.9562 165.634 69.8609L165.523 71.8578C167.182 71.95 168.937 72.1192 170.79 72.3662L171.054 70.3838ZM165.635 69.861C163.965 69.7665 162.493 69.7188 161.219 69.7188V71.7188C162.445 71.7188 163.879 71.7648 165.522 71.8578L165.635 69.861ZM161.219 69.7188C158.587 69.7188 156.36 69.8926 154.554 70.2538L154.946 72.215C156.578 71.8887 158.663 71.7188 161.219 71.7188V69.7188ZM154.554 70.2538C152.774 70.6098 151.274 71.1061 150.09 71.7677L151.066 73.5136C152.007 72.9877 153.289 72.5464 154.946 72.215L154.554 70.2538ZM150.11 71.7568C148.934 72.3793 148.014 73.17 147.456 74.1676L149.201 75.1449C149.517 74.58 150.097 74.0269 151.046 73.5244L150.11 71.7568ZM147.456 74.1676C146.94 75.0887 146.672 76.0684 146.672 77.0938H148.672C148.672 76.4316 148.841 75.7863 149.201 75.1449L147.456 74.1676Z" fill="#B000FF"/>
<path d="M208.047 166.562C208.047 163.906 208.625 161.484 209.781 159.297C210.938 157.109 212.672 155.234 214.984 153.672C217.297 152.078 220.172 150.859 223.609 150.016C227.078 149.141 231.109 148.703 235.703 148.703C239.109 148.703 242.688 148.953 246.438 149.453C250.219 149.953 254.109 150.719 258.109 151.75C257.953 150 257.422 148.391 256.516 146.922C255.609 145.422 254.344 144.141 252.719 143.078C251.125 141.984 249.188 141.141 246.906 140.547C244.656 139.953 242.094 139.656 239.219 139.656C237.656 139.656 235.938 139.75 234.062 139.938C232.188 140.125 230.25 140.406 228.25 140.781C226.25 141.156 224.266 141.625 222.297 142.188C220.359 142.75 218.547 143.422 216.859 144.203L212.641 132.812C214.734 132.062 216.969 131.375 219.344 130.75C221.75 130.125 224.203 129.594 226.703 129.156C229.203 128.688 231.703 128.328 234.203 128.078C236.703 127.828 239.125 127.703 241.469 127.703C251.812 127.703 259.5 130.344 264.531 135.625C269.562 140.906 272.078 149 272.078 159.906V184H258.203V178.797C256.766 179.641 255.188 180.438 253.469 181.188C251.781 181.938 249.938 182.594 247.938 183.156C245.938 183.719 243.781 184.156 241.469 184.469C239.188 184.812 236.766 184.984 234.203 184.984C229.891 184.984 226.094 184.516 222.812 183.578C219.562 182.641 216.844 181.344 214.656 179.688C212.469 178.031 210.812 176.094 209.688 173.875C208.594 171.625 208.047 169.188 208.047 166.562ZM222.672 166.094C222.672 167 222.906 167.875 223.375 168.719C223.844 169.531 224.594 170.266 225.625 170.922C226.656 171.547 227.969 172.062 229.562 172.469C231.188 172.844 233.141 173.031 235.422 173.031C237.859 173.031 240.219 172.812 242.5 172.375C244.781 171.938 246.906 171.359 248.875 170.641C250.844 169.922 252.625 169.094 254.219 168.156C255.812 167.219 257.141 166.25 258.203 165.25V162.812C256.078 162.219 253.969 161.719 251.875 161.312C249.812 160.906 247.828 160.594 245.922 160.375C244.047 160.125 242.266 159.953 240.578 159.859C238.922 159.766 237.469 159.719 236.219 159.719C233.625 159.719 231.469 159.891 229.75 160.234C228.031 160.578 226.641 161.047 225.578 161.641C224.516 162.203 223.766 162.875 223.328 163.656C222.891 164.438 222.672 165.25 222.672 166.094Z" fill="#B000FF"/>
<path d="M214.984 153.672L215.544 154.5L215.552 154.495L214.984 153.672ZM223.609 150.016L223.848 150.987L223.854 150.985L223.609 150.016ZM246.438 149.453L246.305 150.444L246.306 150.444L246.438 149.453ZM258.109 151.75L257.86 152.718L259.231 153.072L259.105 151.661L258.109 151.75ZM256.516 146.922L255.66 147.439L255.665 147.447L256.516 146.922ZM252.719 143.078L252.153 143.903L252.162 143.909L252.172 143.915L252.719 143.078ZM246.906 140.547L246.651 141.514L246.654 141.515L246.906 140.547ZM222.297 142.188L222.022 141.226L222.018 141.227L222.297 142.188ZM216.859 144.203L215.922 144.55L216.297 145.565L217.279 145.111L216.859 144.203ZM212.641 132.812L212.303 131.871L211.352 132.212L211.703 133.16L212.641 132.812ZM219.344 130.75L219.092 129.782L219.089 129.783L219.344 130.75ZM226.703 129.156L226.876 130.141L226.887 130.139L226.703 129.156ZM272.078 184V185H273.078V184H272.078ZM258.203 184H257.203V185H258.203V184ZM258.203 178.797H259.203V177.05L257.697 177.934L258.203 178.797ZM253.469 181.188L253.069 180.271L253.063 180.274L253.469 181.188ZM241.469 184.469L241.335 183.478L241.327 183.479L241.32 183.48L241.469 184.469ZM222.812 183.578L222.535 184.539L222.538 184.54L222.812 183.578ZM209.688 173.875L208.788 174.312L208.792 174.32L208.796 174.327L209.688 173.875ZM223.375 168.719L222.501 169.204L222.505 169.211L222.509 169.218L223.375 168.719ZM225.625 170.922L225.088 171.766L225.097 171.771L225.107 171.777L225.625 170.922ZM229.562 172.469L229.315 173.438L229.327 173.441L229.338 173.443L229.562 172.469ZM258.203 165.25L258.888 165.978L259.203 165.682V165.25H258.203ZM258.203 162.812H259.203V162.054L258.472 161.849L258.203 162.812ZM251.875 161.312L251.682 162.294L251.685 162.294L251.875 161.312ZM245.922 160.375L245.79 161.366L245.799 161.367L245.808 161.368L245.922 160.375ZM240.578 159.859L240.522 160.858L240.523 160.858L240.578 159.859ZM225.578 161.641L226.046 162.524L226.056 162.519L226.066 162.514L225.578 161.641ZM209.047 166.562C209.047 164.057 209.591 161.797 210.665 159.764L208.897 158.83C207.659 161.172 207.047 163.756 207.047 166.562H209.047ZM210.665 159.764C211.735 157.74 213.35 155.983 215.544 154.5L214.425 152.843C211.994 154.486 210.14 156.479 208.897 158.83L210.665 159.764ZM215.552 154.495C217.742 152.986 220.499 151.809 223.848 150.987L223.371 149.044C219.845 149.91 216.851 151.171 214.417 152.848L215.552 154.495ZM223.854 150.985C227.224 150.135 231.17 149.703 235.703 149.703V147.703C231.049 147.703 226.932 148.146 223.365 149.046L223.854 150.985ZM235.703 149.703C239.061 149.703 242.594 149.95 246.305 150.444L246.57 148.462C242.781 147.957 239.158 147.703 235.703 147.703V149.703ZM246.306 150.444C250.045 150.939 253.896 151.696 257.86 152.718L258.359 150.782C254.323 149.741 250.393 148.967 246.569 148.462L246.306 150.444ZM259.105 151.661C258.936 149.759 258.356 148 257.367 146.397L255.665 147.447C256.488 148.781 256.971 150.241 257.113 151.839L259.105 151.661ZM257.372 146.405C256.38 144.763 255.003 143.377 253.266 142.241L252.172 143.915C253.685 144.904 254.839 146.081 255.66 147.439L257.372 146.405ZM253.285 142.254C251.577 141.082 249.528 140.196 247.158 139.579L246.654 141.515C248.847 142.085 250.673 142.887 252.153 143.903L253.285 142.254ZM247.161 139.58C244.811 138.96 242.161 138.656 239.219 138.656V140.656C242.027 140.656 244.501 140.946 246.651 141.514L247.161 139.58ZM239.219 138.656C237.617 138.656 235.865 138.752 233.963 138.942L234.162 140.933C236.01 140.748 237.695 140.656 239.219 140.656V138.656ZM233.963 138.942C232.057 139.133 230.092 139.419 228.066 139.798L228.434 141.764C230.408 141.394 232.318 141.117 234.162 140.933L233.963 138.942ZM228.066 139.798C226.035 140.179 224.021 140.655 222.022 141.226L222.572 143.149C224.511 142.595 226.465 142.133 228.434 141.764L228.066 139.798ZM222.018 141.227C220.036 141.803 218.176 142.492 216.439 143.296L217.279 145.111C218.918 144.352 220.683 143.697 222.576 143.148L222.018 141.227ZM217.797 143.856L213.578 132.465L211.703 133.16L215.922 144.55L217.797 143.856ZM212.978 133.754C215.042 133.015 217.248 132.335 219.598 131.717L219.089 129.783C216.689 130.415 214.427 131.11 212.303 131.871L212.978 133.754ZM219.595 131.718C221.975 131.1 224.402 130.574 226.876 130.141L226.531 128.171C224.005 128.613 221.525 129.15 219.092 129.782L219.595 131.718ZM226.887 130.139C229.36 129.676 231.831 129.32 234.303 129.073L234.104 127.083C231.575 127.336 229.047 127.699 226.519 128.173L226.887 130.139ZM234.303 129.073C236.772 128.826 239.161 128.703 241.469 128.703V126.703C239.089 126.703 236.634 126.83 234.104 127.083L234.303 129.073ZM241.469 128.703C251.655 128.703 259.032 131.303 263.807 136.315L265.255 134.935C259.968 129.385 251.97 126.703 241.469 126.703V128.703ZM263.807 136.315C268.591 141.336 271.078 149.132 271.078 159.906H273.078C273.078 148.868 270.534 140.477 265.255 134.935L263.807 136.315ZM271.078 159.906V184H273.078V159.906H271.078ZM272.078 183H258.203V185H272.078V183ZM259.203 184V178.797H257.203V184H259.203ZM257.697 177.934C256.298 178.756 254.756 179.535 253.069 180.271L253.869 182.104C255.619 181.34 257.234 180.525 258.709 179.659L257.697 177.934ZM253.063 180.274C251.424 181.002 249.626 181.643 247.667 182.194L248.208 184.119C250.249 183.545 252.138 182.873 253.875 182.101L253.063 180.274ZM247.667 182.194C245.717 182.742 243.607 183.171 241.335 183.478L241.603 185.46C243.956 185.142 246.158 184.695 248.208 184.119L247.667 182.194ZM241.32 183.48C239.093 183.815 236.721 183.984 234.203 183.984V185.984C236.81 185.984 239.282 185.81 241.618 185.458L241.32 183.48ZM234.203 183.984C229.96 183.984 226.259 183.523 223.087 182.617L222.538 184.54C225.928 185.508 229.821 185.984 234.203 185.984V183.984ZM223.09 182.617C219.931 181.706 217.33 180.457 215.26 178.89L214.053 180.485C216.358 182.23 219.194 183.575 222.535 184.539L223.09 182.617ZM215.26 178.89C213.181 177.316 211.629 175.493 210.579 173.423L208.796 174.327C209.996 176.695 211.757 178.746 214.053 180.485L215.26 178.89ZM210.587 173.438C209.563 171.331 209.047 169.044 209.047 166.562H207.047C207.047 169.331 207.625 171.919 208.788 174.312L210.587 173.438ZM221.672 166.094C221.672 167.181 221.955 168.222 222.501 169.204L224.249 168.233C223.857 167.528 223.672 166.819 223.672 166.094H221.672ZM222.509 169.218C223.079 170.206 223.961 171.048 225.088 171.766L226.162 170.078C225.227 169.483 224.609 168.856 224.241 168.219L222.509 169.218ZM225.107 171.777C226.247 172.468 227.658 173.015 229.315 173.438L229.81 171.5C228.279 171.11 227.066 170.626 226.143 170.067L225.107 171.777ZM229.338 173.443C231.058 173.84 233.091 174.031 235.422 174.031V172.031C233.191 172.031 231.317 171.847 229.787 171.494L229.338 173.443ZM235.422 174.031C237.919 174.031 240.342 173.807 242.688 173.357L242.312 171.393C240.095 171.818 237.799 172.031 235.422 172.031V174.031ZM242.688 173.357C245.017 172.911 247.194 172.319 249.218 171.58L248.532 169.701C246.619 170.4 244.546 170.964 242.312 171.393L242.688 173.357ZM249.218 171.58C251.236 170.843 253.073 169.99 254.726 169.018L253.712 167.294C252.177 168.197 250.451 169.001 248.532 169.701L249.218 171.58ZM254.726 169.018C256.368 168.052 257.76 167.041 258.888 165.978L257.518 164.522C256.522 165.459 255.257 166.385 253.712 167.294L254.726 169.018ZM259.203 165.25V162.812H257.203V165.25H259.203ZM258.472 161.849C256.322 161.249 254.187 160.742 252.065 160.331L251.685 162.294C253.751 162.695 255.834 163.189 257.934 163.776L258.472 161.849ZM252.068 160.331C249.982 159.92 247.971 159.604 246.036 159.382L245.808 161.368C247.685 161.584 249.643 161.892 251.682 162.294L252.068 160.331ZM246.054 159.384C244.157 159.131 242.35 158.956 240.634 158.861L240.523 160.858C242.182 160.95 243.937 161.119 245.79 161.366L246.054 159.384ZM240.635 158.861C238.965 158.766 237.493 158.719 236.219 158.719V160.719C237.445 160.719 238.879 160.765 240.522 160.858L240.635 158.861ZM236.219 158.719C233.587 158.719 231.36 158.893 229.554 159.254L229.946 161.215C231.578 160.889 233.663 160.719 236.219 160.719V158.719ZM229.554 159.254C227.774 159.61 226.274 160.106 225.09 160.768L226.066 162.514C227.007 161.988 228.289 161.546 229.946 161.215L229.554 159.254ZM225.11 160.757C223.934 161.379 223.014 162.17 222.456 163.168L224.201 164.145C224.517 163.58 225.097 163.027 226.046 162.524L225.11 160.757ZM222.456 163.168C221.94 164.089 221.672 165.068 221.672 166.094H223.672C223.672 165.432 223.841 164.786 224.201 164.145L222.456 163.168Z" fill="#B000FF"/>
<path d="M215.875 78.0312C219.625 80.2812 223.75 81.9375 228.25 83C232.75 84.0625 237.359 84.5938 242.078 84.5938C245.266 84.5938 247.922 84.375 250.047 83.9375C252.172 83.5 253.875 82.9375 255.156 82.25C256.438 81.5625 257.344 80.7812 257.875 79.9062C258.406 79.0312 258.672 78.1406 258.672 77.2344C258.672 75.9219 258.094 74.7969 256.938 73.8594C255.812 72.9219 253.938 72.4531 251.312 72.4531C250.094 72.4531 248.781 72.5312 247.375 72.6875C245.969 72.8438 244.484 73.0156 242.922 73.2031C241.391 73.3594 239.781 73.5156 238.094 73.6719C236.438 73.8281 234.75 73.9062 233.031 73.9062C229.281 73.9062 226.078 73.5 223.422 72.6875C220.797 71.875 218.656 70.7656 217 69.3594C215.344 67.9531 214.141 66.2969 213.391 64.3906C212.641 62.4531 212.266 60.375 212.266 58.1562C212.266 55.3438 212.922 52.75 214.234 50.375C215.547 48 217.422 45.9531 219.859 44.2344C222.297 42.4844 225.234 41.125 228.672 40.1562C232.141 39.1875 236 38.7031 240.25 38.7031C242.469 38.7031 244.781 38.8438 247.188 39.125C249.625 39.375 252.016 39.7188 254.359 40.1562C256.703 40.5938 258.953 41.1094 261.109 41.7031C263.266 42.2656 265.172 42.875 266.828 43.5312L262.469 54.3125C258.938 53 255.406 51.9688 251.875 51.2188C248.375 50.4375 244.766 50.0469 241.047 50.0469C238.453 50.0469 236.25 50.25 234.438 50.6562C232.656 51.0312 231.203 51.5469 230.078 52.2031C228.953 52.8281 228.125 53.5625 227.594 54.4062C227.094 55.2188 226.844 56.0781 226.844 56.9844C226.844 57.6406 226.969 58.2344 227.219 58.7656C227.5 59.2969 227.938 59.7656 228.531 60.1719C229.156 60.5469 229.953 60.8438 230.922 61.0625C231.922 61.25 233.141 61.3438 234.578 61.3438C235.891 61.3438 237.281 61.2656 238.75 61.1094C240.219 60.9531 241.75 60.7969 243.344 60.6406C244.938 60.4531 246.578 60.2812 248.266 60.125C249.984 59.9688 251.734 59.8906 253.516 59.8906C256.828 59.8906 259.719 60.2812 262.188 61.0625C264.688 61.8438 266.75 62.9375 268.375 64.3438C270 65.75 271.219 67.4062 272.031 69.3125C272.844 71.2188 273.25 73.2969 273.25 75.5469C273.25 78.4531 272.578 81.1562 271.234 83.6562C269.891 86.1562 267.891 88.3281 265.234 90.1719C262.578 91.9844 259.266 93.4062 255.297 94.4375C251.359 95.4688 246.797 95.9844 241.609 95.9844C238.422 95.9844 235.344 95.7812 232.375 95.375C229.406 95 226.578 94.4844 223.891 93.8281C221.203 93.1406 218.672 92.3438 216.297 91.4375C213.953 90.5312 211.812 89.5625 209.875 88.5312L215.875 78.0312Z" fill="#B000FF"/>
<path d="M215.875 78.0312L216.389 77.1738L215.514 76.6482L215.007 77.5351L215.875 78.0312ZM256.938 73.8594L256.297 74.6277L256.308 74.6361L256.938 73.8594ZM242.922 73.2031L243.023 74.198L243.032 74.1971L243.041 74.196L242.922 73.2031ZM238.094 73.6719L238.002 72.6761L238 72.6763L238.094 73.6719ZM223.422 72.6875L223.126 73.6428L223.129 73.6438L223.422 72.6875ZM213.391 64.3906L212.458 64.7516L212.46 64.7568L213.391 64.3906ZM219.859 44.2344L220.436 45.0517L220.443 45.0467L219.859 44.2344ZM228.672 40.1562L228.403 39.1931L228.401 39.1937L228.672 40.1562ZM247.188 39.125L247.071 40.1182L247.078 40.1191L247.085 40.1198L247.188 39.125ZM261.109 41.7031L260.844 42.6673L260.857 42.6707L261.109 41.7031ZM266.828 43.5312L267.755 43.9061L268.133 42.9725L267.196 42.6016L266.828 43.5312ZM262.469 54.3125L262.12 55.2498L263.031 55.5885L263.396 54.6874L262.469 54.3125ZM251.875 51.2188L251.657 52.1948L251.667 52.1969L251.875 51.2188ZM234.438 50.6562L234.644 51.6349L234.656 51.632L234.438 50.6562ZM230.078 52.2031L230.564 53.0773L230.573 53.0722L230.582 53.0669L230.078 52.2031ZM227.594 54.4062L226.747 53.8734L226.742 53.8822L227.594 54.4062ZM227.219 58.7656L226.314 59.1914L226.324 59.2127L226.335 59.2335L227.219 58.7656ZM228.531 60.1719L227.967 60.9972L227.991 61.014L228.017 61.0294L228.531 60.1719ZM230.922 61.0625L230.702 62.0379L230.72 62.042L230.738 62.0454L230.922 61.0625ZM243.344 60.6406L243.441 61.6359L243.451 61.6349L243.461 61.6338L243.344 60.6406ZM248.266 60.125L248.175 59.1291L248.173 59.1293L248.266 60.125ZM262.188 61.0625L261.886 62.0159L261.889 62.017L262.188 61.0625ZM265.234 90.1719L265.798 90.9979L265.805 90.9934L265.234 90.1719ZM255.297 94.4375L255.045 93.4696L255.044 93.4701L255.297 94.4375ZM232.375 95.375L232.511 94.3842L232.5 94.3829L232.375 95.375ZM223.891 93.8281L223.643 94.797L223.653 94.7996L223.891 93.8281ZM216.297 91.4375L215.936 92.3702L215.94 92.3718L216.297 91.4375ZM209.875 88.5312L209.007 88.0351L208.495 88.9298L209.405 89.414L209.875 88.5312ZM215.361 78.8887C219.204 81.1947 223.426 82.8884 228.02 83.9732L228.48 82.0268C224.074 80.9866 220.046 79.3678 216.389 77.1738L215.361 78.8887ZM228.02 83.9732C232.597 85.0539 237.284 85.5938 242.078 85.5938V83.5938C237.435 83.5938 232.903 83.0711 228.48 82.0268L228.02 83.9732ZM242.078 85.5938C245.305 85.5938 248.034 85.3728 250.249 84.917L249.845 82.958C247.81 83.3772 245.226 83.5938 242.078 83.5938V85.5938ZM250.249 84.917C252.426 84.4686 254.232 83.8809 255.629 83.1312L254.683 81.3688C253.518 81.9941 251.917 82.5314 249.845 82.958L250.249 84.917ZM255.629 83.1312C257.005 82.3928 258.075 81.504 258.73 80.4252L257.02 79.3873C256.613 80.0585 255.87 80.7322 254.683 81.3688L255.629 83.1312ZM258.73 80.4252C259.343 79.4145 259.672 78.3465 259.672 77.2344H257.672C257.672 77.9348 257.469 78.648 257.02 79.3873L258.73 80.4252ZM259.672 77.2344C259.672 75.5776 258.922 74.1813 257.567 73.0826L256.308 74.6361C257.265 75.4125 257.672 76.2662 257.672 77.2344H259.672ZM257.578 73.0912C256.177 71.9242 254.006 71.4531 251.312 71.4531V73.4531C253.869 73.4531 255.448 73.9195 256.297 74.6276L257.578 73.0912ZM251.312 71.4531C250.052 71.4531 248.702 71.5339 247.265 71.6936L247.485 73.6814C248.861 73.5286 250.136 73.4531 251.312 73.4531V71.4531ZM247.265 71.6936C245.855 71.8502 244.368 72.0224 242.803 72.2103L243.041 74.196C244.601 74.0088 246.082 73.8373 247.485 73.6814L247.265 71.6936ZM242.82 72.2083C241.293 72.3642 239.686 72.5201 238.002 72.6761L238.186 74.6676C239.876 74.5111 241.489 74.3546 243.023 74.198L242.82 72.2083ZM238 72.6763C236.376 72.8295 234.72 72.9062 233.031 72.9062V74.9062C234.78 74.9062 236.499 74.8267 238.188 74.6675L238 72.6763ZM233.031 72.9062C229.348 72.9062 226.249 72.5066 223.714 71.7312L223.129 73.6438C225.907 74.4934 229.214 74.9062 233.031 74.9062V72.9062ZM223.718 71.7322C221.189 70.9495 219.177 69.8961 217.647 68.5971L216.353 70.1217C218.135 71.6352 220.405 72.8005 223.126 73.6428L223.718 71.7322ZM217.647 68.5971C216.109 67.2908 215.007 65.768 214.321 64.0245L212.46 64.7568C213.274 66.8257 214.579 68.6154 216.353 70.1217L217.647 68.5971ZM214.323 64.0296C213.621 62.2149 213.266 60.26 213.266 58.1562H211.266C211.266 60.49 211.661 62.6913 212.458 64.7516L214.323 64.0296ZM213.266 58.1562C213.266 55.5065 213.882 53.0801 215.11 50.8587L213.359 49.8913C211.962 52.4199 211.266 55.181 211.266 58.1562H213.266ZM215.11 50.8587C216.342 48.6287 218.109 46.692 220.436 45.0516L219.283 43.4171C216.734 45.2143 214.752 47.3713 213.359 49.8913L215.11 50.8587ZM220.443 45.0467C222.77 43.376 225.597 42.0618 228.943 41.1188L228.401 39.1937C224.872 40.1882 221.824 41.5927 219.276 43.4221L220.443 45.0467ZM228.941 41.1194C232.308 40.179 236.075 39.7031 240.25 39.7031V37.7031C235.925 37.7031 231.973 38.196 228.403 39.1931L228.941 41.1194ZM240.25 39.7031C242.427 39.7031 244.7 39.8411 247.071 40.1182L247.304 38.1318C244.862 37.8464 242.511 37.7031 240.25 37.7031V39.7031ZM247.085 40.1198C249.496 40.3671 251.86 40.7069 254.176 41.1393L254.543 39.1732C252.171 38.7306 249.754 38.3829 247.29 38.1302L247.085 40.1198ZM254.176 41.1393C256.494 41.572 258.716 42.0814 260.844 42.6672L261.375 40.739C259.19 40.1373 256.912 39.6155 254.543 39.1732L254.176 41.1393ZM260.857 42.6707C262.983 43.2254 264.849 43.8228 266.46 44.4609L267.196 42.6016C265.494 41.9272 263.548 41.3059 261.362 40.7355L260.857 42.6707ZM265.901 43.1564L261.542 53.9376L263.396 54.6874L267.755 43.9061L265.901 43.1564ZM262.817 53.3752C259.242 52.0464 255.664 51.0012 252.083 50.2406L251.667 52.1969C255.149 52.9363 258.633 53.9536 262.12 55.2498L262.817 53.3752ZM252.093 50.2428C248.519 49.445 244.836 49.0469 241.047 49.0469V51.0469C244.695 51.0469 248.231 51.43 251.657 52.1947L252.093 50.2428ZM241.047 49.0469C238.406 49.0469 236.125 49.2532 234.219 49.6805L234.656 51.632C236.375 51.2468 238.5 51.0469 241.047 51.0469V49.0469ZM234.231 49.6777C232.384 50.0667 230.82 50.6124 229.574 51.3393L230.582 53.0669C231.586 52.4813 232.929 51.9958 234.644 51.6348L234.231 49.6777ZM229.592 51.329C228.362 52.0125 227.391 52.8519 226.748 53.8734L228.44 54.9391C228.859 54.2731 229.544 53.6437 230.564 53.0773L229.592 51.329ZM226.742 53.8822C226.15 54.8436 225.844 55.8831 225.844 56.9844H227.844C227.844 56.2731 228.037 55.5939 228.445 54.9303L226.742 53.8822ZM225.844 56.9844C225.844 57.7704 225.994 58.512 226.314 59.1914L228.124 58.3398C227.943 57.9567 227.844 57.5109 227.844 56.9844H225.844ZM226.335 59.2335C226.706 59.9336 227.265 60.5173 227.967 60.9972L229.096 59.3466C228.61 59.0139 228.294 58.6601 228.103 58.2977L226.335 59.2335ZM228.017 61.0294C228.759 61.4749 229.664 61.8037 230.702 62.0379L231.142 60.0871C230.242 59.8838 229.553 59.6189 229.046 59.3144L228.017 61.0294ZM230.738 62.0454C231.817 62.2479 233.102 62.3438 234.578 62.3438V60.3438C233.179 60.3438 232.026 60.2521 231.106 60.0796L230.738 62.0454ZM234.578 62.3438C235.93 62.3438 237.356 62.2633 238.856 62.1038L238.644 60.115C237.206 60.268 235.851 60.3438 234.578 60.3438V62.3438ZM238.856 62.1038C240.322 61.9478 241.85 61.7919 243.441 61.6359L243.246 59.6454C241.65 59.8019 240.116 59.9584 238.644 60.115L238.856 62.1038ZM243.461 61.6338C245.046 61.4473 246.678 61.2763 248.358 61.1207L248.173 59.1293C246.478 59.2862 244.829 59.459 243.227 59.6475L243.461 61.6338ZM248.356 61.1209C250.044 60.9675 251.764 60.8906 253.516 60.8906V58.8906C251.705 58.8906 249.925 58.97 248.175 59.1291L248.356 61.1209ZM253.516 60.8906C256.753 60.8906 259.537 61.2728 261.886 62.0159L262.489 60.1091C259.9 59.2897 256.903 58.8906 253.516 58.8906V60.8906ZM261.889 62.017C264.286 62.766 266.22 63.8009 267.721 65.0999L269.029 63.5876C267.28 62.0741 265.089 60.9215 262.486 60.108L261.889 62.017ZM267.721 65.0999C269.235 66.4104 270.361 67.9436 271.111 69.7046L272.951 68.9204C272.077 66.8689 270.765 65.0896 269.029 63.5876L267.721 65.0999ZM271.111 69.7046C271.867 71.4766 272.25 73.42 272.25 75.5469H274.25C274.25 73.1738 273.821 70.9609 272.951 68.9204L271.111 69.7046ZM272.25 75.5469C272.25 78.292 271.617 80.8319 270.354 83.1828L272.115 84.1297C273.539 81.4806 274.25 78.6142 274.25 75.5469H272.25ZM270.354 83.1828C269.094 85.5257 267.209 87.5839 264.664 89.3504L265.805 90.9934C268.572 89.0723 270.687 86.7868 272.115 84.1297L270.354 83.1828ZM264.671 89.3459C262.132 91.0784 258.932 92.4598 255.045 93.4696L255.548 95.4054C259.599 94.3527 263.025 92.8904 265.798 90.9979L264.671 89.3459ZM255.044 93.4701C251.208 94.4747 246.734 94.9844 241.609 94.9844V96.9844C246.86 96.9844 251.511 96.4628 255.55 95.4049L255.044 93.4701ZM241.609 94.9844C238.464 94.9844 235.432 94.784 232.511 94.3842L232.239 96.3658C235.256 96.7785 238.379 96.9844 241.609 96.9844V94.9844ZM232.5 94.3829C229.566 94.0123 226.776 93.5032 224.128 92.8567L223.653 94.7996C226.381 95.4655 229.246 95.9877 232.25 96.3671L232.5 94.3829ZM224.138 92.8593C221.485 92.1804 218.99 91.3947 216.653 90.5032L215.94 92.3718C218.354 93.2928 220.922 94.1008 223.643 94.7969L224.138 92.8593ZM216.658 90.5048C214.346 89.611 212.242 88.6585 210.345 87.6485L209.405 89.414C211.383 90.4665 213.56 91.4515 215.936 92.3702L216.658 90.5048ZM210.743 89.0274L216.743 78.5274L215.007 77.5351L209.007 88.0351L210.743 89.0274Z" fill="#B000FF"/>
<path d="M130.672 106.281H144.547V132.906C147.453 131.312 150.688 130.047 154.25 129.109C157.844 128.172 161.609 127.703 165.547 127.703C170.109 127.703 174.203 128.375 177.828 129.719C181.484 131.062 184.578 133 187.109 135.531C189.641 138.031 191.578 141.078 192.922 144.672C194.297 148.266 194.984 152.312 194.984 156.812V184H181.156V157.375C181.156 154.75 180.734 152.359 179.891 150.203C179.047 148.016 177.812 146.141 176.188 144.578C174.562 143.016 172.578 141.812 170.234 140.969C167.922 140.094 165.297 139.656 162.359 139.656C158.828 139.656 155.547 140.219 152.516 141.344C149.484 142.469 146.828 143.891 144.547 145.609V184H130.672V106.281Z" fill="#B000FF"/>
<path d="M130.672 106.281V105.281H129.672V106.281H130.672ZM144.547 106.281H145.547V105.281H144.547V106.281ZM144.547 132.906H143.547V134.595L145.028 133.783L144.547 132.906ZM154.25 129.109L153.998 128.142L153.996 128.142L154.25 129.109ZM177.828 129.719L177.481 130.656L177.483 130.657L177.828 129.719ZM187.109 135.531L186.402 136.238L186.407 136.243L187.109 135.531ZM192.922 144.672L191.985 145.022L191.988 145.029L192.922 144.672ZM194.984 184V185H195.984V184H194.984ZM181.156 184H180.156V185H181.156V184ZM179.891 150.203L178.958 150.563L178.959 150.568L179.891 150.203ZM170.234 140.969L169.88 141.904L169.888 141.907L169.896 141.91L170.234 140.969ZM144.547 145.609L143.945 144.811L143.547 145.111V145.609H144.547ZM144.547 184V185H145.547V184H144.547ZM130.672 184H129.672V185H130.672V184ZM130.672 107.281H144.547V105.281H130.672V107.281ZM143.547 106.281V132.906H145.547V106.281H143.547ZM145.028 133.783C147.855 132.233 151.012 130.995 154.504 130.076L153.996 128.142C150.363 129.098 147.051 130.392 144.066 132.029L145.028 133.783ZM154.502 130.077C158.009 129.162 161.689 128.703 165.547 128.703V126.703C161.529 126.703 157.679 127.182 153.998 128.142L154.502 130.077ZM165.547 128.703C170.012 128.703 173.985 129.361 177.481 130.656L178.176 128.781C174.421 127.389 170.207 126.703 165.547 126.703V128.703ZM177.483 130.657C181.016 131.956 183.982 133.818 186.402 136.238L187.816 134.824C185.174 132.182 181.953 130.169 178.173 128.78L177.483 130.657ZM186.407 136.243C188.827 138.633 190.688 141.553 191.985 145.022L193.859 144.322C192.468 140.603 190.455 137.43 187.812 134.82L186.407 136.243ZM191.988 145.029C193.313 148.491 193.984 152.414 193.984 156.812H195.984C195.984 152.211 195.281 148.04 193.856 144.315L191.988 145.029ZM193.984 156.812V184H195.984V156.812H193.984ZM194.984 183H181.156V185H194.984V183ZM182.156 184V157.375H180.156V184H182.156ZM182.156 157.375C182.156 154.642 181.717 152.126 180.822 149.839L178.959 150.568C179.752 152.593 180.156 154.858 180.156 157.375H182.156ZM180.824 149.843C179.929 147.525 178.615 145.525 176.881 143.857L175.494 145.299C177.01 146.756 178.164 148.506 178.958 150.563L180.824 149.843ZM176.881 143.857C175.144 142.188 173.035 140.914 170.573 140.028L169.896 141.91C172.121 142.711 173.981 143.844 175.494 145.299L176.881 143.857ZM170.588 140.033C168.144 139.108 165.396 138.656 162.359 138.656V140.656C165.198 140.656 167.7 141.079 169.88 141.904L170.588 140.033ZM162.359 138.656C158.72 138.656 155.32 139.236 152.168 140.406L152.864 142.281C155.774 141.201 158.936 140.656 162.359 140.656V138.656ZM152.168 140.406C149.057 141.561 146.313 143.026 143.945 144.811L145.149 146.408C147.343 144.755 149.911 143.377 152.864 142.281L152.168 140.406ZM143.547 145.609V184H145.547V145.609H143.547ZM144.547 183H130.672V185H144.547V183ZM131.672 184V106.281H129.672V184H131.672Z" fill="#B000FF"/>
<path d="M12.0469 39.6875H25.9219V44.375C29.3906 42.25 32.7656 40.7812 36.0469 39.9688C39.3594 39.125 42.5938 38.7031 45.75 38.7031C50.1562 38.7031 54.2031 39.4062 57.8906 40.8125C61.5781 42.2188 64.7344 44.3438 67.3594 47.1875C69.3906 45.625 71.3906 44.3125 73.3594 43.25C75.3281 42.1562 77.2969 41.2812 79.2656 40.625C81.2344 39.9375 83.2344 39.4531 85.2656 39.1719C87.2969 38.8594 89.3906 38.7031 91.5469 38.7031C96.0781 38.7031 100.188 39.3281 103.875 40.5781C107.562 41.7969 110.703 43.625 113.297 46.0625C115.922 48.5 117.938 51.5469 119.344 55.2031C120.781 58.8281 121.5 63.0312 121.5 67.8125V95H107.672V70.0625C107.672 67.0312 107.234 64.3281 106.359 61.9531C105.516 59.5469 104.312 57.5312 102.75 55.9062C101.219 54.25 99.375 53 97.2188 52.1562C95.0938 51.2812 92.75 50.8438 90.1875 50.8438C88.7812 50.8438 87.3438 50.9844 85.875 51.2656C84.4062 51.5156 82.9688 51.9219 81.5625 52.4844C80.1875 53.0469 78.8906 53.7656 77.6719 54.6406C76.4531 55.4844 75.3906 56.4844 74.4844 57.6406V95H60.6562V70.0625C60.6562 67.0312 60.2188 64.3281 59.3438 61.9531C58.5 59.5469 57.2969 57.5312 55.7344 55.9062C54.2031 54.25 52.3438 53 50.1562 52.1562C48 51.2812 45.625 50.8438 43.0312 50.8438C41.4375 50.8438 39.8281 51.0156 38.2031 51.3594C36.6094 51.6719 35.0625 52.125 33.5625 52.7188C32.0938 53.3125 30.7031 54.0312 29.3906 54.875C28.1094 55.7188 26.9531 56.6719 25.9219 57.7344V95H12.0469V39.6875Z" fill="#B000FF"/>
<path d="M12.0469 39.6875V38.6875H11.0469V39.6875H12.0469ZM25.9219 39.6875H26.9219V38.6875H25.9219V39.6875ZM25.9219 44.375H24.9219V46.1603L26.4443 45.2277L25.9219 44.375ZM36.0469 39.9688L36.2872 40.9395L36.2937 40.9378L36.0469 39.9688ZM67.3594 47.1875L66.6246 47.8658L67.2446 48.5374L67.9691 47.9801L67.3594 47.1875ZM73.3594 43.25L73.8343 44.1301L73.845 44.1242L73.3594 43.25ZM79.2656 40.625L79.5819 41.5737L79.5886 41.5714L79.5953 41.5691L79.2656 40.625ZM85.2656 39.1719L85.4028 40.1624L85.4102 40.1614L85.4177 40.1602L85.2656 39.1719ZM103.875 40.5781L103.554 41.5252L103.561 41.5276L103.875 40.5781ZM113.297 46.0625L112.612 46.7912L112.616 46.7953L113.297 46.0625ZM119.344 55.2031L118.41 55.5621L118.414 55.5718L119.344 55.2031ZM121.5 95V96H122.5V95H121.5ZM107.672 95H106.672V96H107.672V95ZM106.359 61.9531L105.416 62.284L105.418 62.2914L105.421 62.2988L106.359 61.9531ZM102.75 55.9062L102.016 56.5851L102.022 56.5923L102.029 56.5994L102.75 55.9062ZM97.2188 52.1562L96.838 53.0809L96.8461 53.0843L96.8543 53.0875L97.2188 52.1562ZM85.875 51.2656L86.0428 52.2514L86.053 52.2497L86.0631 52.2478L85.875 51.2656ZM81.5625 52.4844L81.1911 51.5559L81.1839 51.5588L81.5625 52.4844ZM77.6719 54.6406L78.2411 55.4628L78.2481 55.4579L78.2551 55.4529L77.6719 54.6406ZM74.4844 57.6406L73.6973 57.0237L73.4844 57.2954V57.6406H74.4844ZM74.4844 95V96H75.4844V95H74.4844ZM60.6562 95H59.6562V96H60.6562V95ZM59.3438 61.9531L58.4001 62.284L58.4027 62.2914L58.4054 62.2988L59.3438 61.9531ZM55.7344 55.9062L55.0001 56.5851L55.0068 56.5923L55.0135 56.5994L55.7344 55.9062ZM50.1562 52.1562L49.7802 53.0829L49.7883 53.0861L49.7964 53.0893L50.1562 52.1562ZM38.2031 51.3594L38.3955 52.3407L38.4028 52.3393L38.4101 52.3377L38.2031 51.3594ZM33.5625 52.7188L33.1944 51.7889L33.1877 51.7916L33.5625 52.7188ZM29.3906 54.875L28.8498 54.0338L28.8406 54.0398L29.3906 54.875ZM25.9219 57.7344L25.2043 57.0379L24.9219 57.3289V57.7344H25.9219ZM25.9219 95V96H26.9219V95H25.9219ZM12.0469 95H11.0469V96H12.0469V95ZM12.0469 40.6875H25.9219V38.6875H12.0469V40.6875ZM24.9219 39.6875V44.375H26.9219V39.6875H24.9219ZM26.4443 45.2277C29.8428 43.1457 33.1233 41.7229 36.2872 40.9394L35.8065 38.9981C32.4079 39.8396 28.9385 41.3543 25.3995 43.5223L26.4443 45.2277ZM36.2937 40.9378C39.5322 40.1129 42.6836 39.7031 45.75 39.7031V37.7031C42.5039 37.7031 39.1866 38.1371 35.8 38.9997L36.2937 40.9378ZM45.75 39.7031C50.0486 39.7031 53.9731 40.3888 57.5343 41.7469L58.2469 39.8781C54.4332 38.4237 50.2639 37.7031 45.75 37.7031V39.7031ZM57.5343 41.7469C61.0805 43.0992 64.1064 45.1378 66.6246 47.8658L68.0942 46.5092C65.3624 43.5497 62.0757 41.3383 58.2469 39.8781L57.5343 41.7469ZM67.9691 47.9801C69.9638 46.4457 71.919 45.1637 73.8343 44.13L72.8844 42.37C70.8623 43.4613 68.8174 44.8043 66.7497 46.3949L67.9691 47.9801ZM73.845 44.1242C75.7643 43.0579 77.6765 42.2088 79.5819 41.5737L78.9494 39.6763C76.9173 40.3537 74.892 41.2546 72.8737 42.3758L73.845 44.1242ZM79.5953 41.5691C81.5026 40.903 83.4382 40.4344 85.4028 40.1624L85.1285 38.1813C83.0306 38.4718 80.9661 38.972 78.9359 39.6809L79.5953 41.5691ZM85.4177 40.1602C87.3962 39.8559 89.439 39.7031 91.5469 39.7031V37.7031C89.3422 37.7031 87.1975 37.8629 85.1136 38.1835L85.4177 40.1602ZM91.5469 39.7031C95.9864 39.7031 99.9852 40.3155 103.554 41.5252L104.196 39.6311C100.39 38.3408 96.1698 37.7031 91.5469 37.7031V39.7031ZM103.561 41.5276C107.123 42.7049 110.134 44.4623 112.612 46.7912L113.982 45.3338C111.272 42.7877 108.002 40.8889 104.189 39.6286L103.561 41.5276ZM112.616 46.7953C115.12 49.1197 117.054 52.0346 118.41 55.5621L120.277 54.8441C118.821 51.0592 116.724 47.8803 113.977 45.3297L112.616 46.7953ZM118.414 55.5718C119.796 59.0562 120.5 63.1298 120.5 67.8125H122.5C122.5 62.9327 121.767 58.6001 120.273 54.8345L118.414 55.5718ZM120.5 67.8125V95H122.5V67.8125H120.5ZM121.5 94H107.672V96H121.5V94ZM108.672 95V70.0625H106.672V95H108.672ZM108.672 70.0625C108.672 66.936 108.221 64.1126 107.298 61.6074L105.421 62.2988C106.248 64.5437 106.672 67.1265 106.672 70.0625H108.672ZM107.303 61.6222C106.418 59.0984 105.145 56.9543 103.471 55.2131L102.029 56.5994C103.48 58.1082 104.613 59.9953 105.416 62.284L107.303 61.6222ZM103.484 55.2274C101.848 53.4571 99.8763 52.1223 97.5832 51.225L96.8543 53.0875C98.8737 53.8777 100.59 55.0429 102.016 56.5851L103.484 55.2274ZM97.5995 51.2316C95.3406 50.3014 92.8656 49.8438 90.1875 49.8438V51.8438C92.6344 51.8438 94.8469 52.2611 96.838 53.0809L97.5995 51.2316ZM90.1875 49.8438C88.7143 49.8438 87.2138 49.9911 85.6869 50.2835L86.0631 52.2478C87.4737 51.9777 88.8482 51.8438 90.1875 51.8438V49.8438ZM85.7072 50.2798C84.1676 50.5419 82.6619 50.9676 81.1911 51.5559L81.9339 53.4129C83.2756 52.8762 84.6449 52.4894 86.0428 52.2514L85.7072 50.2798ZM81.1839 51.5588C79.7358 52.1512 78.3703 52.9081 77.0887 53.8283L78.2551 55.4529C79.4109 54.6231 80.6392 53.9425 81.9411 53.4099L81.1839 51.5588ZM77.1027 53.8184C75.8022 54.7188 74.666 55.7878 73.6973 57.0237L75.2714 58.2575C76.1152 57.181 77.1041 56.25 78.2411 55.4628L77.1027 53.8184ZM73.4844 57.6406V95H75.4844V57.6406H73.4844ZM74.4844 94H60.6562V96H74.4844V94ZM61.6562 95V70.0625H59.6562V95H61.6562ZM61.6562 70.0625C61.6562 66.936 61.205 64.1126 60.2821 61.6074L58.4054 62.2988C59.2325 64.5437 59.6562 67.1265 59.6562 70.0625H61.6562ZM60.2874 61.6222C59.4024 59.0984 58.1294 56.9543 56.4552 55.2131L55.0135 56.5994C56.4644 58.1082 57.5976 59.9953 58.4001 62.284L60.2874 61.6222ZM56.4686 55.2274C54.8295 53.4545 52.8404 52.1198 50.5161 51.2232L49.7964 53.0893C51.8471 53.8802 53.5767 55.0455 55.0001 56.5851L56.4686 55.2274ZM50.5323 51.2296C48.2436 50.3009 45.7391 49.8438 43.0312 49.8438V51.8438C45.5109 51.8438 47.7564 52.2616 49.7802 53.0829L50.5323 51.2296ZM43.0312 49.8438C41.3651 49.8438 39.6863 50.0235 37.9962 50.381L38.4101 52.3377C39.9699 52.0078 41.5099 51.8438 43.0312 51.8438V49.8438ZM38.0107 50.3781C36.3574 50.7022 34.7517 51.1725 33.1945 51.7889L33.9305 53.6486C35.3733 53.0775 36.8614 52.6415 38.3955 52.3407L38.0107 50.3781ZM33.1877 51.7916C31.662 52.4084 30.2157 53.1558 28.8499 54.0338L29.9314 55.7162C31.1906 54.9067 32.5255 54.2166 33.9373 53.6459L33.1877 51.7916ZM28.8406 54.0398C27.5008 54.9221 26.288 55.9214 25.2043 57.0379L26.6395 58.4309C27.6183 57.4224 28.7179 56.5154 29.9406 55.7102L28.8406 54.0398ZM24.9219 57.7344V95H26.9219V57.7344H24.9219ZM25.9219 94H12.0469V96H25.9219V94ZM13.0469 95V39.6875H11.0469V95H13.0469Z" fill="#B000FF"/>
<path d="M4 199L190 199" stroke="#B000FF" stroke-width="8" stroke-linecap="round"/>
</svg>
