<svg width="242" height="107" viewBox="0 0 242 107" fill="none" xmlns="http://www.w3.org/2000/svg">
<path d="M20.6562 80.0156C20.6562 76.8906 20.2344 73.9531 19.3906 71.2031C18.5781 68.4219 17.3281 65.8906 15.6406 63.6094C13.9531 61.2969 11.8125 59.2656 9.21875 57.5156C6.625 55.7344 3.5625 54.2812 0.03125 53.1562C3.5625 52.0312 6.625 50.5938 9.21875 48.8438C11.8125 47.0938 13.9531 45.0781 15.6406 42.7969C17.3281 40.4844 18.5781 37.9375 19.3906 35.1562C20.2344 32.375 20.6562 29.4219 20.6562 26.2969V23.3438C20.6562 19.5313 21.125 16.1719 22.0625 13.2656C23.0312 10.3594 24.5312 7.92188 26.5625 5.95312C28.5938 3.98438 31.1875 2.5 34.3438 1.5C37.5 0.5 41.2812 0 45.6875 0H51.9219V9.98438H45.6875C43.6875 9.98438 41.875 10.25 40.25 10.7812C38.6562 11.3125 37.2969 12.1406 36.1719 13.2656C35.0469 14.3594 34.1875 15.75 33.5938 17.4375C33 19.0937 32.7031 21.0625 32.7031 23.3438V26.1094C32.7031 33.0781 31.5469 38.7969 29.2344 43.2656C26.9531 47.7031 23.5781 51 19.1094 53.1562C23.5781 55.3125 26.9531 58.625 29.2344 63.0938C31.5469 67.5312 32.7031 73.2344 32.7031 80.2031V82.9688C32.7031 85.25 33 87.2344 33.5938 88.9219C34.1875 90.5781 35.0469 91.9531 36.1719 93.0469C37.2969 94.1719 38.6562 95 40.25 95.5312C41.875 96.0625 43.6875 96.3281 45.6875 96.3281H51.9219V106.312H45.6875C41.2812 106.312 37.5 105.812 34.3438 104.812C31.1875 103.812 28.5938 102.328 26.5625 100.359C24.5312 98.3906 23.0312 95.9531 22.0625 93.0469C21.125 90.1406 20.6562 86.7812 20.6562 82.9688V80.0156ZM66.1719 34.6875H80.0469V39.375C83.5156 37.25 86.8906 35.7812 90.1719 34.9688C93.4844 34.125 96.7188 33.7031 99.875 33.7031C104.281 33.7031 108.328 34.4062 112.016 35.8125C115.703 37.2188 118.859 39.3438 121.484 42.1875C123.516 40.625 125.516 39.3125 127.484 38.25C129.453 37.1562 131.422 36.2812 133.391 35.625C135.359 34.9375 137.359 34.4531 139.391 34.1719C141.422 33.8594 143.516 33.7031 145.672 33.7031C150.203 33.7031 154.312 34.3281 158 35.5781C161.688 36.7969 164.828 38.625 167.422 41.0625C170.047 43.5 172.062 46.5469 173.469 50.2031C174.906 53.8281 175.625 58.0312 175.625 62.8125V90H161.797V65.0625C161.797 62.0312 161.359 59.3281 160.484 56.9531C159.641 54.5469 158.438 52.5312 156.875 50.9062C155.344 49.25 153.5 48 151.344 47.1562C149.219 46.2812 146.875 45.8438 144.312 45.8438C142.906 45.8438 141.469 45.9844 140 46.2656C138.531 46.5156 137.094 46.9219 135.688 47.4844C134.312 48.0469 133.016 48.7656 131.797 49.6406C130.578 50.4844 129.516 51.4844 128.609 52.6406V90H114.781V65.0625C114.781 62.0312 114.344 59.3281 113.469 56.9531C112.625 54.5469 111.422 52.5312 109.859 50.9062C108.328 49.25 106.469 48 104.281 47.1562C102.125 46.2812 99.75 45.8438 97.1562 45.8438C95.5625 45.8438 93.9531 46.0156 92.3281 46.3594C90.7344 46.6719 89.1875 47.125 87.6875 47.7188C86.2188 48.3125 84.8281 49.0312 83.5156 49.875C82.2344 50.7188 81.0781 51.6719 80.0469 52.7344V90H66.1719V34.6875ZM220.906 80.0156V82.9688C220.906 86.7812 220.422 90.1406 219.453 93.0469C218.516 95.9531 217.031 98.3906 215 100.359C212.969 102.328 210.375 103.812 207.219 104.812C204.062 105.812 200.281 106.312 195.875 106.312H189.641V96.3281H195.875C197.875 96.3281 199.672 96.0625 201.266 95.5312C202.891 95 204.266 94.1719 205.391 93.0469C206.516 91.9531 207.375 90.5781 207.969 88.9219C208.562 87.2344 208.859 85.25 208.859 82.9688V80.2031C208.859 73.2344 210 67.5312 212.281 63.0938C214.594 58.625 217.984 55.3125 222.453 53.1562C217.984 51 214.594 47.7031 212.281 43.2656C210 38.7969 208.859 33.0781 208.859 26.1094V23.3438C208.859 21.0625 208.562 19.0937 207.969 17.4375C207.375 15.75 206.516 14.3594 205.391 13.2656C204.266 12.1406 202.891 11.3125 201.266 10.7812C199.672 10.25 197.875 9.98438 195.875 9.98438H189.641V0H195.875C200.281 0 204.062 0.5 207.219 1.5C210.375 2.5 212.969 3.98438 215 5.95312C217.031 7.92188 218.516 10.3594 219.453 13.2656C220.422 16.1719 220.906 19.5313 220.906 23.3438V26.2969C220.906 29.4219 221.312 32.375 222.125 35.1562C222.969 37.9375 224.234 40.4844 225.922 42.7969C227.609 45.0781 229.75 47.0938 232.344 48.8438C234.938 50.5938 238 52.0312 241.531 53.1562C238 54.2812 234.938 55.7344 232.344 57.5156C229.75 59.2656 227.609 61.2969 225.922 63.6094C224.234 65.8906 222.969 68.4219 222.125 71.2031C221.312 73.9531 220.906 76.8906 220.906 80.0156Z" fill="#B000FF"/>
</svg>
