<?xml version="1.0" encoding="UTF-8" standalone="no" ?>
<!DOCTYPE svg PUBLIC "-//W3C//DTD SVG 1.1//EN" "http://www.w3.org/Graphics/SVG/1.1/DTD/svg11.dtd">
<svg xmlns="http://www.w3.org/2000/svg" xmlns:xlink="http://www.w3.org/1999/xlink" version="1.1" width="1080" height="1080" viewBox="0 0 1080 1080" xml:space="preserve">
<desc>Created with Fabric.js 5.2.4</desc>
<defs>
</defs>
<g transform="matrix(1 0 0 1 540 540)" id="9870dfe9-a44f-40d9-9bc2-979778465c1c"  >
<rect style="stroke: none; stroke-width: 1; stroke-dasharray: none; stroke-linecap: butt; stroke-dashoffset: 0; stroke-linejoin: miter; stroke-miterlimit: 4; fill: rgb(255,255,255); fill-rule: nonzero; opacity: 1; visibility: hidden;" vector-effect="non-scaling-stroke"  x="-540" y="-540" rx="0" ry="0" width="1080" height="1080" />
</g>
<g transform="matrix(1 0 0 1 540 540)" id="9faeabfb-2a18-45a5-85c4-af4ebdfaa6d8"  >
</g>
<g transform="matrix(5.4 0 0 5.4 540 540)"  >
<path style="stroke: none; stroke-width: 1; stroke-dasharray: none; stroke-linecap: butt; stroke-dashoffset: 0; stroke-linejoin: miter; stroke-miterlimit: 4; fill: rgb(38,38,38); fill-rule: nonzero; opacity: 1;"  transform=" translate(-99.22, -65.48)" d="M 92 12.5 C 80.2 24.4 79.6 25.1 81.3 26.7 C 82.89999999999999 28.4 83.7 27.8 95.6 15.899999999999999 C 107.5 3.8999999999999986 108 3.299999999999999 106.3 1.6999999999999993 C 104.5 0.0999999999999992 103.8 0.6999999999999993 92 12.5 z M 104.5 19 C 93.2 30.4 92.6 31.1 94.3 32.7 C 95.89999999999999 34.400000000000006 96.7 33.800000000000004 108.5 22.000000000000004 C 118.1 12.500000000000004 120.7 9.300000000000004 119.8 8.300000000000004 C 119.2 7.600000000000004 118.2 7.000000000000004 117.6 7.000000000000004 C 117 7.000000000000004 111.1 12.400000000000006 104.5 19.000000000000004 z M 92.6 21 C 82.5 31.1 80.9 33.2 82 34.5 C 82.7 35.3 83.8 36 84.4 36 C 85 36 90.9 30.6 97.4 24.1 C 107.7 13.8 109.2 11.900000000000002 108.10000000000001 10.600000000000001 C 107.30000000000001 9.700000000000001 106.2 9.000000000000002 105.60000000000001 9.000000000000002 C 104.9 9.000000000000002 99.10000000000001 14.400000000000002 92.60000000000001 21 z M 38.2 51.2 C 35.400000000000006 54 37.5 59 41.5 59 C 44.2 59 46 57.2 46 54.3 C 46 50.8 40.7 48.699999999999996 38.2 51.199999999999996 z M 116.6 52.2 C 115.3 54.1 115.19999999999999 54.7 116.39999999999999 56.5 C 118.89999999999999 60.3 124.99999999999999 59.2 124.99999999999999 54.9 C 124.99999999999999 52.6 122.39999999999999 50 119.99999999999999 50 C 118.99999999999999 50 117.39999999999999 51 116.59999999999998 52.2 z M 158.8 51.1 C 155.20000000000002 53.2 157.20000000000002 59 161.5 59 C 165.9 59 167.8 53 164.1 51 C 161.7 49.8 161 49.8 158.79999999999998 51.1 z M 0 76.5 L 0 95.2 L 9.8 94.8 C 17.8 94.5 20.200000000000003 94 23.3 92.1 C 33.6 85.69999999999999 34.4 67.89999999999999 24.7 60.599999999999994 C 22.3 58.8 20.2 58.39999999999999 10.899999999999999 58.199999999999996 L 0 57.8 L 0 76.5 z M 19.5 68.5 C 21.5 70.4 22 71.9 22 75.9 C 22 82.5 19.2 85.9 13.2 86.7 L 9 87.3 L 9 66 L 13 66 C 16 66 17.7 66.7 19.5 68.5 z M 58 63.7 C 52.9 66.3 50 71.2 50 77.2 C 50 87.7 55.6 93.5 64.8 92.60000000000001 C 70.5 92.10000000000001 71.6 93.30000000000001 68 96.50000000000001 C 65.9 98.40000000000002 62.1 98.90000000000002 57.8 97.70000000000002 C 55.4 97.10000000000002 54.9 97.40000000000002 53.4 100.10000000000002 C 51.5 103.90000000000002 52 104.40000000000002 59.3 106.00000000000003 C 67.6 107.70000000000003 72.6 105.40000000000003 76.1 98.40000000000003 C 78 94.50000000000003 78.19999999999999 92.10000000000004 78.39999999999999 78.70000000000003 L 78.49999999999999 63.50000000000003 L 75.09999999999998 63.20000000000003 C 73.09999999999998 63.00000000000003 71.39999999999998 63.400000000000034 70.89999999999998 64.10000000000004 C 70.39999999999998 65.00000000000004 69.79999999999998 65.10000000000004 68.79999999999998 64.30000000000004 C 66.19999999999999 62.20000000000004 61.59999999999998 61.90000000000004 57.999999999999986 63.70000000000004 z M 69.4 72.2 C 71.5 75.10000000000001 71.4 81.4 69.4 83.4 C 65.4 87.4 58.800000000000004 83.80000000000001 58.800000000000004 77.5 C 58.800000000000004 70.9 66 67.3 69.4 72.2 z M 98.3 62.7 C 97.1 62.900000000000006 95.6 63.800000000000004 95 64.60000000000001 C 93.4 66.4 92 66.4 92 64.50000000000001 C 92 63.40000000000001 90.9 63.000000000000014 88 63.000000000000014 L 84 63.000000000000014 L 84 95.00000000000001 L 92 95.00000000000001 L 92 85.70000000000002 C 92 75.4 93.4 72 97.5 72 C 101.1 72 102 74.8 102 85.4 L 102 95 L 110 95 L 110 83.1 C 110 76.6 109.5 69.89999999999999 108.9 68.1 C 107.9 65.3 103.4 61.8 101.30000000000001 62.099999999999994 C 100.9 62.199999999999996 99.50000000000001 62.49999999999999 98.30000000000001 62.699999999999996 z M 138.3 62.7 C 137.10000000000002 62.900000000000006 135 64.2 133.60000000000002 65.5 C 131.60000000000002 67.4 131.00000000000003 68.9 131.00000000000003 72.3 C 131.00000000000003 77.2 132.40000000000003 79 138.30000000000004 81.5 C 147.10000000000005 85.2 142.80000000000004 89.5 133.40000000000003 86.5 C 131.70000000000005 86 131.10000000000002 86.4 130.00000000000003 89 C 128.40000000000003 92.9 129.20000000000002 93.7 135.70000000000002 94.9 C 141.8 96.10000000000001 146.8 95 149.70000000000002 91.80000000000001 C 155.00000000000003 86.00000000000001 153.4 80.30000000000001 145.3 76.50000000000001 C 141.4 74.60000000000001 140 73.40000000000002 140.20000000000002 72.20000000000002 C 140.50000000000003 70.90000000000002 141.60000000000002 70.50000000000001 145.3 70.50000000000001 C 150 70.50000000000001 151.9 69.20000000000002 152 66.30000000000001 C 152 63.90000000000001 143.5 61.60000000000001 138.3 62.70000000000001 z M 178 63.2 C 172.6 64.7 170.9 66.7 172.3 69.7 C 173.10000000000002 71.60000000000001 173.9 72 175.4 71.4 C 180 69.9 185.20000000000002 70.4 186.6 72.60000000000001 C 188 74.7 188 74.7 182 74.60000000000001 C 176.3 74.50000000000001 175.6 74.7 172.9 77.80000000000001 C 168.3 82.9 169.3 91.20000000000002 174.70000000000002 94.10000000000001 C 177.8 95.80000000000001 184.4 95.7 186.50000000000003 94.00000000000001 C 187.70000000000002 93.00000000000001 188.80000000000004 93.10000000000001 191.90000000000003 94.30000000000001 C 194.90000000000003 95.60000000000001 196.00000000000003 95.60000000000001 196.80000000000004 94.70000000000002 C 198.60000000000005 92.30000000000001 199.00000000000003 89.80000000000001 197.60000000000005 88.50000000000001 C 196.90000000000006 87.70000000000002 196.10000000000005 83.90000000000002 195.70000000000005 79.70000000000002 C 195.40000000000003 75.60000000000002 194.40000000000003 70.80000000000001 193.60000000000005 69.10000000000002 C 190.70000000000005 63.60000000000002 184.60000000000005 61.300000000000026 178.00000000000006 63.200000000000024 z M 186.1 81 C 189.1 82.6 188.6 86.8 185.29999999999998 88.1 C 181.49999999999997 89.5 177.99999999999997 87.8 177.99999999999997 84.6 C 177.99999999999997 80.8 182.09999999999997 78.89999999999999 186.09999999999997 81 z M 37 79 L 37 95 L 45 95 L 45 63 L 37 63 L 37 79 z M 116 79 L 116 95 L 124 95 L 124 63 L 116 63 L 116 79 z M 157 79 L 157 95 L 166 95 L 166 63 L 157 63 L 157 79 z M 20.5 121 C 19 122.6 18.8 123.6 19.6 125.7 C 20.6 128.7 24 130.3 26.1 128.8 C 27.200000000000003 128 27.200000000000003 127.9 25.8 128.4 C 24.900000000000002 128.70000000000002 23.1 128.1 21.8 127.10000000000001 C 19.900000000000002 125.50000000000001 19.7 124.9 20.7 122.7 C 21.5 121.10000000000001 22.9 120 24.7 119.7 C 27.5 119.3 27.5 119.3 24.9 119.10000000000001 C 23.4 119.10000000000001 21.5 119.9 20.5 121.00000000000001 z M 30.1 124.2 C 30.200000000000003 127.10000000000001 30.5 128.5 30.700000000000003 127.2 C 31.300000000000004 124.4 33.300000000000004 124.4 35.400000000000006 127.3 L 37.10000000000001 129.5 L 36.00000000000001 127.2 C 35.10000000000001 125.5 35.20000000000001 124.5 36.00000000000001 123.4 C 37.900000000000006 121.2 36.400000000000006 119 33.00000000000001 119 C 30.000000000000007 119 30.000000000000007 119 30.10000000000001 124.2 z M 35.5 122 C 35.5 122.8 34.5 123.6 33.3 123.8 C 31.499999999999996 124.1 30.999999999999996 123.6 30.999999999999996 122 C 30.999999999999996 120.4 31.499999999999996 119.9 33.3 120.2 C 34.5 120.4 35.5 121.2 35.5 122 z M 40 124 L 40 129 L 43.3 128.9 C 46.3 128.70000000000002 46.3 128.70000000000002 43.8 128.3 C 40.3 127.80000000000001 39.9 124.30000000000001 43.3 123.70000000000002 L 45.5 123.30000000000001 L 43.3 123.10000000000001 C 40 122.9 40.4 120.2 43.8 119.7 C 46.3 119.3 46.3 119.3 43.3 119.10000000000001 L 40 119 L 40 124 z M 49 124 C 49 128.9 49.1 129 52 129 C 54.3 129 55.3 128.4 56.2 126.5 C 57.900000000000006 122.7 55.900000000000006 119 52 119 C 49.1 119 49 119.1 49 124 z M 55.4 122.2 C 56.8 124.5 55.1 127.4 52.1 127.8 C 50.2 128.1 50 127.7 50 124 C 50 120.3 50.2 119.9 52.1 120.2 C 53.300000000000004 120.4 54.800000000000004 121.3 55.4 122.2 z M 59.3 124 C 59.3 127 59.5 128.3 59.699999999999996 126.8 C 59.9 125.2 59.9 122.8 59.699999999999996 121.3 C 59.49999999999999 119.7 59.3 121 59.3 124 z M 64.2 119.7 C 65.4 120 66 121.5 66.3 124.8 L 66.6 129.5 L 66.8 124.8 C 67 120.8 67.3 120.1 69.3 119.7 C 70.5 119.5 69.5 119.3 67 119.3 C 64.5 119.2 63.3 119.39999999999999 64.2 119.7 z M 78.3 124 C 78.3 127 78.5 128.3 78.7 126.8 C 78.9 125.2 78.9 122.8 78.7 121.3 C 78.5 119.7 78.3 121 78.3 124 z M 82.1 124.2 C 82.3 129.4 82.3 129.4 82.89999999999999 125.5 L 83.49999999999999 121.6 L 84.79999999999998 124.39999999999999 C 85.49999999999999 125.99999999999999 86.29999999999998 126.99999999999999 86.59999999999998 126.8 C 87.09999999999998 126.3 83.19999999999997 119 82.39999999999998 119 C 82.19999999999997 119 82.09999999999998 121.4 82.09999999999998 124.2 z M 87.9 123.5 C 87.4 128.5 87.5 129.8 88.60000000000001 128.8 C 88.9 128.5 89.00000000000001 126.00000000000001 88.80000000000001 123.4 L 88.50000000000001 118.5 L 87.90000000000002 123.5 z M 92.7 119.7 C 94.5 120.10000000000001 95 120.9 95.3 124.8 L 95.6 129.5 L 95.8 124.8 C 96 121.3 96.39999999999999 120 97.8 119.7 C 98.7 119.4 97.5 119.2 95 119.3 C 92.5 119.3 91.5 119.5 92.7 119.7 z M 102 124 C 102 128.8 102.1 129 104.8 128.9 C 107.1 128.70000000000002 107.2 128.70000000000002 105.3 128.3 C 102.6 127.80000000000001 102.2 124.4 104.8 123.70000000000002 C 106.39999999999999 123.30000000000001 106.39999999999999 123.20000000000002 104.8 123.10000000000002 C 101.89999999999999 122.90000000000002 102.7 120.20000000000002 105.8 119.70000000000002 C 108.3 119.30000000000001 108.3 119.30000000000001 105.3 119.10000000000002 L 102 119.00000000000003 L 102 124.00000000000003 z M 111.2 123.7 C 111 128.6 111.2 129 113.3 128.9 C 114.89999999999999 128.8 115 128.6 113.8 128.3 C 112.6 128.00000000000003 112 126.50000000000001 111.7 123.20000000000002 L 111.4 118.50000000000001 L 111.2 123.70000000000002 z M 118.2 123.7 C 118 128.6 118.2 129 120.3 128.9 C 121.89999999999999 128.8 122 128.6 120.8 128.3 C 119.6 128.00000000000003 119 126.50000000000001 118.7 123.20000000000002 L 118.4 118.50000000000001 L 118.2 123.70000000000002 z M 125.3 124 C 125.3 127 125.5 128.3 125.7 126.8 C 125.9 125.2 125.9 122.8 125.7 121.3 C 125.5 119.7 125.3 121 125.3 124 z M 130.6 120.6 C 128.1 123.1 128.79999999999998 127.3 132 129 C 134.1 130.1 137 129.4 137 127.8 C 137 127.1 136.5 127.2 135.7 127.8 C 134.7 128.7 133.79999999999998 128.5 132.2 127.39999999999999 C 128.29999999999998 124.69999999999999 129.79999999999998 120.69999999999999 135 119.69999999999999 L 137.5 119.29999999999998 L 134.8 119.09999999999998 C 133.3 119.09999999999998 131.4 119.69999999999997 130.60000000000002 120.59999999999998 z M 140 124 L 140 129 L 143.3 128.9 C 146.3 128.70000000000002 146.3 128.70000000000002 143.8 128.3 C 140.3 127.80000000000001 139.9 124.30000000000001 143.3 123.70000000000002 L 145.5 123.30000000000001 L 143.3 123.10000000000001 C 140 122.9 140.4 120.2 143.8 119.7 C 146.3 119.3 146.3 119.3 143.3 119.10000000000001 L 140 119.00000000000001 L 140 124.00000000000001 z M 149.1 124.2 C 149.29999999999998 129.4 149.29999999999998 129.4 149.9 125.5 C 150.5 121.6 150.6 121.6 151.8 123.8 C 152.60000000000002 125.1 153.4 126 153.60000000000002 125.7 C 154.20000000000002 125.10000000000001 150.70000000000002 119 149.8 119 C 149.3 119 149.10000000000002 121.4 149.10000000000002 124.2 z M 154.8 123.2 C 154.5 125.60000000000001 154.70000000000002 127.9 155.10000000000002 128.5 C 155.60000000000002 129 156.00000000000003 127.1 156.00000000000003 124.2 C 156.00000000000003 117.9 155.40000000000003 117.4 154.80000000000004 123.2 z M 160.6 120.6 C 158.4 122.69999999999999 158.6 125.6 161 128 C 163.3 130.3 163.9 130.4 166 128.9 C 167.3 128 167.3 127.9 165.9 128.3 C 163.70000000000002 129 160 126.30000000000001 160 124.10000000000001 C 160 121.80000000000001 161.7 120.30000000000001 165 119.7 L 167.5 119.3 L 164.8 119.1 C 163.3 119.1 161.4 119.69999999999999 160.60000000000002 120.6 z M 170 124 L 170 129 L 173.3 128.9 C 176.3 128.70000000000002 176.3 128.70000000000002 173.8 128.3 C 170.3 127.80000000000001 169.9 124.30000000000001 173.3 123.70000000000002 L 175.5 123.30000000000001 L 173.3 123.10000000000001 C 170 122.9 170.4 120.2 173.8 119.7 C 176.3 119.3 176.3 119.3 173.3 119.10000000000001 L 170 119.00000000000001 L 170 124.00000000000001 z" stroke-linecap="round" />
</g>
</svg>