<svg width="1269" height="835" viewBox="0 0 1269 835" fill="none" xmlns="http://www.w3.org/2000/svg">
<ellipse cx="1182.5" cy="655.5" rx="86.5" ry="85.5" fill="#E7E7E7"/>
<ellipse cx="86.5" cy="594.5" rx="86.5" ry="85.5" fill="#E7E7E7"/>
<ellipse cx="719.5" cy="150.5" rx="86.5" ry="85.5" fill="#E7E7E7"/>
<ellipse cx="413" cy="106.5" rx="28" ry="27.5" fill="#E7E7E7"/>
<rect x="132" y="12" width="53" height="202" fill="white"/>
<circle cx="158" cy="273" r="37" fill="white"/>
<rect x="429" y="259" width="53" height="141" fill="white"/>
<rect x="1117" y="1" width="53" height="202" fill="white"/>
<circle cx="1143" cy="262" r="37" fill="white"/>
<rect x="604.054" y="73" width="24.3514" height="92.8108" fill="#41005F" fill-opacity="0.37"/>
<circle cx="616" cy="192.919" r="17" fill="#41005F" fill-opacity="0.37"/>
<rect x="402.932" y="228" width="9.31081" height="35.4865" fill="#41005F" fill-opacity="0.37"/>
<circle cx="407.5" cy="273.851" r="6.5" fill="#41005F" fill-opacity="0.37"/>
<path d="M1134 262H1057V133H1134V262Z" fill="#8418B5" stroke="#8418B5"/>
<path d="M1073.78 238V251" stroke="#00FFB0" stroke-width="3"/>
<path d="M1081 244.314H1068" stroke="#00FFB0" stroke-width="3"/>
<rect x="1107.93" y="143" width="9.31081" height="33.8926" fill="#00FFB0"/>
<ellipse cx="1112.5" cy="186.792" rx="6.5" ry="6.20805" fill="#00FFB0"/>
<path d="M800 624V807H417.99L369 766.016V624H800Z" stroke="black"/>
<path d="M417.99 806.047L369.55 765.539H417.99V806.047Z" fill="#680096" stroke="#680096"/>
<path d="M395.889 644V664" stroke="#00FFB0" stroke-width="3"/>
<path d="M407 653.714H387" stroke="#00FFB0" stroke-width="3"/>
<path d="M576.779 692.102C576.779 690.441 577.141 688.928 577.863 687.561C578.586 686.193 579.67 685.021 581.115 684.045C582.561 683.049 584.357 682.287 586.506 681.76C588.674 681.213 591.193 680.939 594.064 680.939C596.193 680.939 598.43 681.096 600.773 681.408C603.137 681.721 605.568 682.199 608.068 682.844C607.971 681.75 607.639 680.744 607.072 679.826C606.506 678.889 605.715 678.088 604.699 677.424C603.703 676.74 602.492 676.213 601.066 675.842C599.66 675.471 598.059 675.285 596.262 675.285C595.285 675.285 594.211 675.344 593.039 675.461C591.867 675.578 590.656 675.754 589.406 675.988C588.156 676.223 586.916 676.516 585.686 676.867C584.475 677.219 583.342 677.639 582.287 678.127L579.65 671.008C580.959 670.539 582.355 670.109 583.84 669.719C585.344 669.328 586.877 668.996 588.439 668.723C590.002 668.43 591.564 668.205 593.127 668.049C594.689 667.893 596.203 667.814 597.668 667.814C604.133 667.814 608.938 669.465 612.082 672.766C615.227 676.066 616.799 681.125 616.799 687.941V703H608.127V699.748C607.229 700.275 606.242 700.773 605.168 701.242C604.113 701.711 602.961 702.121 601.711 702.473C600.461 702.824 599.113 703.098 597.668 703.293C596.242 703.508 594.729 703.615 593.127 703.615C590.432 703.615 588.059 703.322 586.008 702.736C583.977 702.15 582.277 701.34 580.91 700.305C579.543 699.27 578.508 698.059 577.805 696.672C577.121 695.266 576.779 693.742 576.779 692.102ZM585.92 691.809C585.92 692.375 586.066 692.922 586.359 693.449C586.652 693.957 587.121 694.416 587.766 694.826C588.41 695.217 589.23 695.539 590.227 695.793C591.242 696.027 592.463 696.145 593.889 696.145C595.412 696.145 596.887 696.008 598.312 695.734C599.738 695.461 601.066 695.1 602.297 694.65C603.527 694.201 604.641 693.684 605.637 693.098C606.633 692.512 607.463 691.906 608.127 691.281V689.758C606.799 689.387 605.48 689.074 604.172 688.82C602.883 688.566 601.643 688.371 600.451 688.234C599.279 688.078 598.166 687.971 597.111 687.912C596.076 687.854 595.168 687.824 594.387 687.824C592.766 687.824 591.418 687.932 590.344 688.146C589.27 688.361 588.4 688.654 587.736 689.025C587.072 689.377 586.604 689.797 586.33 690.285C586.057 690.773 585.92 691.281 585.92 691.809Z" fill="#00FFB0"/>
<path d="M581.115 684.045L581.675 684.874L581.683 684.868L581.115 684.045ZM586.506 681.76L586.744 682.731L586.75 682.729L586.506 681.76ZM600.773 681.408L600.641 682.399L600.642 682.4L600.773 681.408ZM608.068 682.844L607.819 683.812L609.19 684.166L609.064 682.755L608.068 682.844ZM607.072 679.826L606.216 680.343L606.221 680.351L607.072 679.826ZM604.699 677.424L604.133 678.248L604.143 678.255L604.152 678.261L604.699 677.424ZM601.066 675.842L600.811 676.809L600.815 676.81L601.066 675.842ZM589.406 675.988L589.222 675.005L589.406 675.988ZM585.686 676.867L585.411 675.906L585.407 675.907L585.686 676.867ZM582.287 678.127L581.349 678.474L581.725 679.489L582.707 679.034L582.287 678.127ZM579.65 671.008L579.313 670.066L578.362 670.407L578.713 671.355L579.65 671.008ZM583.84 669.719L583.588 668.751L583.585 668.752L583.84 669.719ZM588.439 668.723L588.612 669.708L588.624 669.706L588.439 668.723ZM616.799 703V704H617.799V703H616.799ZM608.127 703H607.127V704H608.127V703ZM608.127 699.748H609.127V698.002L607.621 698.886L608.127 699.748ZM605.168 701.242L604.768 700.326L604.762 700.328L605.168 701.242ZM597.668 703.293L597.534 702.302L597.527 702.303L597.519 702.304L597.668 703.293ZM586.008 702.736L585.731 703.697L585.733 703.698L586.008 702.736ZM577.805 696.672L576.905 697.109L576.909 697.117L576.913 697.124L577.805 696.672ZM586.359 693.449L585.485 693.935L585.489 693.942L585.493 693.949L586.359 693.449ZM587.766 694.826L587.229 695.67L587.238 695.676L587.247 695.681L587.766 694.826ZM590.227 695.793L589.98 696.762L589.991 696.765L590.002 696.767L590.227 695.793ZM598.312 695.734L598.124 694.752L598.312 695.734ZM602.297 694.65L602.64 695.59L602.297 694.65ZM608.127 691.281L608.812 692.009L609.127 691.713V691.281H608.127ZM608.127 689.758H609.127V688.999L608.396 688.795L608.127 689.758ZM604.172 688.82L603.979 689.801L603.981 689.802L604.172 688.82ZM600.451 688.234L600.319 689.226L600.328 689.227L600.337 689.228L600.451 688.234ZM597.111 687.912L597.055 688.911L597.056 688.911L597.111 687.912ZM590.344 688.146L590.54 689.127L590.344 688.146ZM587.736 689.025L588.204 689.909L588.214 689.904L588.224 689.898L587.736 689.025ZM577.779 692.102C577.779 690.592 578.106 689.241 578.747 688.028L576.979 687.093C576.175 688.615 575.779 690.291 575.779 692.102H577.779ZM578.747 688.028C579.384 686.824 580.348 685.77 581.675 684.874L580.555 683.216C578.992 684.273 577.788 685.563 576.979 687.093L578.747 688.028ZM581.683 684.868C583.006 683.956 584.684 683.237 586.744 682.731L586.267 680.789C584.031 681.338 582.115 682.141 580.548 683.222L581.683 684.868ZM586.75 682.729C588.82 682.207 591.254 681.939 594.064 681.939V679.939C591.133 679.939 588.528 680.218 586.261 680.79L586.75 682.729ZM594.064 681.939C596.145 681.939 598.337 682.092 600.641 682.399L600.906 680.417C598.523 680.099 596.242 679.939 594.064 679.939V681.939ZM600.642 682.4C602.963 682.706 605.355 683.177 607.819 683.812L608.318 681.875C605.782 681.222 603.311 680.735 600.905 680.417L600.642 682.4ZM609.064 682.755C608.953 681.509 608.573 680.354 607.923 679.301L606.221 680.351C606.705 681.135 606.988 681.991 607.072 682.933L609.064 682.755ZM607.928 679.309C607.276 678.23 606.374 677.324 605.246 676.587L604.152 678.261C605.056 678.852 605.736 679.548 606.216 680.343L607.928 679.309ZM605.265 676.599C604.155 675.838 602.832 675.268 601.318 674.874L600.815 676.81C602.152 677.158 603.251 677.643 604.133 678.248L605.265 676.599ZM601.322 674.875C599.815 674.477 598.125 674.285 596.262 674.285V676.285C597.992 676.285 599.505 676.464 600.811 676.809L601.322 674.875ZM596.262 674.285C595.246 674.285 594.138 674.346 592.94 674.466L593.139 676.456C594.284 676.341 595.324 676.285 596.262 676.285V674.285ZM592.94 674.466C591.737 674.586 590.498 674.766 589.222 675.005L589.591 676.971C590.815 676.742 591.997 676.57 593.139 676.456L592.94 674.466ZM589.222 675.005C587.941 675.246 586.671 675.546 585.411 675.906L585.96 677.829C587.161 677.486 588.371 677.2 589.591 676.971L589.222 675.005ZM585.407 675.907C584.151 676.271 582.971 676.708 581.867 677.219L582.707 679.034C583.713 678.569 584.798 678.166 585.964 677.828L585.407 675.907ZM583.225 677.78L580.588 670.66L578.713 671.355L581.349 678.474L583.225 677.78ZM579.988 671.949C581.266 671.491 582.635 671.07 584.094 670.686L583.585 668.752C582.076 669.149 580.652 669.587 579.313 670.066L579.988 671.949ZM584.091 670.687C585.569 670.303 587.075 669.977 588.612 669.708L588.267 667.738C586.679 668.016 585.119 668.353 583.588 668.751L584.091 670.687ZM588.624 669.706C590.159 669.418 591.693 669.197 593.226 669.044L593.027 667.054C591.436 667.213 589.845 667.442 588.255 667.74L588.624 669.706ZM593.226 669.044C594.758 668.891 596.239 668.814 597.668 668.814V666.814C596.168 666.814 594.621 666.894 593.027 667.054L593.226 669.044ZM597.668 668.814C603.976 668.814 608.47 670.424 611.358 673.455L612.806 672.076C609.405 668.506 604.29 666.814 597.668 666.814V668.814ZM611.358 673.455C614.255 676.496 615.799 681.257 615.799 687.941H617.799C617.799 680.993 616.198 675.637 612.806 672.076L611.358 673.455ZM615.799 687.941V703H617.799V687.941H615.799ZM616.799 702H608.127V704H616.799V702ZM609.127 703V699.748H607.127V703H609.127ZM607.621 698.886C606.761 699.391 605.81 699.871 604.768 700.326L605.568 702.159C606.674 701.676 607.696 701.16 608.633 700.61L607.621 698.886ZM604.762 700.328C603.756 700.775 602.65 701.17 601.44 701.51L601.982 703.435C603.272 703.072 604.47 702.646 605.574 702.156L604.762 700.328ZM601.44 701.51C600.24 701.848 598.939 702.112 597.534 702.302L597.802 704.284C599.288 704.083 600.682 703.801 601.982 703.435L601.44 701.51ZM597.519 702.304C596.148 702.511 594.684 702.615 593.127 702.615V704.615C594.773 704.615 596.337 704.505 597.817 704.282L597.519 702.304ZM593.127 702.615C590.501 702.615 588.224 702.33 586.283 701.775L585.733 703.698C587.893 704.315 590.362 704.615 593.127 704.615V702.615ZM586.285 701.776C584.345 701.216 582.763 700.453 581.514 699.507L580.307 701.102C581.791 702.226 583.608 703.085 585.731 703.697L586.285 701.776ZM581.514 699.507C580.255 698.554 579.324 697.458 578.697 696.22L576.913 697.124C577.691 698.66 578.831 699.985 580.307 701.102L581.514 699.507ZM578.704 696.235C578.09 694.971 577.779 693.598 577.779 692.102H575.779C575.779 693.886 576.152 695.56 576.905 697.109L578.704 696.235ZM584.92 691.809C584.92 692.556 585.115 693.269 585.485 693.935L587.234 692.964C587.018 692.575 586.92 692.194 586.92 691.809H584.92ZM585.493 693.949C585.887 694.632 586.488 695.199 587.229 695.67L588.303 693.983C587.754 693.633 587.417 693.282 587.226 692.949L585.493 693.949ZM587.247 695.681C588.001 696.138 588.92 696.492 589.98 696.762L590.474 694.824C589.541 694.586 588.82 694.296 588.284 693.971L587.247 695.681ZM590.002 696.767C591.112 697.024 592.413 697.145 593.889 697.145V695.145C592.513 695.145 591.372 695.031 590.451 694.819L590.002 696.767ZM593.889 697.145C595.472 697.145 597.01 697.002 598.501 696.716L598.124 694.752C596.763 695.013 595.352 695.145 593.889 695.145V697.145ZM598.501 696.716C599.974 696.434 601.354 696.059 602.64 695.59L601.954 693.711C600.779 694.14 599.503 694.488 598.124 694.752L598.501 696.716ZM602.64 695.59C603.92 695.122 605.089 694.58 606.144 693.96L605.13 692.236C604.192 692.787 603.135 693.28 601.954 693.711L602.64 695.59ZM606.144 693.96C607.188 693.345 608.082 692.697 608.812 692.009L607.442 690.553C606.844 691.116 606.078 691.678 605.13 692.236L606.144 693.96ZM609.127 691.281V689.758H607.127V691.281H609.127ZM608.396 688.795C607.043 688.417 605.698 688.098 604.362 687.839L603.981 689.802C605.263 690.051 606.555 690.357 607.858 690.721L608.396 688.795ZM604.365 687.839C603.052 687.581 601.786 687.381 600.565 687.241L600.337 689.228C601.5 689.361 602.713 689.552 603.979 689.801L604.365 687.839ZM600.583 687.243C599.389 687.084 598.25 686.974 597.167 686.914L597.056 688.911C598.082 688.968 599.17 689.072 600.319 689.226L600.583 687.243ZM597.168 686.914C596.12 686.854 595.192 686.824 594.387 686.824V688.824C595.144 688.824 596.033 688.853 597.055 688.911L597.168 686.914ZM594.387 686.824C592.728 686.824 591.309 686.934 590.148 687.166L590.54 689.127C591.527 688.93 592.803 688.824 594.387 688.824V686.824ZM590.148 687.166C589.012 687.393 588.034 687.713 587.249 688.152L588.224 689.898C588.767 689.595 589.527 689.33 590.54 689.127L590.148 687.166ZM587.268 688.142C586.491 688.553 585.852 689.092 585.458 689.797L587.203 690.774C587.355 690.502 587.653 690.201 588.204 689.909L587.268 688.142ZM585.458 689.797C585.106 690.425 584.92 691.1 584.92 691.809H586.92C586.92 691.463 587.007 691.122 587.203 690.774L585.458 689.797Z" fill="#00FFB0"/>
<path d="M632.779 746.102C632.779 744.441 633.141 742.928 633.863 741.561C634.586 740.193 635.67 739.021 637.115 738.045C638.561 737.049 640.357 736.287 642.506 735.76C644.674 735.213 647.193 734.939 650.064 734.939C652.193 734.939 654.43 735.096 656.773 735.408C659.137 735.721 661.568 736.199 664.068 736.844C663.971 735.75 663.639 734.744 663.072 733.826C662.506 732.889 661.715 732.088 660.699 731.424C659.703 730.74 658.492 730.213 657.066 729.842C655.66 729.471 654.059 729.285 652.262 729.285C651.285 729.285 650.211 729.344 649.039 729.461C647.867 729.578 646.656 729.754 645.406 729.988C644.156 730.223 642.916 730.516 641.686 730.867C640.475 731.219 639.342 731.639 638.287 732.127L635.65 725.008C636.959 724.539 638.355 724.109 639.84 723.719C641.344 723.328 642.877 722.996 644.439 722.723C646.002 722.43 647.564 722.205 649.127 722.049C650.689 721.893 652.203 721.814 653.668 721.814C660.133 721.814 664.938 723.465 668.082 726.766C671.227 730.066 672.799 735.125 672.799 741.941V757H664.127V753.748C663.229 754.275 662.242 754.773 661.168 755.242C660.113 755.711 658.961 756.121 657.711 756.473C656.461 756.824 655.113 757.098 653.668 757.293C652.242 757.508 650.729 757.615 649.127 757.615C646.432 757.615 644.059 757.322 642.008 756.736C639.977 756.15 638.277 755.34 636.91 754.305C635.543 753.27 634.508 752.059 633.805 750.672C633.121 749.266 632.779 747.742 632.779 746.102ZM641.92 745.809C641.92 746.375 642.066 746.922 642.359 747.449C642.652 747.957 643.121 748.416 643.766 748.826C644.41 749.217 645.23 749.539 646.227 749.793C647.242 750.027 648.463 750.145 649.889 750.145C651.412 750.145 652.887 750.008 654.312 749.734C655.738 749.461 657.066 749.1 658.297 748.65C659.527 748.201 660.641 747.684 661.637 747.098C662.633 746.512 663.463 745.906 664.127 745.281V743.758C662.799 743.387 661.48 743.074 660.172 742.82C658.883 742.566 657.643 742.371 656.451 742.234C655.279 742.078 654.166 741.971 653.111 741.912C652.076 741.854 651.168 741.824 650.387 741.824C648.766 741.824 647.418 741.932 646.344 742.146C645.27 742.361 644.4 742.654 643.736 743.025C643.072 743.377 642.604 743.797 642.33 744.285C642.057 744.773 641.92 745.281 641.92 745.809Z" fill="#00FFB0"/>
<path d="M637.115 738.045L637.675 738.874L637.683 738.868L637.115 738.045ZM642.506 735.76L642.744 736.731L642.75 736.729L642.506 735.76ZM656.773 735.408L656.641 736.399L656.642 736.4L656.773 735.408ZM664.068 736.844L663.819 737.812L665.19 738.166L665.064 736.755L664.068 736.844ZM663.072 733.826L662.216 734.343L662.221 734.351L663.072 733.826ZM660.699 731.424L660.133 732.248L660.143 732.255L660.152 732.261L660.699 731.424ZM657.066 729.842L656.811 730.809L656.815 730.81L657.066 729.842ZM645.406 729.988L645.222 729.005L645.406 729.988ZM641.686 730.867L641.411 729.906L641.407 729.907L641.686 730.867ZM638.287 732.127L637.349 732.474L637.725 733.489L638.707 733.034L638.287 732.127ZM635.65 725.008L635.313 724.066L634.362 724.407L634.713 725.355L635.65 725.008ZM639.84 723.719L639.588 722.751L639.585 722.752L639.84 723.719ZM644.439 722.723L644.612 723.708L644.624 723.706L644.439 722.723ZM672.799 757V758H673.799V757H672.799ZM664.127 757H663.127V758H664.127V757ZM664.127 753.748H665.127V752.002L663.621 752.886L664.127 753.748ZM661.168 755.242L660.768 754.326L660.762 754.328L661.168 755.242ZM653.668 757.293L653.534 756.302L653.527 756.303L653.519 756.304L653.668 757.293ZM642.008 756.736L641.731 757.697L641.733 757.698L642.008 756.736ZM633.805 750.672L632.905 751.109L632.909 751.117L632.913 751.124L633.805 750.672ZM642.359 747.449L641.485 747.935L641.489 747.942L641.493 747.949L642.359 747.449ZM643.766 748.826L643.229 749.67L643.238 749.676L643.247 749.681L643.766 748.826ZM646.227 749.793L645.98 750.762L645.991 750.765L646.002 750.767L646.227 749.793ZM654.312 749.734L654.124 748.752L654.312 749.734ZM658.297 748.65L658.64 749.59L658.297 748.65ZM664.127 745.281L664.812 746.009L665.127 745.713V745.281H664.127ZM664.127 743.758H665.127V742.999L664.396 742.795L664.127 743.758ZM660.172 742.82L659.979 743.801L659.981 743.802L660.172 742.82ZM656.451 742.234L656.319 743.226L656.328 743.227L656.337 743.228L656.451 742.234ZM653.111 741.912L653.055 742.911L653.056 742.911L653.111 741.912ZM646.344 742.146L646.54 743.127L646.344 742.146ZM643.736 743.025L644.204 743.909L644.214 743.904L644.224 743.898L643.736 743.025ZM633.779 746.102C633.779 744.592 634.106 743.241 634.747 742.028L632.979 741.093C632.175 742.615 631.779 744.291 631.779 746.102H633.779ZM634.747 742.028C635.384 740.824 636.348 739.77 637.675 738.874L636.555 737.216C634.992 738.273 633.788 739.563 632.979 741.093L634.747 742.028ZM637.683 738.868C639.006 737.956 640.684 737.237 642.744 736.731L642.267 734.789C640.031 735.338 638.115 736.141 636.548 737.222L637.683 738.868ZM642.75 736.729C644.82 736.207 647.254 735.939 650.064 735.939V733.939C647.133 733.939 644.528 734.218 642.261 734.79L642.75 736.729ZM650.064 735.939C652.145 735.939 654.337 736.092 656.641 736.399L656.906 734.417C654.523 734.099 652.242 733.939 650.064 733.939V735.939ZM656.642 736.4C658.963 736.706 661.355 737.177 663.819 737.812L664.318 735.875C661.782 735.222 659.311 734.735 656.905 734.417L656.642 736.4ZM665.064 736.755C664.953 735.509 664.573 734.354 663.923 733.301L662.221 734.351C662.705 735.135 662.988 735.991 663.072 736.933L665.064 736.755ZM663.928 733.309C663.276 732.23 662.374 731.324 661.246 730.587L660.152 732.261C661.056 732.852 661.736 733.548 662.216 734.343L663.928 733.309ZM661.265 730.599C660.155 729.838 658.832 729.268 657.318 728.874L656.815 730.81C658.152 731.158 659.251 731.643 660.133 732.248L661.265 730.599ZM657.322 728.875C655.815 728.477 654.125 728.285 652.262 728.285V730.285C653.992 730.285 655.505 730.464 656.811 730.809L657.322 728.875ZM652.262 728.285C651.246 728.285 650.138 728.346 648.94 728.466L649.139 730.456C650.284 730.341 651.324 730.285 652.262 730.285V728.285ZM648.94 728.466C647.737 728.586 646.498 728.766 645.222 729.005L645.591 730.971C646.815 730.742 647.997 730.57 649.139 730.456L648.94 728.466ZM645.222 729.005C643.941 729.246 642.671 729.546 641.411 729.906L641.96 731.829C643.161 731.486 644.371 731.2 645.591 730.971L645.222 729.005ZM641.407 729.907C640.151 730.271 638.971 730.708 637.867 731.219L638.707 733.034C639.713 732.569 640.798 732.166 641.964 731.828L641.407 729.907ZM639.225 731.78L636.588 724.66L634.713 725.355L637.349 732.474L639.225 731.78ZM635.988 725.949C637.266 725.491 638.635 725.07 640.094 724.686L639.585 722.752C638.076 723.149 636.652 723.587 635.313 724.066L635.988 725.949ZM640.091 724.687C641.569 724.303 643.075 723.977 644.612 723.708L644.267 721.738C642.679 722.016 641.119 722.353 639.588 722.751L640.091 724.687ZM644.624 723.706C646.159 723.418 647.693 723.197 649.226 723.044L649.027 721.054C647.436 721.213 645.845 721.442 644.255 721.74L644.624 723.706ZM649.226 723.044C650.758 722.891 652.239 722.814 653.668 722.814V720.814C652.168 720.814 650.621 720.894 649.027 721.054L649.226 723.044ZM653.668 722.814C659.976 722.814 664.47 724.424 667.358 727.455L668.806 726.076C665.405 722.506 660.29 720.814 653.668 720.814V722.814ZM667.358 727.455C670.255 730.496 671.799 735.257 671.799 741.941H673.799C673.799 734.993 672.198 729.637 668.806 726.076L667.358 727.455ZM671.799 741.941V757H673.799V741.941H671.799ZM672.799 756H664.127V758H672.799V756ZM665.127 757V753.748H663.127V757H665.127ZM663.621 752.886C662.761 753.391 661.81 753.871 660.768 754.326L661.568 756.159C662.674 755.676 663.696 755.16 664.633 754.61L663.621 752.886ZM660.762 754.328C659.756 754.775 658.65 755.17 657.44 755.51L657.982 757.435C659.272 757.072 660.47 756.646 661.574 756.156L660.762 754.328ZM657.44 755.51C656.24 755.848 654.939 756.112 653.534 756.302L653.802 758.284C655.288 758.083 656.682 757.801 657.982 757.435L657.44 755.51ZM653.519 756.304C652.148 756.511 650.684 756.615 649.127 756.615V758.615C650.773 758.615 652.337 758.505 653.817 758.282L653.519 756.304ZM649.127 756.615C646.501 756.615 644.224 756.33 642.283 755.775L641.733 757.698C643.893 758.315 646.362 758.615 649.127 758.615V756.615ZM642.285 755.776C640.345 755.216 638.763 754.453 637.514 753.507L636.307 755.102C637.791 756.226 639.608 757.085 641.731 757.697L642.285 755.776ZM637.514 753.507C636.255 752.554 635.324 751.458 634.697 750.22L632.913 751.124C633.691 752.66 634.831 753.985 636.307 755.102L637.514 753.507ZM634.704 750.235C634.09 748.971 633.779 747.598 633.779 746.102H631.779C631.779 747.886 632.152 749.56 632.905 751.109L634.704 750.235ZM640.92 745.809C640.92 746.556 641.115 747.269 641.485 747.935L643.234 746.964C643.018 746.575 642.92 746.194 642.92 745.809H640.92ZM641.493 747.949C641.887 748.632 642.488 749.199 643.229 749.67L644.303 747.983C643.754 747.633 643.417 747.282 643.226 746.949L641.493 747.949ZM643.247 749.681C644.001 750.138 644.92 750.492 645.98 750.762L646.474 748.824C645.541 748.586 644.82 748.296 644.284 747.971L643.247 749.681ZM646.002 750.767C647.112 751.024 648.413 751.145 649.889 751.145V749.145C648.513 749.145 647.372 749.031 646.451 748.819L646.002 750.767ZM649.889 751.145C651.472 751.145 653.01 751.002 654.501 750.716L654.124 748.752C652.763 749.013 651.352 749.145 649.889 749.145V751.145ZM654.501 750.716C655.974 750.434 657.354 750.059 658.64 749.59L657.954 747.711C656.779 748.14 655.503 748.488 654.124 748.752L654.501 750.716ZM658.64 749.59C659.92 749.122 661.089 748.58 662.144 747.96L661.13 746.236C660.192 746.787 659.135 747.28 657.954 747.711L658.64 749.59ZM662.144 747.96C663.188 747.345 664.082 746.697 664.812 746.009L663.442 744.553C662.844 745.116 662.078 745.678 661.13 746.236L662.144 747.96ZM665.127 745.281V743.758H663.127V745.281H665.127ZM664.396 742.795C663.043 742.417 661.698 742.098 660.362 741.839L659.981 743.802C661.263 744.051 662.555 744.357 663.858 744.721L664.396 742.795ZM660.365 741.839C659.052 741.581 657.786 741.381 656.565 741.241L656.337 743.228C657.5 743.361 658.713 743.552 659.979 743.801L660.365 741.839ZM656.583 741.243C655.389 741.084 654.25 740.974 653.167 740.914L653.056 742.911C654.082 742.968 655.17 743.072 656.319 743.226L656.583 741.243ZM653.168 740.914C652.12 740.854 651.192 740.824 650.387 740.824V742.824C651.144 742.824 652.033 742.853 653.055 742.911L653.168 740.914ZM650.387 740.824C648.728 740.824 647.309 740.934 646.148 741.166L646.54 743.127C647.527 742.93 648.803 742.824 650.387 742.824V740.824ZM646.148 741.166C645.012 741.393 644.034 741.713 643.249 742.152L644.224 743.898C644.767 743.595 645.527 743.33 646.54 743.127L646.148 741.166ZM643.268 742.142C642.491 742.553 641.852 743.092 641.458 743.797L643.203 744.774C643.355 744.502 643.653 744.201 644.204 743.909L643.268 742.142ZM641.458 743.797C641.106 744.425 640.92 745.1 640.92 745.809H642.92C642.92 745.463 643.007 745.122 643.203 744.774L641.458 743.797Z" fill="#00FFB0"/>
<path d="M626.797 692.395C629.141 693.801 631.719 694.836 634.531 695.5C637.344 696.164 640.225 696.496 643.174 696.496C645.166 696.496 646.826 696.359 648.154 696.086C649.482 695.812 650.547 695.461 651.348 695.031C652.148 694.602 652.715 694.113 653.047 693.566C653.379 693.02 653.545 692.463 653.545 691.896C653.545 691.076 653.184 690.373 652.461 689.787C651.758 689.201 650.586 688.908 648.945 688.908C648.184 688.908 647.363 688.957 646.484 689.055C645.605 689.152 644.678 689.26 643.701 689.377C642.744 689.475 641.738 689.572 640.684 689.67C639.648 689.768 638.594 689.816 637.52 689.816C635.176 689.816 633.174 689.562 631.514 689.055C629.873 688.547 628.535 687.854 627.5 686.975C626.465 686.096 625.713 685.061 625.244 683.869C624.775 682.658 624.541 681.359 624.541 679.973C624.541 678.215 624.951 676.594 625.771 675.109C626.592 673.625 627.764 672.346 629.287 671.271C630.811 670.178 632.646 669.328 634.795 668.723C636.963 668.117 639.375 667.814 642.031 667.814C643.418 667.814 644.863 667.902 646.367 668.078C647.891 668.234 649.385 668.449 650.85 668.723C652.314 668.996 653.721 669.318 655.068 669.689C656.416 670.041 657.607 670.422 658.643 670.832L655.918 677.57C653.711 676.75 651.504 676.105 649.297 675.637C647.109 675.148 644.854 674.904 642.529 674.904C640.908 674.904 639.531 675.031 638.398 675.285C637.285 675.52 636.377 675.842 635.674 676.252C634.971 676.643 634.453 677.102 634.121 677.629C633.809 678.137 633.652 678.674 633.652 679.24C633.652 679.65 633.73 680.021 633.887 680.354C634.062 680.686 634.336 680.979 634.707 681.232C635.098 681.467 635.596 681.652 636.201 681.789C636.826 681.906 637.588 681.965 638.486 681.965C639.307 681.965 640.176 681.916 641.094 681.818C642.012 681.721 642.969 681.623 643.965 681.525C644.961 681.408 645.986 681.301 647.041 681.203C648.115 681.105 649.209 681.057 650.322 681.057C652.393 681.057 654.199 681.301 655.742 681.789C657.305 682.277 658.594 682.961 659.609 683.84C660.625 684.719 661.387 685.754 661.895 686.945C662.402 688.137 662.656 689.436 662.656 690.842C662.656 692.658 662.236 694.348 661.396 695.91C660.557 697.473 659.307 698.83 657.646 699.982C655.986 701.115 653.916 702.004 651.436 702.648C648.975 703.293 646.123 703.615 642.881 703.615C640.889 703.615 638.965 703.488 637.109 703.234C635.254 703 633.486 702.678 631.807 702.268C630.127 701.838 628.545 701.34 627.061 700.773C625.596 700.207 624.258 699.602 623.047 698.957L626.797 692.395Z" fill="#00FFB0"/>
<path d="M626.797 692.395L627.311 691.537L626.435 691.011L625.929 691.898L626.797 692.395ZM651.348 695.031L650.875 694.15L651.348 695.031ZM652.461 689.787L651.821 690.555L651.831 690.564L652.461 689.787ZM643.701 689.377L643.803 690.372L643.812 690.371L643.82 690.37L643.701 689.377ZM640.684 689.67L640.591 688.674L640.59 688.674L640.684 689.67ZM631.514 689.055L631.218 690.01L631.221 690.011L631.514 689.055ZM625.244 683.869L624.312 684.23L624.314 684.235L625.244 683.869ZM629.287 671.271L629.863 672.089L629.87 672.084L629.287 671.271ZM634.795 668.723L634.526 667.76L634.524 667.76L634.795 668.723ZM646.367 668.078L646.251 669.071L646.258 669.072L646.265 669.073L646.367 668.078ZM655.068 669.689L654.803 670.654L654.816 670.657L655.068 669.689ZM658.643 670.832L659.57 671.207L659.947 670.273L659.011 669.902L658.643 670.832ZM655.918 677.57L655.57 678.508L656.481 678.846L656.845 677.945L655.918 677.57ZM649.297 675.637L649.079 676.613L649.089 676.615L649.297 675.637ZM638.398 675.285L638.604 676.264L638.617 676.261L638.398 675.285ZM635.674 676.252L636.159 677.126L636.169 677.121L636.178 677.116L635.674 676.252ZM634.121 677.629L633.275 677.096L633.269 677.105L634.121 677.629ZM633.887 680.354L632.982 680.779L632.992 680.801L633.003 680.821L633.887 680.354ZM634.707 681.232L634.142 682.058L634.167 682.075L634.193 682.09L634.707 681.232ZM636.201 681.789L635.981 682.765L635.999 682.769L636.017 682.772L636.201 681.789ZM643.965 681.525L644.062 682.521L644.072 682.52L644.082 682.519L643.965 681.525ZM647.041 681.203L646.95 680.207L646.949 680.207L647.041 681.203ZM655.742 681.789L655.44 682.742L655.444 682.744L655.742 681.789ZM657.646 699.982L658.21 700.808L658.217 700.804L657.646 699.982ZM651.436 702.648L651.184 701.681L651.182 701.681L651.436 702.648ZM637.109 703.234L637.245 702.244L637.235 702.242L637.109 703.234ZM631.807 702.268L631.559 703.236L631.569 703.239L631.807 702.268ZM627.061 700.773L626.7 701.706L626.704 701.708L627.061 700.773ZM623.047 698.957L622.179 698.461L621.667 699.356L622.577 699.84L623.047 698.957ZM626.282 693.252C628.719 694.714 631.394 695.787 634.301 696.473L634.761 694.527C632.043 693.885 629.562 692.887 627.311 691.537L626.282 693.252ZM634.301 696.473C637.191 697.155 640.149 697.496 643.174 697.496V695.496C640.3 695.496 637.497 695.173 634.761 694.527L634.301 696.473ZM643.174 697.496C645.205 697.496 646.938 697.357 648.356 697.065L647.953 695.106C646.714 695.362 645.127 695.496 643.174 695.496V697.496ZM648.356 697.065C649.737 696.781 650.904 696.404 651.82 695.912L650.875 694.15C650.19 694.518 649.228 694.844 647.953 695.106L648.356 697.065ZM651.82 695.912C652.716 695.432 653.446 694.836 653.902 694.085L652.192 693.047C651.984 693.391 651.581 693.771 650.875 694.15L651.82 695.912ZM653.902 694.085C654.316 693.403 654.545 692.669 654.545 691.896H652.545C652.545 692.257 652.442 692.636 652.192 693.047L653.902 694.085ZM654.545 691.896C654.545 690.732 654.012 689.757 653.091 689.01L651.831 690.564C652.355 690.989 652.545 691.42 652.545 691.896H654.545ZM653.101 689.019C652.123 688.204 650.654 687.908 648.945 687.908V689.908C650.517 689.908 651.393 690.199 651.821 690.555L653.101 689.019ZM648.945 687.908C648.141 687.908 647.284 687.96 646.374 688.061L646.595 690.049C647.443 689.954 648.226 689.908 648.945 689.908V687.908ZM646.374 688.061C645.492 688.159 644.561 688.267 643.582 688.384L643.82 690.37C644.794 690.253 645.719 690.146 646.595 690.049L646.374 688.061ZM643.6 688.382C642.646 688.479 641.643 688.577 640.591 688.674L640.776 690.666C641.833 690.568 642.842 690.47 643.803 690.372L643.6 688.382ZM640.59 688.674C639.587 688.769 638.563 688.816 637.52 688.816V690.816C638.624 690.816 639.71 690.766 640.778 690.666L640.59 688.674ZM637.52 688.816C635.243 688.816 633.345 688.569 631.806 688.098L631.221 690.011C633.003 690.556 635.109 690.816 637.52 690.816V688.816ZM631.809 688.099C630.265 687.621 629.056 686.984 628.147 686.212L626.853 687.737C628.014 688.723 629.481 689.472 631.218 690.01L631.809 688.099ZM628.147 686.212C627.23 685.433 626.579 684.532 626.175 683.503L624.314 684.235C624.846 685.589 625.7 686.758 626.853 687.737L628.147 686.212ZM626.177 683.508C625.755 682.42 625.541 681.244 625.541 679.973H623.541C623.541 681.474 623.795 682.896 624.312 684.23L626.177 683.508ZM625.541 679.973C625.541 678.378 625.911 676.924 626.647 675.593L624.896 674.626C623.991 676.264 623.541 678.052 623.541 679.973H625.541ZM626.647 675.593C627.387 674.254 628.451 673.085 629.863 672.089L628.711 670.454C627.076 671.607 625.797 672.996 624.896 674.626L626.647 675.593ZM629.87 672.084C631.283 671.069 633.009 670.265 635.066 669.685L634.524 667.76C632.284 668.391 630.338 669.286 628.704 670.459L629.87 672.084ZM635.064 669.686C637.13 669.109 639.45 668.814 642.031 668.814V666.814C639.3 666.814 636.796 667.126 634.526 667.76L635.064 669.686ZM642.031 668.814C643.376 668.814 644.782 668.9 646.251 669.071L646.483 667.085C644.944 666.905 643.46 666.814 642.031 666.814V668.814ZM646.265 669.073C647.762 669.226 649.229 669.437 650.666 669.706L651.033 667.74C649.541 667.461 648.019 667.242 646.469 667.083L646.265 669.073ZM650.666 669.706C652.105 669.974 653.484 670.29 654.803 670.654L655.334 668.725C653.957 668.346 652.524 668.018 651.033 667.74L650.666 669.706ZM654.816 670.657C656.134 671.001 657.285 671.37 658.274 671.762L659.011 669.902C657.93 669.474 656.699 669.081 655.321 668.722L654.816 670.657ZM657.715 670.457L654.991 677.195L656.845 677.945L659.57 671.207L657.715 670.457ZM656.266 676.633C654.015 675.796 651.762 675.138 649.505 674.659L649.089 676.615C651.246 677.073 653.406 677.704 655.57 678.508L656.266 676.633ZM649.515 674.661C647.253 674.156 644.924 673.904 642.529 673.904V675.904C644.783 675.904 646.966 676.141 649.079 676.613L649.515 674.661ZM642.529 673.904C640.861 673.904 639.406 674.034 638.18 674.309L638.617 676.261C639.656 676.028 640.955 675.904 642.529 675.904V673.904ZM638.192 674.307C637.013 674.555 635.994 674.907 635.17 675.388L636.178 677.116C636.76 676.776 637.558 676.484 638.604 676.264L638.192 674.307ZM635.188 675.378C634.38 675.827 633.719 676.391 633.275 677.096L634.967 678.162C635.187 677.812 635.562 677.458 636.159 677.126L635.188 675.378ZM633.269 677.105C632.865 677.762 632.652 678.479 632.652 679.24H634.652C634.652 678.869 634.752 678.512 634.973 678.153L633.269 677.105ZM632.652 679.24C632.652 679.78 632.756 680.299 632.982 680.779L634.792 679.928C634.705 679.744 634.652 679.521 634.652 679.24H632.652ZM633.003 680.821C633.268 681.322 633.664 681.73 634.142 682.058L635.272 680.407C635.008 680.227 634.857 680.049 634.771 679.886L633.003 680.821ZM634.193 682.09C634.701 682.395 635.307 682.612 635.981 682.765L636.421 680.814C635.885 680.692 635.495 680.539 635.222 680.375L634.193 682.09ZM636.017 682.772C636.722 682.904 637.549 682.965 638.486 682.965V680.965C637.627 680.965 636.931 680.908 636.385 680.806L636.017 682.772ZM638.486 682.965C639.346 682.965 640.251 682.914 641.2 682.813L640.988 680.824C640.101 680.918 639.267 680.965 638.486 680.965V682.965ZM641.2 682.813C642.115 682.715 643.069 682.618 644.062 682.521L643.867 680.53C642.869 680.628 641.909 680.726 640.988 680.824L641.2 682.813ZM644.082 682.519C645.069 682.402 646.086 682.296 647.133 682.199L646.949 680.207C645.886 680.306 644.853 680.414 643.848 680.532L644.082 682.519ZM647.132 682.199C648.175 682.104 649.238 682.057 650.322 682.057V680.057C649.18 680.057 648.056 680.107 646.95 680.207L647.132 682.199ZM650.322 682.057C652.317 682.057 654.018 682.292 655.44 682.742L656.044 680.836C654.38 680.309 652.468 680.057 650.322 680.057V682.057ZM655.444 682.744C656.903 683.2 658.063 683.824 658.955 684.596L660.264 683.084C659.124 682.098 657.706 681.355 656.04 680.835L655.444 682.744ZM658.955 684.596C659.86 685.379 660.529 686.291 660.975 687.337L662.814 686.553C662.245 685.217 661.39 684.058 660.264 683.084L658.955 684.596ZM660.975 687.337C661.425 688.395 661.656 689.559 661.656 690.842H663.656C663.656 689.312 663.379 687.879 662.814 686.553L660.975 687.337ZM661.656 690.842C661.656 692.497 661.275 694.023 660.516 695.437L662.277 696.384C663.197 694.672 663.656 692.819 663.656 690.842H661.656ZM660.516 695.437C659.76 696.842 658.625 698.086 657.076 699.161L658.217 700.804C659.988 699.574 661.353 698.103 662.277 696.384L660.516 695.437ZM657.083 699.156C655.54 700.209 653.582 701.057 651.184 701.681L651.687 703.616C654.25 702.95 656.433 702.021 658.21 700.808L657.083 699.156ZM651.182 701.681C648.823 702.299 646.06 702.615 642.881 702.615V704.615C646.186 704.615 649.126 704.287 651.689 703.616L651.182 701.681ZM642.881 702.615C640.931 702.615 639.053 702.491 637.245 702.244L636.974 704.225C638.877 704.486 640.846 704.615 642.881 704.615V702.615ZM637.235 702.242C635.414 702.012 633.684 701.697 632.044 701.296L631.569 703.239C633.289 703.659 635.094 703.988 636.984 704.226L637.235 702.242ZM632.054 701.299C630.408 700.878 628.863 700.391 627.417 699.839L626.704 701.708C628.227 702.289 629.846 702.798 631.559 703.236L632.054 701.299ZM627.421 699.841C625.988 699.287 624.688 698.698 623.517 698.074L622.577 699.84C623.828 700.506 625.203 701.127 626.7 701.706L627.421 699.841ZM623.915 699.453L627.665 692.891L625.929 691.898L622.179 698.461L623.915 699.453Z" fill="#00FFB0"/>
<path d="M583.42 708.426H592.092V725.066C593.908 724.07 595.93 723.279 598.156 722.693C600.402 722.107 602.756 721.814 605.217 721.814C608.068 721.814 610.627 722.234 612.893 723.074C615.178 723.914 617.111 725.125 618.693 726.707C620.275 728.27 621.486 730.174 622.326 732.42C623.186 734.666 623.615 737.195 623.615 740.008V757H614.973V740.359C614.973 738.719 614.709 737.225 614.182 735.877C613.654 734.51 612.883 733.338 611.867 732.361C610.852 731.385 609.611 730.633 608.146 730.105C606.701 729.559 605.061 729.285 603.225 729.285C601.018 729.285 598.967 729.637 597.072 730.34C595.178 731.043 593.518 731.932 592.092 733.006V757H583.42V708.426Z" fill="#00FFB0"/>
<path d="M583.42 708.426V707.426H582.42V708.426H583.42ZM592.092 708.426H593.092V707.426H592.092V708.426ZM592.092 725.066H591.092V726.755L592.573 725.943L592.092 725.066ZM598.156 722.693L597.904 721.726L597.902 721.726L598.156 722.693ZM612.893 723.074L612.545 724.012L612.548 724.013L612.893 723.074ZM618.693 726.707L617.986 727.414L617.991 727.419L618.693 726.707ZM622.326 732.42L621.389 732.77L621.392 732.777L622.326 732.42ZM623.615 757V758H624.615V757H623.615ZM614.973 757H613.973V758H614.973V757ZM614.182 735.877L613.249 736.237L613.25 736.241L614.182 735.877ZM608.146 730.105L607.793 731.041L607.8 731.044L607.808 731.046L608.146 730.105ZM592.092 733.006L591.49 732.207L591.092 732.507V733.006H592.092ZM592.092 757V758H593.092V757H592.092ZM583.42 757H582.42V758H583.42V757ZM583.42 709.426H592.092V707.426H583.42V709.426ZM591.092 708.426V725.066H593.092V708.426H591.092ZM592.573 725.943C594.31 724.99 596.254 724.228 598.411 723.66L597.902 721.726C595.605 722.331 593.506 723.15 591.611 724.19L592.573 725.943ZM598.409 723.661C600.568 723.098 602.836 722.814 605.217 722.814V720.814C602.676 720.814 600.237 721.117 597.904 721.726L598.409 723.661ZM605.217 722.814C607.971 722.814 610.409 723.22 612.545 724.012L613.24 722.137C610.845 721.249 608.166 720.814 605.217 720.814V722.814ZM612.548 724.013C614.709 724.807 616.516 725.943 617.986 727.414L619.4 726C617.707 724.307 615.647 723.021 613.238 722.136L612.548 724.013ZM617.991 727.419C619.461 728.871 620.596 730.649 621.39 732.77L623.263 732.07C622.376 729.698 621.089 727.668 619.396 725.996L617.991 727.419ZM621.392 732.777C622.201 734.892 622.615 737.297 622.615 740.008H624.615C624.615 737.094 624.17 734.44 623.26 732.063L621.392 732.777ZM622.615 740.008V757H624.615V740.008H622.615ZM623.615 756H614.973V758H623.615V756ZM615.973 757V740.359H613.973V757H615.973ZM615.973 740.359C615.973 738.611 615.691 736.991 615.113 735.513L613.25 736.241C613.727 737.458 613.973 738.827 613.973 740.359H615.973ZM615.115 735.517C614.537 734.019 613.686 732.722 612.56 731.64L611.174 733.082C612.08 733.953 612.772 735 613.249 736.237L615.115 735.517ZM612.56 731.64C611.433 730.557 610.068 729.735 608.485 729.165L607.808 731.046C609.154 731.531 610.27 732.213 611.174 733.082L612.56 731.64ZM608.5 729.17C606.923 728.573 605.159 728.285 603.225 728.285V730.285C604.962 730.285 606.479 730.544 607.793 731.041L608.5 729.17ZM603.225 728.285C600.91 728.285 598.74 728.654 596.724 729.402L597.42 731.277C599.194 730.619 601.125 730.285 603.225 730.285V728.285ZM596.724 729.402C594.751 730.135 593.003 731.068 591.49 732.207L592.694 733.805C594.032 732.796 595.605 731.951 597.42 731.277L596.724 729.402ZM591.092 733.006V757H593.092V733.006H591.092ZM592.092 756H583.42V758H592.092V756ZM584.42 757V708.426H582.42V757H584.42Z" fill="#00FFB0"/>
<path d="M501.654 668.43H510.326V671.359C512.494 670.031 514.604 669.113 516.654 668.605C518.725 668.078 520.746 667.814 522.719 667.814C525.473 667.814 528.002 668.254 530.307 669.133C532.611 670.012 534.584 671.34 536.225 673.117C537.494 672.141 538.744 671.32 539.975 670.656C541.205 669.973 542.436 669.426 543.666 669.016C544.896 668.586 546.146 668.283 547.416 668.107C548.686 667.912 549.994 667.814 551.342 667.814C554.174 667.814 556.742 668.205 559.047 668.986C561.352 669.748 563.314 670.891 564.936 672.414C566.576 673.938 567.836 675.842 568.715 678.127C569.613 680.393 570.062 683.02 570.062 686.008V703H561.42V687.414C561.42 685.52 561.146 683.83 560.6 682.346C560.072 680.842 559.32 679.582 558.344 678.566C557.387 677.531 556.234 676.75 554.887 676.223C553.559 675.676 552.094 675.402 550.492 675.402C549.613 675.402 548.715 675.49 547.797 675.666C546.879 675.822 545.98 676.076 545.102 676.428C544.242 676.779 543.432 677.229 542.67 677.775C541.908 678.303 541.244 678.928 540.678 679.65V703H532.035V687.414C532.035 685.52 531.762 683.83 531.215 682.346C530.688 680.842 529.936 679.582 528.959 678.566C528.002 677.531 526.84 676.75 525.473 676.223C524.125 675.676 522.641 675.402 521.02 675.402C520.023 675.402 519.018 675.51 518.002 675.725C517.006 675.92 516.039 676.203 515.102 676.574C514.184 676.945 513.314 677.395 512.494 677.922C511.693 678.449 510.971 679.045 510.326 679.709V703H501.654V668.43Z" fill="#00FFB0"/>
<path d="M501.654 668.43V667.43H500.654V668.43H501.654ZM510.326 668.43H511.326V667.43H510.326V668.43ZM510.326 671.359H509.326V673.145L510.849 672.212L510.326 671.359ZM516.654 668.605L516.895 669.576L516.901 669.575L516.654 668.605ZM536.225 673.117L535.49 673.795L536.11 674.467L536.834 673.91L536.225 673.117ZM539.975 670.656L540.45 671.536L540.46 671.53L539.975 670.656ZM543.666 669.016L543.982 669.964L543.989 669.962L543.996 669.96L543.666 669.016ZM547.416 668.107L547.553 669.098L547.561 669.097L547.568 669.096L547.416 668.107ZM559.047 668.986L558.726 669.933L558.733 669.936L559.047 668.986ZM564.936 672.414L564.251 673.143L564.255 673.147L564.936 672.414ZM568.715 678.127L567.781 678.486L567.785 678.496L568.715 678.127ZM570.062 703V704H571.062V703H570.062ZM561.42 703H560.42V704H561.42V703ZM560.6 682.346L559.656 682.677L559.659 682.684L559.661 682.691L560.6 682.346ZM558.344 678.566L557.609 679.245L557.616 679.252L557.623 679.26L558.344 678.566ZM554.887 676.223L554.506 677.147L554.514 677.151L554.522 677.154L554.887 676.223ZM547.797 675.666L547.965 676.652L547.975 676.65L547.985 676.648L547.797 675.666ZM545.102 676.428L544.73 675.499L544.723 675.502L545.102 676.428ZM542.67 677.775L543.239 678.598L543.246 678.593L543.253 678.588L542.67 677.775ZM540.678 679.65L539.891 679.034L539.678 679.305V679.65H540.678ZM540.678 703V704H541.678V703H540.678ZM532.035 703H531.035V704H532.035V703ZM531.215 682.346L530.271 682.677L530.274 682.684L530.277 682.691L531.215 682.346ZM528.959 678.566L528.225 679.245L528.231 679.252L528.238 679.26L528.959 678.566ZM525.473 676.223L525.097 677.149L525.105 677.153L525.113 677.156L525.473 676.223ZM518.002 675.725L518.194 676.706L518.202 676.704L518.209 676.703L518.002 675.725ZM515.102 676.574L514.734 675.644L514.727 675.647L515.102 676.574ZM512.494 677.922L511.953 677.081L511.944 677.087L512.494 677.922ZM510.326 679.709L509.609 679.013L509.326 679.303V679.709H510.326ZM510.326 703V704H511.326V703H510.326ZM501.654 703H500.654V704H501.654V703ZM501.654 669.43H510.326V667.43H501.654V669.43ZM509.326 668.43V671.359H511.326V668.43H509.326ZM510.849 672.212C512.946 670.927 514.961 670.055 516.895 669.576L516.414 667.635C514.246 668.172 512.042 669.136 509.804 670.507L510.849 672.212ZM516.901 669.575C518.897 669.066 520.836 668.814 522.719 668.814V666.814C520.656 666.814 518.552 667.09 516.407 667.636L516.901 669.575ZM522.719 668.814C525.365 668.814 527.772 669.236 529.95 670.067L530.663 668.198C528.232 667.271 525.58 666.814 522.719 666.814V668.814ZM529.95 670.067C532.114 670.892 533.956 672.134 535.49 673.795L536.959 672.439C535.212 670.546 533.109 669.131 530.663 668.198L529.95 670.067ZM536.834 673.91C538.067 672.961 539.272 672.172 540.45 671.536L539.5 669.776C538.216 670.469 536.921 671.32 535.615 672.325L536.834 673.91ZM540.46 671.53C541.641 670.874 542.815 670.353 543.982 669.964L543.35 668.067C542.056 668.498 540.769 669.071 539.489 669.782L540.46 671.53ZM543.996 669.96C545.165 669.551 546.35 669.265 547.553 669.098L547.279 667.117C545.943 667.302 544.628 667.62 543.336 668.072L543.996 669.96ZM547.568 669.096C548.785 668.909 550.043 668.814 551.342 668.814V666.814C549.946 666.814 548.586 666.916 547.264 667.119L547.568 669.096ZM551.342 668.814C554.082 668.814 556.54 669.192 558.726 669.933L559.368 668.039C556.944 667.218 554.266 666.814 551.342 666.814V668.814ZM558.733 669.936C560.912 670.656 562.745 671.728 564.251 673.143L565.62 671.685C563.884 670.053 561.791 668.84 559.361 668.037L558.733 669.936ZM564.255 673.147C565.774 674.557 566.952 676.33 567.781 678.486L569.648 677.768C568.72 675.354 567.378 673.318 565.616 671.681L564.255 673.147ZM567.785 678.496C568.628 680.621 569.062 683.118 569.062 686.008H571.062C571.062 682.921 570.599 680.165 569.644 677.758L567.785 678.496ZM569.062 686.008V703H571.062V686.008H569.062ZM570.062 702H561.42V704H570.062V702ZM562.42 703V687.414H560.42V703H562.42ZM562.42 687.414C562.42 685.424 562.133 683.615 561.538 682L559.661 682.691C560.16 684.046 560.42 685.615 560.42 687.414H562.42ZM561.543 682.015C560.975 680.393 560.153 679.005 559.065 677.873L557.623 679.26C558.488 680.159 559.17 681.29 559.656 682.677L561.543 682.015ZM559.078 677.888C558.016 676.738 556.736 675.872 555.251 675.291L554.522 677.154C555.733 677.628 556.758 678.324 557.609 679.245L559.078 677.888ZM555.267 675.298C553.805 674.696 552.209 674.402 550.492 674.402V676.402C551.978 676.402 553.312 676.656 554.506 677.147L555.267 675.298ZM550.492 674.402C549.546 674.402 548.585 674.497 547.609 674.684L547.985 676.648C548.845 676.484 549.68 676.402 550.492 676.402V674.402ZM547.629 674.68C546.64 674.849 545.674 675.122 544.73 675.499L545.473 677.356C546.287 677.03 547.118 676.796 547.965 676.652L547.629 674.68ZM544.723 675.502C543.79 675.884 542.911 676.371 542.087 676.963L543.253 678.588C543.952 678.086 544.694 677.675 545.48 677.353L544.723 675.502ZM542.101 676.953C541.257 677.537 540.52 678.231 539.891 679.034L541.465 680.267C541.969 679.624 542.559 679.068 543.239 678.598L542.101 676.953ZM539.678 679.65V703H541.678V679.65H539.678ZM540.678 702H532.035V704H540.678V702ZM533.035 703V687.414H531.035V703H533.035ZM533.035 687.414C533.035 685.424 532.748 683.615 532.153 682L530.277 682.691C530.775 684.046 531.035 685.615 531.035 687.414H533.035ZM532.159 682.015C531.59 680.393 530.768 679.005 529.68 677.873L528.238 679.26C529.103 680.159 529.785 681.29 530.271 682.677L532.159 682.015ZM529.693 677.888C528.628 676.736 527.337 675.87 525.833 675.29L525.113 677.156C526.343 677.63 527.376 678.327 528.225 679.245L529.693 677.888ZM525.849 675.296C524.369 674.695 522.755 674.402 521.02 674.402V676.402C522.526 676.402 523.881 676.656 525.097 677.149L525.849 675.296ZM521.02 674.402C519.951 674.402 518.876 674.518 517.795 674.746L518.209 676.703C519.159 676.502 520.096 676.402 521.02 676.402V674.402ZM517.81 674.743C516.754 674.95 515.728 675.251 514.734 675.644L515.47 677.504C516.35 677.156 517.258 676.89 518.194 676.706L517.81 674.743ZM514.727 675.647C513.752 676.041 512.827 676.519 511.953 677.081L513.035 678.763C513.802 678.27 514.615 677.849 515.476 677.501L514.727 675.647ZM511.944 677.087C511.085 677.653 510.306 678.294 509.609 679.013L511.044 680.405C511.636 679.795 512.302 679.246 513.044 678.757L511.944 677.087ZM509.326 679.709V703H511.326V679.709H509.326ZM510.326 702H501.654V704H510.326V702ZM502.654 703V668.43H500.654V703H502.654Z" fill="#00FFB0"/>
<path d="M485 773L671 773" stroke="#00FFB0" stroke-width="8" stroke-linecap="round"/>
<path d="M754 286H928V67.0754L889.031 39L754 39V286Z" fill="#8418B5" stroke="#8418B5"/>
<path d="M927.094 67.0753L888.578 39.3154V67.0753H927.094Z" fill="#680096" stroke="#680096"/>
<path d="M906.299 259V273" stroke="#00FFB0" stroke-width="3"/>
<path d="M913 266H899" stroke="#00FFB0" stroke-width="3"/>
<path d="M849 225.75L837.95 230.05V244.2L849 248.45V253L813.15 239.05V235L849 221.1V225.75ZM823.15 235.4C822.883 235.5 822.4 235.667 821.7 235.9C821 236.133 820.283 236.367 819.55 236.6C818.783 236.8 818.2 236.967 817.8 237.1C818.467 237.267 819.15 237.45 819.85 237.65C820.517 237.817 821.133 238 821.7 238.2C822.267 238.367 822.75 238.517 823.15 238.65L833.95 242.7V231.4L823.15 235.4ZM813.3 206.766C813.3 202.1 814.217 198.7 816.05 196.566C817.883 194.433 820.467 193.366 823.8 193.366C825.267 193.366 826.683 193.616 828.05 194.116C829.383 194.583 830.583 195.366 831.65 196.466C832.717 197.566 833.567 199.033 834.2 200.866C834.8 202.7 835.1 204.95 835.1 207.616V211.716H849V216.216H813.3V206.766ZM817.15 207.166V211.716H831.25V208.116C831.25 205.85 831.017 203.966 830.55 202.466C830.05 200.966 829.267 199.85 828.2 199.116C827.133 198.383 825.733 198.016 824 198.016C821.7 198.016 819.983 198.75 818.85 200.216C817.717 201.683 817.15 204 817.15 207.166ZM849 174.643V179.143H817.25V190.293H813.3V163.543H817.25V174.643H849ZM849 138.21V158.16H813.3V138.21H817.25V153.66H828.4V139.11H832.3V153.66H845.05V138.21H849ZM816.75 115.077C816.75 116.977 817.083 118.693 817.75 120.227C818.383 121.76 819.333 123.06 820.6 124.127C821.833 125.193 823.35 126.01 825.15 126.577C826.917 127.143 828.917 127.427 831.15 127.427C834.083 127.427 836.633 126.977 838.8 126.077C840.967 125.143 842.633 123.777 843.8 121.977C844.967 120.143 845.55 117.86 845.55 115.127C845.55 113.56 845.417 112.077 845.15 110.677C844.883 109.277 844.55 107.91 844.15 106.577H848.05C848.55 107.91 848.917 109.293 849.15 110.727C849.383 112.127 849.5 113.81 849.5 115.777C849.5 119.41 848.75 122.443 847.25 124.877C845.75 127.31 843.617 129.143 840.85 130.377C838.083 131.577 834.833 132.177 831.1 132.177C828.4 132.177 825.933 131.81 823.7 131.077C821.467 130.31 819.533 129.21 817.9 127.777C816.267 126.31 815.017 124.51 814.15 122.377C813.25 120.243 812.8 117.793 812.8 115.027C812.8 113.193 812.983 111.427 813.35 109.727C813.717 108.027 814.233 106.51 814.9 105.177L818.7 106.977C818.2 108.077 817.75 109.31 817.35 110.677C816.95 112.01 816.75 113.477 816.75 115.077ZM849 71.4848V75.9848H832.35V94.2848H849V98.7848H813.3V94.2848H828.4V75.9848H813.3V71.4848H849Z" fill="#00FFB0"/>
<path d="M353.799 360.729H260.925V223.188L281.725 205.55H353.799V360.729Z" fill="#8418B5" stroke="#8418B5"/>
<path d="M261.408 223.188L281.967 205.748V223.188H261.408Z" fill="#680096" stroke="#680096"/>
<path d="M340.778 215V228" stroke="#00FFB0" stroke-width="3"/>
<path d="M348 221.314H335" stroke="#00FFB0" stroke-width="3"/>
<path d="M498.5 591.5V399.5H151.5L107 442.5V591.5H498.5Z" fill="#8418B5" stroke="#8418B5"/>
<path d="M151.5 400.5L107.5 443H151.5V400.5Z" fill="#680096" stroke="#680096"/>
<path d="M473.889 414V434" stroke="#00FFB0" stroke-width="3"/>
<path d="M485 423.714H465" stroke="#00FFB0" stroke-width="3"/>
<path d="M134 559V577" stroke="#00FFB0" stroke-width="3"/>
<path d="M144 567.743H126" stroke="#00FFB0" stroke-width="3"/>
<path d="M158 521L158.06 479H174.08C176.12 479 177.94 479.58 179.54 480.74C181.14 481.86 182.4 483.36 183.32 485.24C184.24 487.08 184.7 489.06 184.7 491.18C184.7 492.66 184.4 494.12 183.8 495.56C183.24 496.96 182.46 498.26 181.46 499.46C180.5 500.62 179.36 501.56 178.04 502.28C176.76 502.96 175.38 503.3 173.9 503.3H162.74V521H158ZM162.74 498.68H173.78C174.9 498.68 175.92 498.32 176.84 497.6C177.8 496.84 178.56 495.88 179.12 494.72C179.72 493.56 180.02 492.38 180.02 491.18C180.02 489.82 179.74 488.58 179.18 487.46C178.66 486.3 177.94 485.38 177.02 484.7C176.1 484.02 175.08 483.68 173.96 483.68H162.74V498.68ZM194.849 521H190.109V479H194.849V521ZM200.232 521L213.492 499.7L200.592 479H206.292L216.432 495.98L226.632 479H232.272L219.312 499.7L232.632 521H226.932L216.432 503.54L205.932 521H200.232ZM260.719 521H238.039V479H260.719V483.32H242.779V498.38H257.299V502.46H242.779V516.68H260.719V521ZM285.785 521H266.225V479H270.965V516.44H285.785V521ZM291.544 521V517.34C291.544 515.22 291.964 513.5 292.804 512.18C293.684 510.86 294.824 509.74 296.224 508.82C297.664 507.9 299.264 506.98 301.024 506.06C304.504 504.34 307.484 502.46 309.964 500.42C312.484 498.38 314.024 496.1 314.584 493.58C314.944 491.86 314.704 490.24 313.864 488.72C313.024 487.16 311.784 485.88 310.144 484.88C308.544 483.88 306.744 483.38 304.744 483.38C302.304 483.38 300.344 483.88 298.864 484.88C297.384 485.88 296.544 487.54 296.344 489.86H291.244C291.444 486.46 292.684 483.74 294.964 481.7C297.244 479.66 300.664 478.66 305.224 478.7C308.104 478.7 310.604 479.36 312.724 480.68C314.884 481.96 316.564 483.64 317.764 485.72C318.964 487.8 319.564 490.02 319.564 492.38C319.564 495.14 318.844 497.54 317.404 499.58C316.004 501.58 314.104 503.4 311.704 505.04C309.304 506.68 306.684 508.26 303.844 509.78C302.244 510.66 300.924 511.4 299.884 512C298.884 512.56 298.124 513.18 297.604 513.86C297.124 514.5 296.884 515.34 296.884 516.38H319.204V521H291.544ZM354.702 521H349.962V502.7H329.322V521H324.582V479H329.322V498.62H349.962V479H354.702V521ZM391.036 483.38H377.956V521H373.156V483.38H360.076V479H391.036V483.38ZM396.418 521V479H406.318L418.078 508.82L429.838 479H439.738V521H434.938V484.4H432.898L420.718 514.46H415.498L403.258 484.4H401.158V521H396.418ZM465.434 521H445.874V479H450.614V516.44H465.434V521Z" fill="#00FFB0"/>
<ellipse cx="302.5" cy="554" rx="5.5" ry="5" fill="#00FFB0"/>
<path d="M800.5 330.5C773 337.5 751.139 363.297 743 389L725.5 494.5L615.5 598C628.868 617.872 656.018 626.619 688 623.5L797 616L870 801.5C914.833 792.586 938.72 786.104 977.5 770L897 555.5C888.5 531.5 873.641 508.499 842.5 494.5L850.5 430.5L1017 373L986 280L800.5 330.5Z" fill="#00FFB0" stroke="#00FFB0"/>
<path d="M558 385V362.5L630.5 327L668 261L682 170L757 162.5C753.763 223.111 752.5 291.5 748 297.5C724.439 342.245 704.84 364.817 673.5 406.5L728.5 502L691.75 528.75L703.5 563L615.5 599.698L586 612C551.452 625.47 526.5 618.5 515 605.5C503.5 592.5 489.005 495.409 515 423.5C525.842 399.608 535.438 391.449 558 385Z" fill="#680096"/>
<path d="M570.5 524.5L586.5 520.116M586.5 520.116L680 494.5L691.75 528.75M586.5 520.116L573.5 462.5M691.75 528.75L703.5 563L615.5 599.698L586 612C551.452 625.47 526.5 618.5 515 605.5C503.5 592.5 489.005 495.409 515 423.5C525.842 399.608 535.438 391.449 558 385V362.5L630.5 327L668 261L682 170L757 162.5C753.763 223.111 752.5 291.5 748 297.5C724.439 342.245 704.84 364.817 673.5 406.5L728.5 502L691.75 528.75Z" stroke="#680096"/>
<path d="M759.5 498.5C740.5 485 715 482.5 684.5 505.5L694 533L724 503L759.5 498.5Z" fill="#DAB180" stroke="#DAB180"/>
<path d="M753.5 91.5C741.5 95 730.5 126.5 721.5 167L753.5 163L765.5 136C773.716 117.332 772.695 114.145 753.5 128.5V91.5Z" fill="#DAB180" stroke="#DAB180"/>
<path d="M569 330L575 286C583 297.5 604.143 295.36 621.5 286C625.744 297.971 625.911 310.986 628.5 322.5C631.306 336.232 633.631 336.866 633 348C630 369.5 608 379 602 380.5C596 382 588.5 380.5 588.5 380.5C572.411 378.716 565.129 374.819 556 359C556 359 555 360.5 551.5 357L545 350.5C537.366 343.331 535.351 338.954 536.5 330C538.513 322.289 541.651 319.725 550.5 318C556 316 563.5 321.5 569 330Z" fill="#FFCC91"/>
<path d="M602 344C612.305 341.885 611.869 334.855 606.5 318M585 350.5C586.995 357.905 589.725 360.211 597.5 361M548 333.5C552.861 337.26 555.098 339.761 557.5 345.5M575 286L569 330C563.5 321.5 556 316 550.5 318C541.651 319.725 538.513 322.289 536.5 330C535.351 338.954 537.366 343.331 545 350.5C545 350.5 548 353.5 551.5 357C555 360.5 556 359 556 359C565.129 374.819 572.411 378.716 588.5 380.5C588.5 380.5 596 382 602 380.5C608 379 630 369.5 633 348C633.631 336.866 631.306 336.232 628.5 322.5C625.911 310.986 625.744 297.971 621.5 286C604.143 295.36 583 297.5 575 286Z" stroke="#FFCC91"/>
<path d="M546.5 319L542 321C538.476 316.306 537.401 312.657 536.5 305C535.82 293.592 536.21 289.647 537.5 284.5C545.486 264.441 564.5 257 574.5 256C584.5 255 606.5 258 606.5 258C618.839 258.838 632 274 621 285.5C601.5 296.5 581.18 296.051 574.5 284.5L569 329.5L566 325.5L563 322.5L559 319L555.5 317.5H551L546.5 319Z" fill="black"/>
<path d="M546.5 319L542 321C538.476 316.306 537.401 312.657 536.5 305C535.82 293.592 536.21 289.647 537.5 284.5C545.486 264.441 564.5 257 574.5 256C584.5 255 606.5 258 606.5 258C618.839 258.838 632 274 621 285.5C601.5 296.5 581.18 296.051 574.5 284.5L569 329.5L566 325.5L563 322.5L559 319L555.5 317.5H551L546.5 319Z" fill="black" fill-opacity="0.2"/>
<path d="M546.5 319L542 321C538.476 316.306 537.401 312.657 536.5 305C535.82 293.592 536.21 289.647 537.5 284.5C545.486 264.441 564.5 257 574.5 256C584.5 255 606.5 258 606.5 258C618.839 258.838 632 274 621 285.5C601.5 296.5 581.18 296.051 574.5 284.5L569 329.5L566 325.5L563 322.5L559 319L555.5 317.5H551L546.5 319Z" stroke="black"/>
<path d="M994 303.5L1011 354.5H1028.5C1043.15 355.441 1052.18 351.923 1052 337L1034 249.5C1026.93 240.064 1017.56 240.981 1011 255L994 303.5Z" fill="white" stroke="black"/>
<path d="M1042.5 352.5L1022 244C1026.36 243.8 1028.94 244.659 1034 249.5L1052.5 335.5C1051.47 345.049 1050.05 349.543 1042.5 352.5Z" fill="white" stroke="white"/>
<path d="M1031.5 295.5L1022 244.5C1020.78 243.933 1020.05 243.93 1018.5 245.5L1022 284L1004 275L1000.5 287L1031.5 295.5Z" fill="black" stroke="black"/>
<path d="M1011 354.5L1005.5 338L994 303.5L996.5 297L1012.5 335L1037 323L1042.5 353C1038 355.5 1021 355 1011 354.5Z" fill="black" stroke="black"/>
<path d="M1026.48 302.371C1022.79 298.024 1017.5 296 1017.5 296C1017.5 296 1021.68 299.836 1022.54 304.102C1023.4 308.368 1017.5 329.5 1017.5 329.5C1017.5 329.5 1030.16 306.718 1026.48 302.371Z" fill="black" stroke="black" stroke-width="0.5"/>
<path d="M959 778.5L889.936 797.5L889.936 809.5C888.674 824.122 891.576 831.848 906.5 832L1009.5 806C1016 797.5 1010 790.5 995.999 788L959 778.5Z" fill="white" stroke="black"/>
<path d="M959.5 818L1010 805.5C1010.44 804.229 1014 800.5 1011 796L972.5 805.5L983 785L965.5 780L959.5 818Z" fill="black" stroke="black"/>
<path d="M890.5 798L917.5 790.5L959 778.5L962.5 779.5L914.5 801.5L931.5 825L906.5 831.5C893.5 831.5 888 827.5 890.5 798Z" fill="black" stroke="black"/>
<path d="M950.421 803.919C954.052 799.524 955.115 793.963 955.115 793.963C955.115 793.963 952.073 798.751 948.025 800.347C943.976 801.943 922.136 799.852 922.136 799.852C922.136 799.852 946.79 808.314 950.421 803.919Z" fill="black" stroke="black" stroke-width="0.5"/>
<path d="M891.628 823.541L1011 794.5C1013.5 798 1013 803.568 1008.5 807L906 832.5C896.475 831.265 894.418 831.152 891.628 823.541Z" fill="white" stroke="white"/>
<path d="M1260 408V562H955.101L916 527.51V408H1260Z" fill="#8418B5" stroke="#8418B5"/>
<path d="M955.101 561.198L916.439 527.109H955.101V561.198Z" fill="#680096" stroke="#680096"/>
<path d="M1225.5 432V450" stroke="#00FFB0" stroke-width="3"/>
<path d="M1235.5 440.743H1217.5" stroke="#00FFB0" stroke-width="3"/>
<g clip-path="url(#clip0_1_215)">
<mask id="mask0_1_215" style="mask-type:luminance" maskUnits="userSpaceOnUse" x="1010" y="453" width="155" height="63">
<path d="M1164.04 453.96H1010.96V515.04H1164.04V453.96Z" fill="white"/>
</mask>
<g mask="url(#mask0_1_215)">
<path d="M1087.5 456.622C1118.5 456.622 1143.63 482.317 1143.63 482.317C1143.63 482.317 1118.5 508.012 1087.5 508.012C1056.5 508.012 1031.37 482.317 1031.37 482.317C1031.37 482.317 1056.5 456.622 1087.5 456.622Z" fill="#DCDCDC"/>
</g>
<mask id="mask1_1_215" style="mask-type:luminance" maskUnits="userSpaceOnUse" x="1010" y="453" width="155" height="63">
<path d="M1164.04 453.96H1010.96V515.04H1164.04V453.96Z" fill="white"/>
</mask>
<g mask="url(#mask1_1_215)">
<path d="M1087.5 455.399C1103 455.399 1115.56 467.451 1115.56 482.317C1115.56 497.184 1103 509.236 1087.5 509.236C1072 509.236 1059.44 497.184 1059.44 482.317C1059.44 467.451 1072 455.399 1087.5 455.399Z" fill="#95FF00"/>
</g>
<mask id="mask2_1_215" style="mask-type:luminance" maskUnits="userSpaceOnUse" x="1010" y="453" width="155" height="63">
<path d="M1164.04 453.96H1010.96V515.04H1164.04V453.96Z" fill="white"/>
</mask>
<g mask="url(#mask2_1_215)">
<path d="M1087.5 470.816C1094.12 470.816 1099.49 475.965 1099.49 482.317C1099.49 488.669 1094.12 493.819 1087.5 493.819C1080.88 493.819 1075.51 488.669 1075.51 482.317C1075.51 475.965 1080.88 470.816 1087.5 470.816Z" fill="#080201"/>
</g>
<mask id="mask3_1_215" style="mask-type:luminance" maskUnits="userSpaceOnUse" x="1010" y="453" width="155" height="63">
<path d="M1164.04 453.281H1010.96V515.724H1164.04V453.281Z" fill="white"/>
</mask>
<g mask="url(#mask3_1_215)">
<path d="M1095.66 469.103C1098.42 469.103 1100.65 471.295 1100.65 473.998C1100.65 476.701 1098.42 478.893 1095.66 478.893C1092.91 478.893 1090.67 476.701 1090.67 473.998C1090.67 471.295 1092.91 469.103 1095.66 469.103Z" fill="white"/>
</g>
<mask id="mask4_1_215" style="mask-type:luminance" maskUnits="userSpaceOnUse" x="1010" y="453" width="155" height="63">
<path d="M1164.04 453.28H1010.96V515.722H1164.04V453.28Z" fill="white"/>
</mask>
<g mask="url(#mask4_1_215)">
<path d="M1093.3 480.91C1094.41 480.91 1095.3 481.787 1095.3 482.868C1095.3 483.949 1094.41 484.826 1093.3 484.826C1092.2 484.826 1091.31 483.949 1091.31 482.868C1091.31 481.787 1092.2 480.91 1093.3 480.91Z" fill="white"/>
</g>
</g>
<path d="M504 172.5L522.5 191.5" stroke="#A7FF2B" stroke-width="5"/>
<path d="M523 171.5L504 190.5" stroke="#A7FF2B" stroke-width="5"/>
<circle cx="561" cy="425" r="25" fill="#B000FF"/>
<circle cx="561" cy="425" r="25" fill="#B000FF"/>
<circle cx="629" cy="449" r="25" fill="#B000FF"/>
<circle cx="629" cy="449" r="25" fill="#B000FF"/>
<circle cx="641" cy="389" r="25" fill="#B000FF"/>
<circle cx="641" cy="389" r="25" fill="#B000FF"/>
<circle cx="525" cy="496" r="25" fill="#B000FF"/>
<circle cx="525" cy="496" r="25" fill="#B000FF"/>
<circle cx="574" cy="552" r="25" fill="#B000FF"/>
<circle cx="574" cy="552" r="25" fill="#B000FF"/>
<circle cx="536" cy="594" r="25" fill="#B000FF"/>
<circle cx="536" cy="594" r="25" fill="#B000FF"/>
<circle cx="650" cy="558" r="25" fill="#B000FF"/>
<circle cx="650" cy="558" r="25" fill="#B000FF"/>
<circle cx="710" cy="348" r="25" fill="#B000FF"/>
<circle cx="710" cy="348" r="25" fill="#B000FF"/>
<circle cx="691" cy="286" r="25" fill="#B000FF"/>
<circle cx="691" cy="286" r="25" fill="#B000FF"/>
<circle cx="721" cy="224" r="25" fill="#B000FF"/>
<circle cx="721" cy="224" r="25" fill="#B000FF"/>
<path d="M573.5 463.5L586.5 519.5L571 524L673 496" stroke="white" stroke-width="3"/>
<path d="M863 506.5C833.474 487.233 805.5 481.5 759.5 499" stroke="white" stroke-width="3"/>
<circle cx="615" cy="320" r="4" fill="black"/>
<path d="M546 333.5C552.756 336.322 555.293 339.043 557.5 346" stroke="black"/>
<circle cx="589" cy="322" r="4" fill="black"/>
<path d="M606 318.5C612.674 334.765 612.259 339.398 602 343.5" stroke="black"/>
<path d="M583 351C585.832 356.503 587.498 359.561 599 362" stroke="black"/>
<defs>
<clipPath id="clip0_1_215">
<rect width="147" height="141" fill="white" transform="translate(1014 414)"/>
</clipPath>
</defs>
</svg>
