<svg width="696" height="316" viewBox="0 0 696 316" fill="none" xmlns="http://www.w3.org/2000/svg">
<path d="M1.52 52.1437V6.14375C1.52 2.14369 1.52 2.14373 6.52 2.14375H110.02C121.02 2.14366 119.02 3.14389 122.52 10.1437L174.02 138.144H177.52V70.1438C177.333 62.068 177.52 59.6438 167.52 58.6437H161.52C154.02 58.6437 155.52 59.1438 155.52 51.6437V10.1437C155.52 0.643795 154.02 2.14375 163.02 2.14375H264.02C269.02 1.64399 268.02 2.14371 268.02 8.64375V51.6437C268.02 58.6437 268.52 57.6438 263.02 57.6438H256.02C247.192 59.3679 245.287 63.0342 244.52 70.1438V307.644C244.52 316.644 245.52 315.144 236.02 315.144H158.52C150.02 315.144 152.02 315.144 148.52 307.644L95.52 175.144C93.0485 168.796 91.7407 165.62 92.52 175.144V244.644C93.2262 255.154 96.0033 258.502 104.52 260.644H109.02C115.52 260.644 115.52 260.644 115.52 267.644V307.644C115.52 316.144 115.52 315.144 109.02 315.144H4.52C1.02001 315.144 1.02 316.144 1.02 310.144V265.644C1.01999 262.144 0.520004 260.644 4.52 260.644H12.02C20.5695 257.854 22.455 254.484 23.52 244.644V72.6438C21.7939 61.9678 18.5888 59.4216 6.52 57.1437C1.52 57.1437 1.52 57.6438 1.52 52.1437Z" fill="#04C3FF" stroke="#04C3FF"/>
<path d="M537.118 244.204V69.7044C529.118 58.7044 520.618 58.2044 513.118 69.7044V110.704C513.118 128.204 516.118 129.704 501.618 129.704H465.618C453.118 129.704 455.118 127.204 455.118 110.704V25.7044C455.118 0.204355 454.118 1.70426 475.618 2.20436H679.118C697.118 2.20438 695.118 3.70433 695.118 19.2044V111.204C695.118 129.204 696.618 129.204 683.618 129.204H649.618C637.618 129.204 638.118 126.704 638.118 112.204V91.2044V72.2044C630.118 59.2044 622.118 59.2044 614.118 72.2044V244.204V298.704C614.118 311.704 614.118 314.704 605.618 314.704H547.118C537.118 314.704 537.118 314.704 537.118 298.704V244.204Z" fill="#04C3FF" stroke="#04C3FF"/>
<path d="M279.024 244.621V70.121V14.6211C279.024 2.12091 278.024 1.62106 289.024 2.12101H347.524C356.024 2.12104 356.024 2.12101 356.024 14.6211V72.621V244.621V299.121C356.024 312.121 356.024 315.121 347.524 315.121H289.024C279.024 315.121 279.024 315.121 279.024 299.121V244.621Z" fill="#04C3FF" stroke="#04C3FF"/>
<path d="M367 244V69.4999V13.9999C367 1.49977 366 0.999971 377 1.49992H435.5C444 1.49995 444 1.49987 444 13.9999V71.9999V244V298.5C444 311.5 444 314.5 435.5 314.5H377C367 314.5 367 314.5 367 298.5V244Z" fill="#04C3FF" stroke="#04C3FF"/>
</svg>
