<?xml version="1.0" encoding="UTF-8" standalone="no" ?>
<!DOCTYPE svg PUBLIC "-//W3C//DTD SVG 1.1//EN" "http://www.w3.org/Graphics/SVG/1.1/DTD/svg11.dtd">
<svg xmlns="http://www.w3.org/2000/svg" xmlns:xlink="http://www.w3.org/1999/xlink" version="1.1" width="1080" height="1080" viewBox="0 0 1080 1080" xml:space="preserve">
<desc>Created with Fabric.js 5.2.4</desc>
<defs>
</defs>
<g transform="matrix(1 0 0 1 540 540)" id="42e4e4c3-c514-472e-bdb9-545cc922f6f8"  >
<rect style="stroke: none; stroke-width: 1; stroke-dasharray: none; stroke-linecap: butt; stroke-dashoffset: 0; stroke-linejoin: miter; stroke-miterlimit: 4; fill: rgb(255,255,255); fill-rule: nonzero; opacity: 1; visibility: hidden;" vector-effect="non-scaling-stroke"  x="-540" y="-540" rx="0" ry="0" width="1080" height="1080" />
</g>
<g transform="matrix(1 0 0 1 540 540)" id="0559c133-503d-49b5-bee9-e4067d416b75"  >
</g>
<g transform="matrix(5.57 0 0 5.57 540 540)"  >
<g style=""   >
		<g transform="matrix(1 0 0 1 0.1 0.39)"  >
<path style="stroke: none; stroke-width: 1; stroke-dasharray: none; stroke-linecap: butt; stroke-dashoffset: 0; stroke-linejoin: miter; stroke-miterlimit: 4; fill: rgb(62,70,110); fill-rule: nonzero; opacity: 1;" vector-effect="non-scaling-stroke"  transform=" translate(-97.1, -34.39)" d="M 137.904 28.916 L 144.066 28.916 L 144.066 43.696 L 147.91400000000002 43.696 L 147.91400000000002 28.915999999999997 L 154.07600000000002 28.915999999999997 L 154.07600000000002 25.09 L 137.90400000000002 25.09 L 137.90400000000002 28.916 M 167.084 34.164 L 160.588 25.090000000000003 L 157.652 25.090000000000003 L 157.652 43.696000000000005 L 161.5 43.696000000000005 L 161.5 33.166000000000004 L 166.06 39.411 L 168.127 39.411 L 172.687 33.166000000000004 L 172.687 43.696000000000005 L 176.537 43.696000000000005 L 176.537 25.09 L 173.6 25.09 L 167.084 34.164 M 183.947 39.869 L 183.947 25.089 L 180.097 25.089 L 180.097 43.696 L 193.583 43.696 L 193.583 39.869 L 183.947 39.869 M 130.883 32.436 L 122.81900000000002 32.436 L 122.81900000000002 25.09 L 118.97100000000002 25.09 L 118.97100000000002 43.696 L 122.81900000000002 43.696 L 122.81900000000002 36.263 L 130.883 36.263 L 130.883 43.696999999999996 L 134.733 43.696999999999996 L 134.733 25.09 L 130.883 25.09 L 130.883 32.436 M 18.01 25.09 L 21.860000000000003 25.09 L 21.860000000000003 43.697 L 18.01 43.697 L 18.01 25.09 z M 42.128 25.09 L 37.835 25.09 L 33.715 31.055 L 29.611000000000004 25.09 L 25.297000000000004 25.09 L 31.557000000000002 34.175 L 25.007 43.69499999999999 L 29.318 43.69499999999999 L 33.715 37.312999999999995 L 38.129000000000005 43.696 L 42.419000000000004 43.696 L 35.86900000000001 34.175 L 42.129000000000005 25.089999999999996 M 66.16 39.869 L 66.16 25.089 L 62.309999999999995 25.089 L 62.309999999999995 43.696 L 75.237 43.696 L 75.237 39.869 L 66.16 39.869 M 9.074 25.096 L 9.074 25.09 L 0.624 25.09 L 0.624 43.696 L 4.4719999999999995 43.696 L 4.4719999999999995 37.88 L 6.567 37.88 L 6.567 37.874 L 9.074 37.874 L 9.074 37.866 C 12.531046142927362 37.76925350777439 15.283299832120976 34.938899618044005 15.283299832120976 31.4805 C 15.283299832120976 28.022100381955994 12.531046142927362 25.19174649222561 9.074 25.095 z M 8.940999999999999 34.016 L 4.470999999999999 34.016 L 4.470999999999999 28.948 L 8.940999999999999 28.948 C 10.312772910993676 28.986542222788742 11.404803089954644 30.109685742159048 11.404803089954646 31.482 C 11.404803089954646 32.85431425784095 10.312772910993676 33.97745777721126 8.940999999999999 34.016 z M 49.415 36.263 L 58.16 36.263 L 58.16 32.436 L 49.415 32.436 L 49.415 28.916 L 58.816 28.916 L 58.816 25.09 L 45.566 25.09 L 45.566 43.696 L 59.012 43.696 L 59.012 39.869 L 49.414 39.869 L 49.414 36.263" stroke-linecap="round" />
</g>
		<g transform="matrix(1 0 0 1 -0.96 2.29)"  >
<path style="stroke: none; stroke-width: 1; stroke-dasharray: none; stroke-linecap: butt; stroke-dashoffset: 0; stroke-linejoin: miter; stroke-miterlimit: 4; fill: rgb(253,199,90); fill-rule: nonzero; opacity: 1;" vector-effect="non-scaling-stroke"  transform=" translate(-96.04, -36.29)" d="M 105.77 20.702 L 108.851 22.48 L 110.728 19.228 L 107.648 17.450000000000003 L 105.76899999999999 20.702 M 106.554 16.819 L 103.47200000000001 15.039 L 101.59500000000001 18.294 L 104.677 20.071 L 106.554 16.819000000000003 M 88.534 48.034 L 85.45200000000001 46.254 L 81.35300000000001 53.355999999999995 L 84.43400000000001 55.13499999999999 L 88.534 48.03399999999999 M 85.526 55.766 L 88.60799999999999 57.544 L 92.70799999999998 50.443 L 89.62599999999999 48.666 L 85.526 55.766" stroke-linecap="round" />
</g>
		<g transform="matrix(1 0 0 1 -14.04 25.2)"  >
<path style="stroke: none; stroke-width: 1; stroke-dasharray: none; stroke-linecap: butt; stroke-dashoffset: 0; stroke-linejoin: miter; stroke-miterlimit: 4; fill: rgb(239,110,48); fill-rule: nonzero; opacity: 1;" vector-effect="non-scaling-stroke"  transform=" translate(-82.96, -59.2)" d="M 78.537 58.232 C 78.0085406951418 59.15122887934452 78.32338570213788 60.324742087238974 79.241 60.856 L 83.169 63.125 C 84.08815177080557 63.65404934518354 85.26210418806818 63.33908650152772 85.79299999999999 62.421 L 87.645 59.214 L 80.389 55.025999999999996 L 78.53699999999999 58.232" stroke-linecap="round" />
</g>
		<g transform="matrix(1 0 0 1 11.46 -20.26)"  >
<path style="stroke: none; stroke-width: 1; stroke-dasharray: none; stroke-linecap: butt; stroke-dashoffset: 0; stroke-linejoin: miter; stroke-miterlimit: 4; fill: rgb(255,255,255); fill-rule: nonzero; opacity: 1;" vector-effect="non-scaling-stroke"  transform=" translate(-108.46, -13.74)" d="M 112.068 11.748 L 109.298 10.148 L 104.851 13.608 L 111.304 17.334 L 112.068 11.748" stroke-linecap="round" />
</g>
		<g transform="matrix(1 0 0 1 11.46 -20.26)"  >
<path style="stroke: none; stroke-width: 1; stroke-dasharray: none; stroke-linecap: butt; stroke-dashoffset: 0; stroke-linejoin: miter; stroke-miterlimit: 4; fill: rgb(254,227,172); fill-rule: nonzero; opacity: 1;" vector-effect="non-scaling-stroke"  transform=" translate(-108.46, -13.74)" d="M 109.3 10.149 L 104.852 13.608999999999998 L 111.305 17.334999999999997 L 112.069 11.748999999999997 L 109.299 10.148999999999997" stroke-linecap="round" />
</g>
		<g transform="matrix(1 0 0 1 0.01 0.35)"  >
<path style="stroke: none; stroke-width: 1; stroke-dasharray: none; stroke-linecap: butt; stroke-dashoffset: 0; stroke-linejoin: miter; stroke-miterlimit: 4; fill: rgb(62,70,110); fill-rule: nonzero; opacity: 1;" vector-effect="non-scaling-stroke"  transform=" translate(-97.01, -34.35)" d="M 75.93 12.19 L 75.99600000000001 12.187999999999999 C 76.342680583083 12.151265271239186 76.59414099620336 11.840742981727562 76.558 11.494 C 76.072 6.899 76.84500000000001 3.766 78.736 2.6739999999999995 C 81.174 1.2669999999999995 85.25800000000001 2.9289999999999994 89.396 7.013 C 89.64452813742386 7.2573860018001275 90.04411399819988 7.25402813742386 90.2885 7.005500000000002 C 90.53288600180014 6.756971862576145 90.52952813742387 6.357386001800127 90.281 6.1129999999999995 C 85.654 1.547 81.102 -0.15 78.106 1.583 C 75.723 2.9589999999999996 74.753 6.432 75.303 11.628 C 75.33722750953727 11.948016251239018 75.60715861695397 12.190781767973212 75.929 12.191 M 118.275 60.38 C 118.10831121185369 60.36846211769409 117.94386622700934 60.42361415520335 117.81784156167518 60.533323127257646 C 117.69181689634102 60.64303209931193 117.61453599240963 60.798311081049405 117.60300000000001 60.965 C 117.421 63.565000000000005 116.65400000000001 65.274 115.32300000000001 66.043 C 112.49300000000001 67.677 107.29100000000001 65.093 102.379 59.617000000000004 C 102.14648812032124 59.35742616757953 101.74757383242049 59.335488120321244 101.488 59.568000000000005 C 101.22842616757953 59.800511879678766 101.20648812032124 60.19942616757953 101.43900000000001 60.459 C 105.65 65.154 110.037 67.781 113.38400000000001 67.781 C 114.33100000000002 67.781 115.19800000000001 67.57000000000001 115.95000000000002 67.135 C 117.67000000000002 66.14200000000001 118.64700000000002 64.095 118.86000000000001 61.05200000000001 C 118.872081368195 60.885185457822 118.81712167286211 60.72044287890953 118.70730512813644 60.594294642916964 C 118.59748858341077 60.46814640692439 118.44188834717986 60.3910150131687 118.27500000000002 60.38000000000001" stroke-linecap="round" />
</g>
		<g transform="matrix(1 0 0 1 -0.7 0.61)"  >
<path style="stroke: none; stroke-width: 1; stroke-dasharray: none; stroke-linecap: butt; stroke-dashoffset: 0; stroke-linejoin: miter; stroke-miterlimit: 4; fill: rgb(105,197,199); fill-rule: nonzero; opacity: 1;" vector-effect="non-scaling-stroke"  transform=" translate(-96.3, -34.61)" d="M 78.95 5.053 L 79.057 4.91 L 78.949 5.053 M 78.41 6.2 L 78.476 5.996 L 78.41 6.2010000000000005 M 78.774 5.325 L 78.897 5.125 L 78.774 5.325 M 79.302 4.653 L 79.435 4.539999999999999 L 79.302 4.653 M 79.12 4.838 L 79.23400000000001 4.7170000000000005 L 79.11900000000001 4.837000000000001 M 78.321 6.534 L 78.378 6.309 L 78.321 6.534 M 78.51 5.898 L 78.595 5.686 L 78.51 5.898 M 113.537 64.647 L 113.351 64.67 L 113.537 64.647 M 112.611 64.655 L 112.40100000000001 64.624 L 112.611 64.654 M 113.795 64.59 L 113.633 64.629 L 113.795 64.589 M 114.35 64.366 L 114.12599999999999 64.476 L 114.34899999999999 64.366 M 114.051 64.506 L 113.887 64.565 L 114.051 64.505 M 78.242 6.92 C 78.26 6.824 78.277 6.729 78.298 6.636 C 78.278 6.729 78.26 6.825 78.242 6.92 M 78.892 14.24 L 78.765 13.686 L 78.892 14.241" stroke-linecap="round" />
</g>
		<g transform="matrix(1 0 0 1 0.03 0.36)"  >
<path style="stroke: none; stroke-width: 1; stroke-dasharray: none; stroke-linecap: butt; stroke-dashoffset: 0; stroke-linejoin: miter; stroke-miterlimit: 4; fill: rgb(160,218,224); fill-rule: nonzero; opacity: 1;" vector-effect="non-scaling-stroke"  transform=" translate(-97.03, -34.36)" d="M 101.355 54.104 L 101.37100000000001 54.094 C 101.766730700447 53.87592250774201 102.26120621890678 53.965713248002864 102.555 54.309000000000005 C 103.43556191749116 55.34431380578162 104.34868613331639 56.35148514683063 105.293 57.32900000000001 C 110.397 62.57900000000001 112.91000000000001 62.97200000000001 113.38900000000001 62.69500000000001 C 113.86600000000001 62.419000000000004 114.78200000000001 60.04500000000001 112.78900000000002 53.00300000000001 C 112.12900000000002 50.669000000000004 111.23900000000002 48.13300000000001 110.14900000000002 45.470000000000006 L 109.02900000000001 46.11600000000001 C 109.08400000000002 46.24300000000001 109.13600000000001 46.37200000000001 109.18700000000001 46.49600000000001 C 109.25300000000001 46.65500000000001 109.31700000000001 46.81100000000001 109.37800000000001 46.96900000000001 C 109.73432825149567 47.843973882613895 110.06909601515068 48.72757405560767 110.38200000000003 49.61900000000001 C 111.11800000000002 51.71600000000001 111.57900000000002 53.474000000000004 111.72600000000001 54.781000000000006 C 111.75300000000001 55.031000000000006 111.77100000000002 55.266000000000005 111.77600000000001 55.48100000000001 C 111.77700000000002 55.63100000000001 111.77600000000001 55.77300000000001 111.76700000000001 55.906000000000006 C 111.75959796904911 56.030040484422386 111.74524207405005 56.15356795301888 111.724 56.276 C 111.644 56.734 111.47 57.051 111.197 57.212 L 111.193 57.214000000000006 L 111.189 57.21600000000001 L 111.08699999999999 57.26500000000001 L 111.04999999999998 57.27700000000001 L 110.97399999999999 57.30000000000001 L 110.92499999999998 57.31000000000001 L 110.85299999999998 57.32300000000001 L 110.79599999999998 57.32600000000001 L 110.72999999999998 57.330000000000005 L 110.72399999999998 57.32900000000001 L 110.67099999999998 57.327000000000005 L 110.58899999999998 57.321000000000005 L 110.52999999999999 57.313 L 110.44599999999998 57.298 L 110.38399999999999 57.284 L 110.29799999999999 57.263 L 110.22999999999999 57.242 L 110.14399999999999 57.214 L 110.07199999999999 57.187 L 109.98199999999999 57.15 L 109.90599999999999 57.118 L 109.814 57.074000000000005 L 109.73599999999999 57.03600000000001 L 109.636 56.98400000000001 L 109.556 56.94000000000001 L 109.454 56.88000000000001 L 109.372 56.83000000000001 L 109.265 56.765000000000015 L 109.181 56.710000000000015 L 109.071 56.634000000000015 L 108.986 56.57700000000001 L 108.867 56.491000000000014 L 108.783 56.430000000000014 L 108.653 56.33000000000001 L 108.57600000000001 56.27000000000001 L 108.418 56.14300000000001 L 108.363 56.09900000000001 L 108.143 55.91600000000001 L 108.107 55.88600000000001 L 107.918 55.72000000000001 L 107.84 55.65000000000001 L 107.688 55.51300000000001 L 107.596 55.42900000000001 L 107.453 55.29400000000001 L 107.35300000000001 55.20000000000001 L 107.21300000000001 55.06500000000001 L 107.105 54.960000000000015 L 106.96600000000001 54.823000000000015 L 106.85700000000001 54.71200000000002 L 106.71700000000001 54.570000000000014 L 106.60300000000001 54.454000000000015 L 106.46300000000001 54.30600000000001 L 106.34500000000001 54.186000000000014 L 106.20000000000002 54.03100000000001 L 106.08500000000002 53.90600000000001 L 105.93700000000003 53.74500000000001 L 105.82000000000002 53.61500000000001 L 105.66800000000002 53.44700000000001 L 105.54900000000002 53.31400000000001 L 105.39300000000001 53.13600000000001 L 105.27600000000001 53.00400000000001 L 105.114 52.81600000000001 L 104.997 52.68300000000001 L 104.827 52.48100000000001 L 104.717 52.351000000000006 L 104.43299999999999 52.011 C 104.33744272795039 51.89734573706486 104.24310399710946 51.78267250947021 104.15 51.667 L 104.14399999999999 51.661 L 103.84899999999999 51.298 L 103.773 51.202000000000005 C 103.70057826895346 51.1096077537116 103.62724132371017 51.017936572157474 103.55299999999998 50.92699999999999 L 103.448 50.79500000000001 L 103.255 50.54800000000001 L 103.136 50.397000000000006 L 102.94999999999999 50.160000000000004 L 102.823 49.99400000000001 L 102.66699999999999 49.78900000000001 L 98.40899999999999 52.24600000000001 C 99.27410756261091 53.37134849586654 100.16704991903504 54.47502258091658 101.08699999999996 55.55600000000002 C 100.90181232194749 55.337771525973174 100.82451147316263 55.047866794727916 100.87646126922267 54.76640745189511 C 100.92841106528273 54.4849481090623 101.10411009191287 54.241740324518986 101.35499999999999 54.10400000000001 M 83.787 13.094 C 83.76041650096684 12.864508314984336 83.74406696897407 12.633946547494526 83.738 12.402999999999997 L 83.738 12.175999999999998 C 83.752 11.401999999999997 83.94 10.881999999999998 84.319 10.662999999999998 L 84.327 10.658999999999999 L 84.42399999999999 10.613 L 84.46799999999999 10.599 L 84.53799999999998 10.577 L 84.59199999999998 10.567 L 84.65999999999998 10.555 L 84.71999999999998 10.551 L 84.78099999999999 10.549 L 84.788 10.549 L 84.843 10.551 L 84.923 10.557 L 84.98400000000001 10.565 L 85.06500000000001 10.578999999999999 L 85.13000000000001 10.594 L 85.21300000000001 10.613999999999999 L 85.283 10.636 L 85.369 10.665 L 85.44 10.691999999999998 L 85.53 10.726999999999999 L 85.605 10.758999999999999 L 85.70100000000001 10.803999999999998 L 85.778 10.841999999999999 L 85.876 10.893999999999998 L 85.956 10.937999999999999 L 86.059 10.996999999999998 L 86.14 11.045999999999998 L 86.25 11.113999999999997 L 86.33 11.166999999999998 L 86.446 11.244999999999997 L 86.526 11.299999999999997 L 86.64999999999999 11.389999999999997 L 86.72699999999999 11.446999999999997 L 86.86699999999999 11.551999999999998 L 86.93499999999999 11.604999999999999 L 87.10699999999999 11.741999999999999 L 87.14899999999999 11.776 L 87.37199999999999 11.963 L 87.59699999999998 12.158 L 87.65999999999998 12.215 L 87.82699999999998 12.365 L 87.90799999999999 12.44 L 88.06199999999998 12.584 L 88.15199999999999 12.669 L 88.30399999999999 12.815000000000001 L 88.39799999999998 12.908000000000001 L 88.54999999999998 13.057 L 88.64799999999998 13.156 L 88.79899999999998 13.31 L 88.90299999999998 13.416 L 89.05599999999998 13.575000000000001 L 89.15999999999998 13.684000000000001 L 89.31499999999998 13.850000000000001 L 89.42199999999998 13.964000000000002 L 89.58199999999998 14.139000000000003 L 89.68599999999998 14.254000000000003 L 89.85199999999998 14.438000000000002 L 89.95599999999997 14.555000000000003 L 90.12699999999998 14.749000000000004 L 90.23099999999998 14.867000000000004 L 90.41099999999999 15.074000000000005 L 90.50799999999998 15.187000000000005 L 90.70599999999997 15.419000000000004 L 90.78999999999998 15.518000000000004 L 91.01999999999998 15.790000000000004 L 91.07699999999998 15.859000000000005 C 91.27099999999999 16.092000000000006 91.46799999999999 16.333000000000006 91.66699999999999 16.579000000000004 L 91.707 16.631000000000004 L 91.963 16.950000000000003 L 92.04499999999999 17.054000000000002 L 92.26199999999999 17.329 L 92.36499999999998 17.462 L 92.56499999999998 17.718 L 92.67699999999998 17.866 L 92.86899999999997 18.115 L 92.89099999999998 18.145 L 94.01099999999998 17.499 C 92.23199999999999 15.198999999999998 90.46599999999998 13.140999999999998 88.76099999999998 11.386 C 83.65799999999999 6.137999999999999 81.14399999999998 5.7459999999999996 80.66599999999998 6.022999999999999 C 80.18799999999999 6.297999999999999 79.26999999999998 8.671 81.26599999999998 15.712999999999997 C 81.61068373695406 16.92015611567693 81.99152186787116 18.116694831728196 82.40799999999999 19.30100000000002 C 82.56196443922772 19.733719660276115 82.38538162834669 20.214697602294923 81.98799999999997 20.444999999999997 L 81.96799999999998 20.456999999999997 C 81.72190092865988 20.5988281929168 81.42540234328116 20.62361850374937 81.15916825137026 20.52462659738889 C 80.89293415945937 20.42563469102841 80.68465711905661 20.21315729203308 80.59099999999998 19.944999999999997 C 81.10363462068577 21.408357891347563 81.65752238508382 22.856936126474004 82.25200000000002 24.289000000000037 L 86.50999999999998 21.830999999999996 C 84.96799999999998 18.134999999999994 84.00999999999998 15.085999999999995 83.78699999999998 13.093999999999996" stroke-linecap="round" />
</g>
		<g transform="matrix(1 0 0 1 -1.7 0.32)"  >
<path style="stroke: none; stroke-width: 1; stroke-dasharray: none; stroke-linecap: butt; stroke-dashoffset: 0; stroke-linejoin: miter; stroke-miterlimit: 4; fill: rgb(105,197,199); fill-rule: nonzero; opacity: 1;" vector-effect="non-scaling-stroke"  transform=" translate(-95.3, -34.32)" d="M 80.082 18.434 C 80.00802821047839 18.204204054071777 79.93469459448127 17.974203167535283 79.86200000000002 17.74399999999999 C 79.93299999999999 17.972 80.00699999999999 18.201 80.082 18.434 M 79.846 17.692 C 79.77600000000001 17.462 79.70400000000001 17.236 79.637 17.011 C 79.705 17.236 79.775 17.463 79.847 17.691 M 78.308 11.187 M 112.293 64.604 L 112.08000000000001 64.556 L 112.293 64.604 M 103.67 58.422 C 103.52 58.266 103.371 58.108 103.22 57.946999999999996 C 103.371 58.10699999999999 103.52 58.266 103.67 58.422 M 106.613 61.235 C 106.484 61.124 106.353 61.01 106.223 60.893 C 106.353 61.01 106.484 61.123 106.613 61.235 M 106.137 60.817 L 105.744 60.461 C 105.877 60.58 106.008 60.699999999999996 106.137 60.817 M 104.181 58.949 C 104.035 58.799 103.886 58.647999999999996 103.738 58.492999999999995 L 104.181 58.949 M 101.596 56.15 C 101.438 55.967 101.278 55.782 101.119 55.594 C 101.277 55.782000000000004 101.437 55.967 101.596 56.15 M 84.721 5.424 C 82.623 4.094 80.888 3.6710000000000003 79.705 4.353000000000001 L 79.496 4.492000000000001 L 79.70599999999999 4.354000000000001 C 80.88799999999999 3.671000000000001 82.62299999999999 4.094000000000001 84.72099999999999 5.424000000000001 M 111.974 64.53 L 111.73 64.46000000000001 L 111.974 64.53 M 110.115 63.754 C 110.00999999999999 63.693999999999996 109.90599999999999 63.637 109.801 63.574 C 109.906 63.637 110.011 63.696 110.115 63.754 M 108.002 62.362 C 107.872 62.262 107.73599999999999 62.160000000000004 107.604 62.052 C 107.736 62.159 107.871 62.262 108.002 62.362 M 108.851 62.973 C 108.744 62.9 108.634 62.824999999999996 108.525 62.746 C 108.635 62.825 108.745 62.900000000000006 108.851 62.973" stroke-linecap="round" />
</g>
		<g transform="matrix(1 0 0 1 -0.85 0.67)"  >
<path style="stroke: none; stroke-width: 1; stroke-dasharray: none; stroke-linecap: butt; stroke-dashoffset: 0; stroke-linejoin: miter; stroke-miterlimit: 4; fill: rgb(62,70,110); fill-rule: nonzero; opacity: 1;" vector-effect="non-scaling-stroke"  transform=" translate(-96.15, -34.67)" d="M 101.12 55.594 C 101.277 55.782000000000004 101.437 55.967 101.596 56.15 L 101.63300000000001 56.19 C 102.15400000000001 56.788999999999994 102.67000000000002 57.36 103.17600000000002 57.9 L 103.21900000000002 57.948 L 103.67000000000002 58.423 L 103.73800000000001 58.493 C 103.88600000000001 58.648 104.03500000000001 58.800000000000004 104.18100000000001 58.949000000000005 L 104.22800000000001 58.995000000000005 C 104.718 59.492000000000004 105.203 59.96000000000001 105.67500000000001 60.397000000000006 L 105.74300000000001 60.46000000000001 L 106.13600000000001 60.81600000000001 L 106.22200000000001 60.89200000000001 C 106.35300000000001 61.00900000000001 106.48400000000001 61.12200000000001 106.61300000000001 61.23400000000001 L 106.677 61.290000000000006 C 106.98200000000001 61.553000000000004 107.284 61.800000000000004 107.57900000000001 62.034000000000006 L 107.602 62.053000000000004 C 107.735 62.159000000000006 107.87 62.26200000000001 108 62.362 L 108.092 62.43 L 108.42 62.672 L 108.524 62.745999999999995 C 108.634 62.824 108.744 62.898999999999994 108.85 62.97299999999999 L 108.93599999999999 63.03199999999999 C 109.207 63.21499999999999 109.476 63.38599999999999 109.737 63.53999999999999 L 109.79899999999999 63.57599999999999 C 109.904 63.63799999999999 110.00899999999999 63.69599999999999 110.11299999999999 63.754999999999995 L 110.21799999999999 63.81099999999999 C 110.30799999999999 63.85999999999999 110.398 63.90599999999999 110.48599999999999 63.949999999999996 L 110.597 64.006 C 110.687 64.049 110.77499999999999 64.091 110.863 64.131 L 110.957 64.171 C 111.074 64.22300000000001 111.187 64.271 111.30099999999999 64.31500000000001 L 111.30499999999999 64.31500000000001 C 111.41999999999999 64.36000000000001 111.535 64.4 111.64699999999999 64.43500000000002 L 111.72899999999998 64.46100000000001 L 111.97299999999998 64.531 L 112.07799999999999 64.557 L 112.29099999999998 64.605 L 112.39799999999998 64.625 L 112.60899999999998 64.655 L 112.70099999999998 64.668 C 112.79699999999998 64.67800000000001 112.88899999999998 64.68400000000001 112.98099999999998 64.68700000000001 L 112.99099999999999 64.68700000000001 C 113.08599999999998 64.68900000000001 113.17799999999998 64.686 113.26899999999999 64.68 L 113.34899999999999 64.67200000000001 L 113.535 64.64900000000002 L 113.631 64.63100000000001 L 113.793 64.59100000000001 L 113.885 64.56700000000001 L 114.049 64.507 L 114.125 64.477 L 114.348 64.367 L 114.35 64.366 C 116.315 63.231 116.401 59.246 114.952 53.625 C 114.74936396577631 52.842856742578505 114.52930925077989 52.065330082924454 114.292 51.29299999999999 C 114.03502785109076 50.45781366568977 113.76197711101514 49.62765940099102 113.47299999999998 48.80299999999997 C 113.399 48.587999999999994 113.321 48.373 113.244 48.157 C 112.79927673494566 46.927613085753855 112.32715907895586 45.70830922420392 111.82800000000002 44.50000000000004 L 112.83200000000001 43.92 C 113.09769271296666 43.76636506338479 113.26151535555323 43.48291379342106 113.26200000000001 43.176 L 113.26200000000001 25.526000000000003 C 113.26172085346157 25.21903095641916 113.09784317311374 24.935484458328997 112.83200000000001 24.782000000000004 L 110.52000000000001 23.448000000000004 L 113.00000000000001 19.152000000000005 L 114.85400000000001 5.589000000000004 C 114.91391598282964 5.18019809748913 114.7170204475557 4.776482856816571 114.35800000000002 4.5720000000000045 C 114.00122412483734 4.362761833549616 113.55264316514383 4.393725828997486 113.22800000000002 4.650000000000005 L 102.36800000000002 13.100000000000005 L 99.92800000000003 17.330000000000005 L 97.54800000000003 15.957000000000006 C 97.28175031371735 15.80399192557152 96.95424968628271 15.80399192557152 96.68800000000003 15.957000000000006 L 95.69400000000003 16.531000000000006 C 91.661 11.289 87.8 7.379 84.72 5.426 C 82.622 4.096 80.887 3.673 79.704 4.356 L 79.49499999999999 4.494 L 79.43499999999999 4.539 L 79.30199999999999 4.653 L 79.234 4.717 L 79.119 4.837 L 79.057 4.91 L 78.949 5.053 L 78.89699999999999 5.125 L 78.77399999999999 5.325 L 78.75399999999999 5.36 C 78.70741374345263 5.444159643929468 78.66437596121514 5.530235208404436 78.62499999999999 5.618 L 78.59499999999998 5.686 L 78.50999999999999 5.898 L 78.47699999999999 5.9959999999999996 L 78.41099999999999 6.201 L 78.37899999999999 6.308999999999999 L 78.32199999999999 6.533999999999999 L 78.29899999999999 6.636999999999999 C 78.279 6.729999999999999 78.261 6.824999999999998 78.243 6.9209999999999985 L 78.23299999999999 6.980999999999998 C 78.21239202002194 7.106570062149877 78.19472053190472 7.232604449099103 78.17999999999999 7.359000000000004 L 78.17699999999999 7.392999999999998 C 78.16236171028727 7.510324888281465 78.15102390043656 7.628038031731593 78.14299999999999 7.745999999999998 L 78.13699999999999 7.850999999999998 C 78.12999999999998 7.950999999999998 78.12499999999999 8.052999999999999 78.12099999999998 8.156999999999998 L 78.11699999999998 8.278999999999998 C 78.11414815867208 8.384975459555468 78.11281468851222 8.490986337264463 78.11299999999997 8.597000000000003 L 78.11299999999997 8.711999999999998 C 78.11299999999997 8.836999999999998 78.11599999999997 8.963999999999999 78.11999999999998 9.093999999999998 L 78.12199999999997 9.158999999999997 C 78.13399999999997 9.472999999999997 78.15499999999997 9.801999999999998 78.18599999999996 10.138999999999998 L 78.19299999999997 10.208999999999998 C 78.20699999999997 10.353999999999997 78.22299999999997 10.498999999999997 78.23899999999998 10.646999999999998 L 78.25299999999997 10.755999999999998 C 78.27099999999997 10.899 78.28799999999997 11.040999999999999 78.30899999999997 11.185999999999998 L 78.32299999999996 11.290999999999999 L 78.39799999999997 11.780999999999999 L 78.40799999999997 11.831 C 78.49999999999997 12.401 78.61399999999998 12.997 78.75099999999998 13.615 L 78.76699999999998 13.685 L 78.89399999999998 14.24 L 78.91399999999997 14.319 L 79.05999999999997 14.917000000000002 L 79.06799999999997 14.949000000000002 C 79.23599999999998 15.609000000000002 79.42499999999997 16.293000000000003 79.63499999999996 16.996000000000002 L 79.63899999999997 17.011000000000003 C 79.70599999999996 17.236000000000004 79.77699999999997 17.463000000000005 79.84899999999996 17.691000000000003 L 79.86399999999996 17.745 C 79.93499999999996 17.973000000000003 80.00899999999996 18.202 80.08399999999996 18.434 L 80.09099999999997 18.454 C 80.25099999999996 18.943 80.41899999999997 19.441 80.59599999999996 19.947 C 80.69038573027038 20.214568097526925 80.89885822942973 20.426314048056522 81.16492343783797 20.524856717837356 C 81.43098864624622 20.623399387618186 81.72709481664093 20.59853442581232 81.97299999999996 20.457 L 81.99299999999995 20.445 C 82.38973095269455 20.21415146985886 82.56611495817614 19.733715035880422 82.41299999999995 19.301000000000002 C 81.99651356317246 18.116932527884966 81.61534496204567 16.92073675164545 81.26999999999995 15.714000000000006 C 79.27599999999995 8.671000000000003 80.19399999999996 6.298000000000002 80.67099999999995 6.0230000000000015 C 81.14899999999994 5.747000000000002 83.66299999999995 6.138000000000002 88.76599999999995 11.386000000000003 C 90.47099999999995 13.141000000000002 92.23699999999995 15.200000000000003 94.01599999999995 17.499000000000002 L 92.89599999999994 18.145000000000003 L 92.87399999999994 18.115000000000002 L 92.68199999999995 17.865000000000002 L 92.56999999999995 17.718000000000004 L 92.36999999999995 17.462000000000003 L 92.26699999999995 17.329000000000004 C 92.19499999999995 17.236000000000004 92.12199999999996 17.145000000000003 92.04999999999995 17.054000000000006 L 91.96799999999996 16.950000000000006 L 91.71199999999996 16.630000000000006 L 91.67199999999995 16.579000000000008 C 91.47678107079892 16.337817299905268 91.28011083480379 16.09781294411459 91.08199999999991 15.85899999999996 L 91.02399999999994 15.789000000000007 C 90.94699999999995 15.698000000000008 90.87199999999994 15.606000000000007 90.79499999999994 15.518000000000006 L 90.71099999999994 15.418000000000006 L 90.51299999999995 15.187000000000006 L 90.41599999999995 15.074000000000007 L 90.23599999999995 14.867000000000006 L 90.13199999999995 14.749000000000006 L 89.96199999999995 14.555000000000005 L 89.85699999999994 14.438000000000004 L 89.69099999999995 14.254000000000005 L 89.58599999999994 14.139000000000005 L 89.42399999999994 13.964000000000004 L 89.31699999999994 13.850000000000003 L 89.16199999999994 13.684000000000003 L 89.05799999999994 13.574000000000003 L 88.90499999999993 13.416000000000004 L 88.80099999999993 13.310000000000004 L 88.65099999999993 13.156000000000004 L 88.55199999999992 13.056000000000004 L 88.39999999999992 12.908000000000005 L 88.30599999999993 12.815000000000005 L 88.15399999999993 12.669000000000004 L 88.06399999999992 12.584000000000003 L 87.90999999999993 12.440000000000003 L 87.82999999999993 12.365000000000004 L 87.66199999999992 12.215000000000003 L 87.59899999999992 12.158000000000003 L 87.37399999999992 11.963000000000003 L 87.15099999999993 11.776000000000003 L 87.10899999999992 11.742000000000003 L 86.93699999999993 11.605000000000002 L 86.86799999999992 11.552000000000001 L 86.72899999999993 11.447000000000001 L 86.65199999999993 11.39 L 86.52799999999993 11.3 L 86.44799999999994 11.245000000000001 L 86.33199999999994 11.167000000000002 L 86.25199999999994 11.114 L 86.14199999999994 11.046000000000001 L 86.06199999999994 10.996 L 85.95699999999994 10.938 L 85.87799999999994 10.894 L 85.77999999999994 10.842 L 85.70299999999995 10.804 L 85.60699999999994 10.759 L 85.53199999999994 10.727 L 85.44199999999994 10.692 L 85.37199999999994 10.665000000000001 L 85.28399999999995 10.635000000000002 L 85.21499999999995 10.615000000000002 L 85.13199999999995 10.594000000000001 L 85.06699999999995 10.579 L 84.98699999999995 10.565000000000001 L 84.92499999999995 10.557000000000002 L 84.84499999999996 10.551000000000002 L 84.78999999999995 10.549000000000001 L 84.78299999999994 10.549000000000001 L 84.72099999999995 10.551000000000002 L 84.66199999999995 10.555000000000001 L 84.59399999999995 10.567000000000002 L 84.53999999999995 10.577000000000002 L 84.46999999999996 10.599000000000002 L 84.42399999999995 10.613000000000001 L 84.32699999999996 10.660000000000002 L 84.31999999999995 10.663000000000002 L 84.31799999999996 10.665000000000003 C 83.93999999999996 10.883000000000003 83.75199999999995 11.402000000000003 83.73799999999996 12.177000000000003 L 83.73799999999996 12.404000000000003 C 83.74199999999996 12.618000000000004 83.75899999999996 12.848000000000004 83.78799999999995 13.094000000000003 C 84.00899999999996 15.087000000000003 84.96799999999996 18.136000000000003 86.51299999999995 21.832 L 81.40499999999994 24.78 C 81.13915682688621 24.933484458328994 80.97527914653838 25.21703095641916 80.97499999999994 25.524 L 80.97499999999994 43.174 C 80.97492204746636 43.48132634293595 81.1388475654957 43.76533683347514 81.40499999999994 43.919 L 83.78499999999994 45.291 L 76.86899999999994 57.268 C 75.80671345220044 59.10967044612959 76.43787493610196 61.463768491404814 78.27899999999994 62.527 L 82.20599999999995 64.794 C 84.04662304809341 65.85585323556009 86.3995026417185 65.22567357647237 87.46299999999995 63.385999999999996 L 94.37799999999996 51.40899999999999 L 96.68999999999996 52.742999999999995 C 96.955973917585 52.897037935631424 97.28402608241491 52.897037935631424 97.54999999999995 52.742999999999995 L 102.66699999999996 49.78999999999999 L 102.82299999999996 49.99499999999999 L 102.94999999999996 50.16099999999999 L 103.13599999999997 50.39799999999999 L 103.25599999999997 50.54799999999999 L 103.44799999999996 50.795999999999985 L 103.55199999999996 50.92799999999998 L 103.77299999999997 51.20299999999998 L 103.84899999999996 51.29899999999998 L 104.14399999999996 51.66199999999998 L 104.14999999999996 51.66799999999998 C 104.24399999999996 51.784999999999975 104.33999999999996 51.897999999999975 104.43299999999996 52.01199999999998 L 104.71599999999997 52.35199999999998 L 104.82699999999997 52.481999999999985 L 104.99699999999997 52.68399999999998 L 105.11399999999998 52.816999999999986 L 105.27599999999998 53.00499999999999 L 105.39299999999999 53.136999999999986 L 105.54899999999999 53.31499999999998 L 105.669 53.447999999999986 L 105.82 53.61699999999998 L 105.937 53.74599999999998 L 106.085 53.90599999999998 L 106.19999999999999 54.031999999999975 L 106.34499999999998 54.186999999999976 L 106.46199999999999 54.306999999999974 L 106.603 54.45499999999998 L 106.716 54.57099999999998 L 106.857 54.71299999999998 L 106.967 54.82299999999998 L 107.105 54.96099999999998 L 107.212 55.065999999999974 L 107.35300000000001 55.20099999999997 L 107.453 55.29499999999997 L 107.596 55.42999999999997 L 107.688 55.513999999999974 L 107.84 55.650999999999975 L 107.918 55.720999999999975 L 108.108 55.88699999999997 L 108.14200000000001 55.91699999999997 L 108.36300000000001 56.09999999999997 L 108.41800000000002 56.14399999999997 L 108.57600000000002 56.27199999999997 L 108.65200000000002 56.33099999999997 L 108.78300000000002 56.43099999999997 L 108.86700000000002 56.49099999999997 L 108.98700000000002 56.577999999999975 L 109.07000000000002 56.63499999999998 L 109.18100000000003 56.71099999999998 L 109.26500000000003 56.76599999999998 L 109.37200000000003 56.83199999999998 L 109.45400000000002 56.88199999999998 L 109.55600000000003 56.940999999999974 L 109.63600000000002 56.98499999999997 L 109.73600000000002 57.03699999999997 L 109.81400000000002 57.07499999999997 L 109.90600000000002 57.118999999999964 L 109.98200000000001 57.15099999999996 L 110.07200000000002 57.18799999999996 L 110.14400000000002 57.21499999999996 L 110.23000000000002 57.24299999999996 L 110.29800000000002 57.26299999999996 L 110.38400000000001 57.28499999999996 L 110.44600000000001 57.298999999999964 L 110.53000000000002 57.313999999999965 L 110.59000000000002 57.32199999999997 L 110.67100000000002 57.32799999999997 L 110.72400000000002 57.32999999999997 L 110.73000000000002 57.32999999999997 L 110.79600000000002 57.32699999999997 L 110.85300000000002 57.32399999999997 L 110.92500000000003 57.31099999999997 L 110.97500000000002 57.30099999999997 L 111.05000000000003 57.27799999999997 L 111.08700000000003 57.26599999999997 L 111.18900000000004 57.21599999999997 L 111.19300000000004 57.214999999999975 L 111.19700000000005 57.21299999999997 L 111.19900000000004 57.21099999999997 C 111.47000000000004 57.05099999999997 111.64400000000003 56.73399999999997 111.72400000000005 56.27799999999997 C 111.74400000000004 56.16399999999997 111.75900000000004 56.03799999999997 111.76700000000005 55.90699999999997 C 111.77500000000005 55.773999999999965 111.77700000000006 55.63299999999997 111.77500000000005 55.48299999999997 C 111.76944969840561 55.248704405817335 111.75309900172437 55.01478933696952 111.72600000000004 54.78199999999996 C 111.58000000000004 53.474999999999966 111.11900000000004 51.71699999999997 110.38200000000005 49.62099999999997 C 110.1791335371947 49.03885931188887 109.96576538136429 48.46043157694234 109.74200000000005 47.885999999999946 C 109.62327897478208 47.57963504670382 109.50194120829113 47.274290557402395 109.37800000000004 46.96999999999994 C 109.31603771174315 46.812118227768536 109.25270197789933 46.654778931061784 109.18800000000005 46.49799999999996 C 109.13592762601769 46.37061486633632 109.0829262143804 46.24361148373373 109.02900000000002 46.11699999999996 L 110.14900000000004 45.47099999999997 C 111.23900000000005 48.13499999999997 112.12900000000005 50.669999999999966 112.78900000000004 53.00399999999997 C 114.78100000000005 60.04699999999997 113.86500000000004 62.41999999999997 113.38900000000004 62.69599999999997 C 112.91000000000004 62.97199999999997 110.39700000000003 62.57999999999997 105.29300000000003 57.33099999999997 C 104.34233794666858 56.34774222894645 103.4238539902509 55.33387468083109 102.53900000000002 54.29099999999997 C 102.25762257257884 53.96080731985815 101.78381636714904 53.87204679060876 101.40200000000003 54.07799999999997 C 101.14659665462723 54.21692384653702 100.9646462858916 54.460510154603654 100.90389813747547 54.74483455810831 C 100.84314998905933 55.029158961612964 100.90966951754665 55.32583282040471 101.08600000000003 55.55699999999997 L 101.08800000000002 55.560999999999964 L 101.11900000000003 55.593999999999966 z M 108.851 22.481 L 105.769 20.703000000000003 L 107.649 17.451000000000004 L 110.729 19.229000000000003 L 108.851 22.481 z M 109.29899999999999 10.149000000000001 L 112.06899999999999 11.749 L 111.30499999999999 17.335 L 104.85199999999999 13.610000000000001 L 109.29899999999999 10.149000000000001 z M 103.472 15.039000000000001 L 106.55399999999999 16.818 L 104.67699999999999 20.07 L 101.595 18.293 L 103.472 15.039 z M 86.96199999999999 19.573 C 85.972 17.018 85.466 15.253 85.219 14.048 C 86.589 15.367 88.249 17.326999999999998 90.077 19.773 L 87.614 21.197 C 87.39091987918725 20.657991622622962 87.17357427304248 20.116627720201055 86.96199999999999 19.572999999999997 z M 85.45199999999998 46.254999999999995 L 88.53399999999998 48.03399999999999 L 84.43399999999998 55.13399999999999 L 81.35399999999998 53.355999999999995 L 85.45199999999998 46.254999999999995 z M 85.79299999999998 62.419999999999995 C 85.26210418806816 63.33808650152771 84.08815177080555 63.65304934518353 83.16899999999998 63.123999999999995 L 79.24099999999999 60.85399999999999 C 78.32398375148793 60.322771233969135 78.00921920215632 59.15000502246792 78.53699999999999 58.230999999999995 L 80.389 55.023999999999994 L 87.645 59.211999999999996 L 85.79299999999999 62.419999999999995 z M 88.60799999999998 57.544 L 85.52599999999998 55.766 L 89.62599999999998 48.666 L 92.70699999999998 50.443 L 88.60799999999998 57.543 z M 103.76799999999997 49.153 L 106.24599999999997 47.722 C 107.46299999999997 50.536 108.34399999999997 52.967 108.82199999999996 54.838 C 107.89599999999996 54.028 106.58599999999996 52.692 104.79899999999996 50.47 C 104.45033878502615 50.034672577623155 104.10631931305029 49.595647728212114 103.76699999999997 49.153000000000006 z M 97.11899999999997 48.473 L 84.89 41.41 L 84.89 38.104 L 100.97 28.819 L 97.12 26.595 L 84.89 33.657 L 84.89 27.284999999999997 L 97.12 20.222999999999995 L 109.35000000000001 27.284999999999997 L 109.35000000000001 30.591999999999995 L 93.27000000000001 39.876999999999995 L 97.12 42.099999999999994 L 109.35000000000001 35.038 L 109.35000000000001 41.41 L 97.12 48.471999999999994 z" stroke-linecap="round" />
</g>
		<g transform="matrix(1 0 0 1 0.73 -0.06)"  >
<path style="stroke: none; stroke-width: 1; stroke-dasharray: none; stroke-linecap: butt; stroke-dashoffset: 0; stroke-linejoin: miter; stroke-miterlimit: 4; fill: rgb(255,255,255); fill-rule: nonzero; opacity: 1;" vector-effect="non-scaling-stroke"  transform=" translate(-97.73, -33.94)" d="M 85.44 10.692 L 85.37 10.665000000000001 L 85.44 10.692 M 85.778 10.842 L 85.70100000000001 10.804 L 85.778 10.842 M 85.13 10.593 L 85.065 10.578 L 85.13 10.593 M 85.605 10.759 L 85.53 10.727 L 85.605 10.759 M 85.955 10.938 L 85.876 10.894 L 85.956 10.938 M 85.282 10.635 L 85.213 10.613999999999999 L 85.28299999999999 10.633999999999999 M 92.366 17.463 L 92.263 17.330000000000002 L 92.366 17.463 M 90.234 14.868 L 90.13 14.75 L 90.234 14.868 M 86.14 11.045 L 86.058 10.995 L 86.13900000000001 11.045 M 89.96 14.555 L 89.85499999999999 14.437999999999999 L 89.95899999999999 14.555 M 90.793 15.519 L 90.709 15.419 L 90.793 15.519 M 89.688 14.254 L 89.583 14.139 L 89.688 14.254 M 91.71 16.632 L 91.66999999999999 16.580000000000002 L 91.71 16.632 M 91.08 15.86 L 91.021 15.792 L 91.07900000000001 15.861 M 92.68 17.868 L 92.56700000000001 17.72 L 92.679 17.868 M 92.893 18.147 L 92.871 18.116999999999997 L 92.893 18.147 M 92.047 17.055 L 91.965 16.951 L 92.047 17.055 M 89.424 13.964 L 89.31700000000001 13.85 L 89.424 13.964 M 90.511 15.188 L 90.414 15.075000000000001 L 90.511 15.188 M 89.161 13.684 L 89.057 13.574 L 89.161 13.684 M 86.727 11.446 L 86.65 11.389 L 86.727 11.446 M 86.33 11.166 L 86.25 11.113 L 86.33 11.166 M 87.15 11.775 L 87.107 11.741 L 87.149 11.775 M 86.526 11.299 L 86.446 11.244 L 86.526 11.299 M 86.935 11.604 L 86.866 11.550999999999998 L 86.93599999999999 11.604 M 88.398 12.907 L 88.304 12.814 L 88.398 12.907 M 88.152 12.667 L 88.062 12.581999999999999 L 88.152 12.667 M 87.908 12.439 L 87.828 12.364 L 87.908 12.439 M 87.66 12.213 L 87.597 12.155999999999999 L 87.66 12.213 M 88.903 13.415 L 88.799 13.309 L 88.903 13.415 M 109.736 57.034 L 109.81400000000001 57.071999999999996 L 109.736 57.034 M 109.556 56.939 L 109.636 56.983 L 109.556 56.939 M 108.107 55.887 L 108.142 55.917 L 108.107 55.887 M 109.906 57.117 L 109.982 57.148999999999994 L 109.906 57.117 M 110.23 57.242 L 110.298 57.262 L 110.23 57.242 M 110.072 57.186 L 110.144 57.213 L 110.072 57.186 M 108.986 56.576 L 109.07000000000001 56.633 L 108.986 56.576 M 108.363 56.1 L 108.418 56.144 L 108.363 56.1 M 108.576 56.272 L 108.65199999999999 56.330999999999996 L 108.576 56.270999999999994 M 84.983 10.565 L 84.923 10.557 L 84.983 10.565 M 110.385 57.284 L 110.447 57.298 L 110.385 57.284 M 109.181 56.709 L 109.265 56.764 L 109.181 56.709 M 109.373 56.83 L 109.455 56.879999999999995 L 109.373 56.83 M 110.724 57.327 L 110.671 57.324999999999996 L 110.724 57.327 M 111.724 56.277 C 111.644 56.733000000000004 111.47 57.049 111.199 57.21 L 111.197 57.212 C 111.471 57.051 111.644 56.734 111.724 56.277 M 106.967 54.825 L 106.858 54.714000000000006 L 106.968 54.824000000000005 M 111.051 57.276 L 111.08800000000001 57.264 L 111.051 57.276 M 110.926 57.309 L 110.976 57.299 L 110.926 57.309 M 110.797 57.325 L 110.854 57.322 L 110.797 57.325 M 110.531 57.312 L 110.59100000000001 57.32 L 110.531 57.312 M 108.783 56.43 L 108.867 56.49 L 108.783 56.43 M 102.822 49.994 L 102.949 50.16 L 102.822 49.994 M 88.551 13.056 L 88.649 13.155 L 88.551 13.055 M 83.737 12.176 C 83.752 11.402000000000001 83.94 10.882 84.318 10.664 L 84.318 10.663 C 83.94 10.882 83.752 11.402000000000001 83.738 12.176 M 84.788 10.549 L 84.843 10.551 L 84.788 10.549 M 103.447 50.796 L 103.551 50.928 L 103.447 50.796 M 103.771 51.203 L 103.847 51.299 L 103.771 51.203 M 103.135 50.398 L 103.25500000000001 50.548 L 103.135 50.398 M 84.592 10.567 L 84.538 10.577 L 84.592 10.567 M 84.72 10.55 L 84.66 10.555000000000001 L 84.72 10.551000000000002 M 84.32 10.662 L 84.327 10.659 L 84.32 10.662 M 84.468 10.599 L 84.424 10.613 L 84.468 10.599 M 107.353 55.2 L 107.45299999999999 55.295 L 107.353 55.201 M 106.346 54.187 L 106.46300000000001 54.306999999999995 L 106.346 54.187 M 106.086 53.907 L 106.201 54.032 L 106.086 53.907 M 105.82 53.617 L 105.937 53.745999999999995 L 105.82 53.61599999999999 M 107.105 54.96 L 107.212 55.066 L 107.105 54.961000000000006 M 107.84 55.65 L 107.918 55.72 L 107.84 55.65 M 107.596 55.43 L 107.688 55.514 L 107.596 55.43 M 105.275 53.005 L 105.39200000000001 53.137 L 105.275 53.005 M 105.55 53.315 L 105.66799999999999 53.448 L 105.54899999999999 53.315 M 104.431 52.012 L 104.51899999999999 52.116 L 104.431 52.012 M 104.715 52.353 L 104.82600000000001 52.482 L 104.71600000000001 52.352 M 104.142 51.662 L 104.148 51.668 L 104.142 51.662 M 104.996 52.684 L 105.113 52.817 L 104.996 52.684 M 106.603 54.455 L 106.716 54.571 L 106.603 54.455" stroke-linecap="round" />
</g>
		<g transform="matrix(1 0 0 1 0.27 -0.78)"  >
<path style="stroke: none; stroke-width: 1; stroke-dasharray: none; stroke-linecap: butt; stroke-dashoffset: 0; stroke-linejoin: miter; stroke-miterlimit: 4; fill: rgb(62,70,110); fill-rule: nonzero; opacity: 1;" vector-effect="non-scaling-stroke"  transform=" translate(-97.27, -33.22)" d="M 77.83 14.556 C 77.83320903066539 14.142211818618922 77.60959413097217 13.759883673172535 77.24736444192527 13.559832156553789 C 76.88513475287839 13.359780639935044 76.44244672041371 13.374124282354005 76.09392704038402 13.59720496184119 C 75.7454073603543 13.820285641328374 75.54701131898301 14.216287465735126 75.577 14.629 C 75.62646285568943 15.22803410573515 76.13696266187704 15.68305754478108 76.73771985096948 15.66358362168883 C 77.33847704006193 15.644109698596578 77.81843635506041 15.156979902602785 77.829 14.556 M 78.518 17.4 C 78.52047902031998 17.158781346450017 78.3903675897308 16.93566393363647 78.17920613661009 16.819030211762556 C 77.96804468348937 16.702396489888642 77.70990675429705 16.711066771479835 77.50704731149749 16.841606538712902 C 77.30418786869792 16.972146305945973 77.1893408253558 17.203491331624384 77.208 17.444 C 77.23508116156242 17.793923074337783 77.53278494691071 18.060543421457023 77.88356546399079 18.04902925181241 C 78.23434598107087 18.037515082167797 78.51392445716687 17.75194577532176 78.518 17.401 M 91.604 8.725 C 91.84203283812518 8.722260394932585 92.05996363818494 8.590978411639323 92.17365907082603 8.381836148912724 C 92.28735450346714 8.172693886186124 92.27902690623836 7.918411673130443 92.15189119176414 7.717156492906479 C 92.02475547728992 7.515901312682516 91.79870204153457 7.399159559503536 91.56099999999999 7.412 C 91.20410415300056 7.431279177651341 90.92809199010246 7.732323681777717 90.93979089413568 8.08954835609457 C 90.95148979816891 8.446773030411423 91.24660748108045 8.729113358323161 91.604 8.725 M 100.25 57.659 C 99.88825348886083 57.67142640687119 99.60507359312881 57.974753488860834 99.6175 58.3365 C 99.62992640687119 58.698246511139175 99.93325348886083 58.98142640687119 100.295 58.969 C 100.65674651113918 58.95657359312881 100.9399264068712 58.65324651113917 100.92750000000001 58.2915 C 100.91507359312881 57.929753488860825 100.61174651113917 57.64657359312881 100.25 57.659 M 117.82 56.787 C 117.20337407681392 56.80743453574374 116.72006546425625 57.323874076813915 116.7405 57.9405 C 116.76093453574373 58.55712592318608 117.27737407681391 59.040434535743735 117.89399999999999 59.019999999999996 C 118.51062592318607 58.99956546425626 118.99393453574373 58.48312592318608 118.97349999999999 57.8665 C 118.95306546425626 57.24987407681392 118.43662592318607 56.76656546425626 117.82 56.787 M 117.01 55.617 C 117.37229879588901 55.605678162628465 117.65682183737154 55.302798795889 117.6455 54.9405 C 117.63417816262847 54.578201204111004 117.33129879588901 54.29367816262847 116.96900000000001 54.305 C 116.606701204111 54.31632183737153 116.32217816262848 54.619201204111 116.33350000000002 54.9815 C 116.34482183737154 55.343798795889 116.647701204111 55.62832183737153 117.01 55.617" stroke-linecap="round" />
</g>
		<g transform="matrix(1 0 0 1 0.12 0.35)"  >
<path style="stroke: none; stroke-width: 1; stroke-dasharray: none; stroke-linecap: butt; stroke-dashoffset: 0; stroke-linejoin: miter; stroke-miterlimit: 4; fill: rgb(255,255,255); fill-rule: nonzero; opacity: 1;" vector-effect="non-scaling-stroke"  transform=" translate(-97.12, -34.35)" d="M 109.35 35.039 L 97.12 42.1 L 93.268 39.877 L 109.349 30.592000000000002 L 109.349 27.285000000000004 L 97.119 20.223000000000003 L 84.889 27.285000000000004 L 84.889 33.657000000000004 L 97.119 26.595000000000002 L 100.969 28.819000000000003 L 84.889 38.104 L 84.889 41.41 L 97.119 48.471999999999994 L 109.349 41.41 L 109.349 35.038" stroke-linecap="round" />
</g>
</g>
</g>
</svg>