<svg width="177" height="224" viewBox="0 0 177 224" fill="none" xmlns="http://www.w3.org/2000/svg">
<path fill-rule="evenodd" clip-rule="evenodd" d="M43.7847 0.710045C42.4758 0.860099 41.2444 1.22973 40.0207 1.83966C38.7273 2.48432 37.8279 3.15665 36.7643 4.27438C34.9825 6.14626 33.8853 8.42857 33.4459 11.1761C33.2807 12.2095 33.2968 14.2324 33.4783 15.2796C34.1901 19.3839 36.5563 22.6979 40.0166 24.4364C44.0144 26.445 48.8845 25.8401 52.3322 22.9067C56.2688 19.5574 57.7475 13.8681 56.0059 8.77185C55.6236 7.65275 54.8917 6.27286 54.1538 5.2796C53.7913 4.792 52.7733 3.72756 52.2462 3.28562C49.91 1.32701 46.7617 0.368668 43.7847 0.710045ZM131.169 0.710168C129.174 0.939644 127.246 1.72081 125.561 2.98171C124.881 3.49029 123.581 4.84222 123.099 5.5401C121.453 7.92673 120.724 10.2631 120.727 13.1415C120.729 15.3302 121.133 17.0865 122.078 19.0123C123.686 22.2886 126.77 24.722 130.159 25.389C133.938 26.1328 137.633 25.0148 140.375 22.2977C141.477 21.2055 142.175 20.2184 142.854 18.7923C143.525 17.3824 143.898 16.027 144.063 14.4047C144.15 13.5458 144.102 11.8378 143.969 11.0225C143.453 7.87915 141.815 5.00813 139.476 3.15013C137.095 1.25855 134.086 0.374687 131.169 0.710168ZM80.7144 13.2492L72.7473 25.7943L88.5083 25.8098C97.1765 25.8183 104.278 25.8157 104.29 25.804C104.318 25.7752 88.7856 0.739159 88.7274 0.719504C88.7021 0.710969 85.0961 6.34932 80.7144 13.2492ZM0.0201749 83.8527C0.0352308 120.641 0.0580555 133.237 0.110992 134.019C0.276306 136.46 0.373688 137.715 0.487331 138.871C1.84754 152.707 6.06176 165.958 12.9208 177.966C16.0875 183.509 19.7968 188.68 24.201 193.689C25.4 195.053 29.1012 198.847 30.445 200.089C38.2529 207.306 46.9123 212.919 56.3431 216.876C74.0416 224.302 93.7558 225.385 112.134 219.941C123.875 216.463 135.021 210.289 144.448 202.039C146.854 199.935 149.84 197.013 151.885 194.765C160.311 185.496 166.71 174.927 171.035 163.132C174.468 153.774 176.396 144.242 176.938 133.957C176.978 133.183 176.999 116.285 176.999 83.7606V34.731H88.4997H0L0.0201749 83.8527ZM158.63 69.8182L158.629 85.1889L94.6924 127.768L30.7559 170.348L30.4562 169.872C26.4779 163.564 23.2962 156.033 21.3843 148.397C20.1491 143.464 19.4747 138.918 19.0826 132.882C19.0313 132.092 19.007 121.583 18.9908 93.1274L18.9689 54.4475H88.7999H158.631L158.63 69.8182ZM35.0685 84.7741C35.09 101.567 35.0742 100.672 35.3877 102.817C36.8546 112.855 43.2458 121.441 52.138 125.32C54.5212 126.359 57.1034 127.032 59.8642 127.331C61.1223 127.468 63.6523 127.468 64.9383 127.331C71.174 126.666 76.7574 123.94 81.2455 119.37C86.2705 114.253 89.2286 107.483 89.6737 100.083C89.7119 99.4479 89.7348 93.4962 89.7348 84.1292L89.7354 69.1885H80.6114H71.4875V84.1708C71.4875 94.6099 71.4677 99.2986 71.4221 99.6327C70.9303 103.24 68.5388 106.271 65.3237 107.362C64.2503 107.726 63.8201 107.792 62.5442 107.789C61.5233 107.787 61.3277 107.769 60.726 107.625C57.2095 106.778 54.615 103.996 53.8303 100.229L53.6915 99.5613L53.6755 84.3748L53.6597 69.1885H44.3539H35.0484L35.0685 84.7741ZM158.513 116.79C158.446 125.316 158.44 125.607 158.33 125.704C158.267 125.758 141.947 136.7 122.063 150.019C102.18 163.338 85.8891 174.255 85.8624 174.28C85.8355 174.304 89.857 177.053 94.7991 180.387L103.785 186.45L129.386 169.044C143.467 159.47 155.062 151.588 155.152 151.528L155.317 151.419L155.263 151.594C155.233 151.691 155 152.419 154.745 153.213C149.899 168.32 140.51 181.43 128.037 190.505C120.919 195.684 113.099 199.365 104.761 201.459C96.4145 203.556 87.7279 203.996 79.2865 202.749C66.1252 200.804 53.7799 194.822 43.4821 185.398C42.9174 184.882 42.4649 184.43 42.4767 184.394C42.4881 184.359 68.6073 166.963 100.519 145.737L158.541 107.144L158.562 107.56C158.573 107.789 158.552 111.942 158.513 116.79Z" fill="#17355C"/>
</svg>
