<?xml version="1.0" encoding="UTF-8" standalone="no" ?>
<!DOCTYPE svg PUBLIC "-//W3C//DTD SVG 1.1//EN" "http://www.w3.org/Graphics/SVG/1.1/DTD/svg11.dtd">
<svg xmlns="http://www.w3.org/2000/svg" xmlns:xlink="http://www.w3.org/1999/xlink" version="1.1" width="1080" height="1080" viewBox="0 0 1080 1080" xml:space="preserve">
<desc>Created with Fabric.js 5.2.4</desc>
<defs>
</defs>
<g transform="matrix(1 0 0 1 540 540)" id="7724768d-80b2-4109-b09d-7b15a7c1c2c9"  >
<rect style="stroke: none; stroke-width: 1; stroke-dasharray: none; stroke-linecap: butt; stroke-dashoffset: 0; stroke-linejoin: miter; stroke-miterlimit: 4; fill: rgb(255,255,255); fill-rule: nonzero; opacity: 1; visibility: hidden;" vector-effect="non-scaling-stroke"  x="-540" y="-540" rx="0" ry="0" width="1080" height="1080" />
</g>
<g transform="matrix(1 0 0 1 540 540)" id="4827e6a3-2305-4f41-a75b-59e20fc2c064"  >
</g>
<g transform="matrix(0.11 0 0 0.11 540 540)"  >
<g style=""   >
		<g transform="matrix(17.04 0 0 17.04 0 -152)" clip-path="url(#CLIPPATH_3)"  >
<clipPath id="CLIPPATH_3" >
	<rect transform="matrix(0.06 0 0 0.06 0 8.92)" id="__lottie_element_2" x="-5000" y="-2080" rx="0" ry="0" width="10000" height="4160" />
</clipPath>
<path style="stroke: none; stroke-width: 1; stroke-dasharray: none; stroke-linecap: butt; stroke-dashoffset: 0; stroke-linejoin: miter; stroke-miterlimit: 4; fill: rgb(220,220,220); fill-rule: nonzero; opacity: 1;" vector-effect="non-scaling-stroke"  transform=" translate(0, 0)" d="M 0 -105 C 121.50299835205078 -105 220 0 220 0 C 220 0 121.50299835205078 105 0 105 C -121.50299835205078 105 -220 0 -220 0 C -220 0 -121.50299835205078 -105 0 -105 z" stroke-linecap="round" />
</g>
		<g transform="matrix(17.04 0 0 17.04 0 -152)" clip-path="url(#CLIPPATH_4)"  >
<clipPath id="CLIPPATH_4" >
	<rect transform="matrix(0.06 0 0 0.06 0 8.92)" id="__lottie_element_2" x="-5000" y="-2080" rx="0" ry="0" width="10000" height="4160" />
</clipPath>
<path style="stroke: none; stroke-width: 1; stroke-dasharray: none; stroke-linecap: butt; stroke-dashoffset: 0; stroke-linejoin: miter; stroke-miterlimit: 4; fill: rgb(149,255,0); fill-rule: nonzero; opacity: 1;" vector-effect="non-scaling-stroke"  transform=" translate(0, 0)" d="M 0 -110 C 60.750999450683594 -110 110 -60.750999450683594 110 0 C 110 60.750999450683594 60.750999450683594 110 0 110 C -60.750999450683594 110 -110 60.750999450683594 -110 0 C -110 -60.750999450683594 -60.750999450683594 -110 0 -110 z" stroke-linecap="round" />
</g>
		<g transform="matrix(17.04 0 0 17.04 0 -152)" clip-path="url(#CLIPPATH_5)"  >
<clipPath id="CLIPPATH_5" >
	<rect transform="matrix(0.06 0 0 0.06 0 8.92)" id="__lottie_element_2" x="-5000" y="-2080" rx="0" ry="0" width="10000" height="4160" />
</clipPath>
<path style="stroke: none; stroke-width: 1; stroke-dasharray: none; stroke-linecap: butt; stroke-dashoffset: 0; stroke-linejoin: miter; stroke-miterlimit: 4; fill: rgb(8,2,1); fill-rule: nonzero; opacity: 1;" vector-effect="non-scaling-stroke"  transform=" translate(0, 0)" d="M 0 -47 C 25.957000732421875 -47 47 -25.957000732421875 47 0 C 47 25.957000732421875 25.957000732421875 47 0 47 C -25.957000732421875 47 -47 25.957000732421875 -47 0 C -47 -25.957000732421875 -25.957000732421875 -47 0 -47 z" stroke-linecap="round" />
</g>
		<g transform="matrix(17.04 0 0 17.42 545.19 -731.26)" clip-path="url(#CLIPPATH_6)"  >
<clipPath id="CLIPPATH_6" >
	<rect transform="matrix(0.06 0 0 0.06 -32 41.99)" id="__lottie_element_2" x="-5000" y="-2080" rx="0" ry="0" width="10000" height="4160" />
</clipPath>
<path style="stroke: none; stroke-width: 1; stroke-dasharray: none; stroke-linecap: butt; stroke-dashoffset: 0; stroke-linejoin: miter; stroke-miterlimit: 4; fill: rgb(255,255,255); fill-rule: nonzero; opacity: 1;" vector-effect="non-scaling-stroke"  transform=" translate(-32, 33.26)" d="M 32 -52.82600021362305 C 42.805999755859375 -52.82600021362305 51.564998626708984 -44.06700134277344 51.564998626708984 -33.26100158691406 C 51.564998626708984 -22.454999923706055 42.805999755859375 -13.696000099182129 32 -13.696000099182129 C 21.194000244140625 -13.696000099182129 12.4350004196167 -22.454999923706055 12.4350004196167 -33.26100158691406 C 12.4350004196167 -44.06700134277344 21.194000244140625 -52.82600021362305 32 -52.82600021362305 z" stroke-linecap="round" />
</g>
		<g transform="matrix(17.04 0 0 17.42 387.59 -113.67)" clip-path="url(#CLIPPATH_7)"  >
<clipPath id="CLIPPATH_7" >
	<rect transform="matrix(0.06 0 0 0.06 -22.75 6.53)" id="__lottie_element_2" x="-5000" y="-2080" rx="0" ry="0" width="10000" height="4160" />
</clipPath>
<path style="stroke: none; stroke-width: 1; stroke-dasharray: none; stroke-linecap: butt; stroke-dashoffset: 0; stroke-linejoin: miter; stroke-miterlimit: 4; fill: rgb(255,255,255); fill-rule: nonzero; opacity: 1;" vector-effect="non-scaling-stroke"  transform=" translate(-22.75, -2.2)" d="M 22.75 -5.625 C 27.07200050354004 -5.625 30.576000213623047 -2.121000051498413 30.576000213623047 2.2009999752044678 C 30.576000213623047 6.5229997634887695 27.07200050354004 10.027000427246094 22.75 10.027000427246094 C 18.42799949645996 10.027000427246094 14.923999786376953 6.5229997634887695 14.923999786376953 2.2009999752044678 C 14.923999786376953 -2.121000051498413 18.42799949645996 -5.625 22.75 -5.625 z" stroke-linecap="round" />
</g>
</g>
</g>
</svg>